<?xml version="1.0" encoding="utf-8"?>
<!-- Generator: Adobe Illustrator 16.0.3, SVG Export Plug-In . SVG Version: 6.00 Build 0)  -->
<!DOCTYPE svg PUBLIC "-//W3C//DTD SVG 1.1//EN" "http://www.w3.org/Graphics/SVG/1.1/DTD/svg11.dtd">
<svg version="1.1" xmlns="http://www.w3.org/2000/svg" xmlns:xlink="http://www.w3.org/1999/xlink" x="0px" y="0px" width="232px"
	 height="154px" viewBox="0 0 232 154" enable-background="new 0 0 232 154" xml:space="preserve">
<g id="bg">
</g>
<g id="ガイド" display="none">
</g>
<g id="sns">
</g>
<g id="history">
	<g id="logo_7_">
		<rect x="1" y="89" fill="#2F2A20" width="27" height="5"/>
		<g>
			<path fill="#2F2A20" d="M43.638,93.94c-0.24-0.033-0.519-0.067-0.834-0.101c-0.265-0.033-0.594-0.059-0.985-0.075
				s-0.833-0.025-1.326-0.025c-0.947,0-2.081,0.059-3.4,0.176c-1.32,0.117-2.77,0.343-4.348,0.678
				c0.277-0.753,0.518-1.707,0.72-2.862s0.369-2.39,0.502-3.704c0.133-1.313,0.237-2.649,0.313-4.005
				c0.076-1.356,0.133-2.62,0.171-3.792c0.038-1.171,0.06-2.185,0.066-3.038c0.006-0.854,0.009-1.439,0.009-1.758
				c0-0.066-0.003-0.326-0.009-0.778c-0.007-0.452-0.017-1.038-0.028-1.758c-0.013-0.72-0.032-1.544-0.058-2.474
				c-0.025-0.929-0.06-1.896-0.104-2.9c-0.045-1.004-0.102-2.017-0.171-3.038s-0.151-1.983-0.246-2.888s-0.202-1.721-0.322-2.448
				c-0.12-0.729-0.262-1.302-0.426-1.721c1.225,0.285,2.38,0.481,3.467,0.591c1.086,0.108,2.077,0.163,2.975,0.163
				c0.618,0,1.181-0.017,1.686-0.051c0.505-0.033,0.935-0.075,1.288-0.125c0.417-0.051,0.783-0.108,1.1-0.176
				c-0.568,2.093-0.97,4.089-1.203,5.988c-0.234,1.9-0.351,3.57-0.351,5.01c0,1.842,0.183,3.193,0.549,4.056
				s0.872,1.293,1.516,1.293c0.796,0,1.358-0.54,1.687-1.619c0.328-1.08,0.492-2.574,0.492-4.482c0-1.038-0.037-2.084-0.113-3.139
				s-0.187-2.067-0.331-3.039c-0.146-0.971-0.316-1.883-0.512-2.736c-0.196-0.854-0.407-1.607-0.635-2.261
				c1.263,0.318,2.443,0.527,3.543,0.628c1.099,0.101,2.077,0.151,2.937,0.151c0.58,0,1.099-0.017,1.554-0.051
				c0.454-0.033,0.846-0.066,1.174-0.101c0.379-0.05,0.708-0.101,0.985-0.15c-0.139,0.938-0.269,2.001-0.389,3.189
				s-0.224,2.465-0.313,3.829c-0.088,1.364-0.154,2.809-0.198,4.331c-0.045,1.524-0.066,3.089-0.066,4.696
				c0,1.825,0.031,3.679,0.095,5.562c0.063,1.884,0.167,3.746,0.313,5.588c0.145,1.842,0.328,3.637,0.549,5.386
				c0.222,1.75,0.483,3.402,0.787,4.96c-0.24-0.034-0.519-0.067-0.834-0.101c-0.266-0.034-0.594-0.06-0.985-0.075
				c-0.392-0.018-0.833-0.025-1.326-0.025c-0.947,0-2.081,0.059-3.4,0.176c-1.32,0.117-2.77,0.343-4.349,0.678
				c0.177-0.469,0.348-1.071,0.512-1.808s0.31-1.532,0.436-2.386c0.127-0.854,0.228-1.736,0.304-2.649
				c0.075-0.912,0.113-1.778,0.113-2.599c0-1.573-0.167-2.767-0.502-3.578c-0.335-0.813-0.805-1.218-1.411-1.218
				c-0.53,0-0.96,0.326-1.288,0.979c-0.329,0.653-0.493,1.683-0.493,3.089c0,0.653,0.031,1.34,0.095,2.06s0.146,1.448,0.246,2.185
				c0.102,0.736,0.222,1.469,0.36,2.197C43.359,92.571,43.498,93.271,43.638,93.94z"/>
			<path fill="#2F2A20" d="M79.388,94.393c-0.783-0.135-1.538-0.227-2.264-0.276c-0.727-0.051-1.463-0.075-2.207-0.075
				c-2.009,0-4.067,0.259-6.177,0.778c0.076-0.402,0.161-0.758,0.256-1.067s0.18-0.653,0.256-1.029
				c0.075-0.377,0.139-0.816,0.189-1.318c0.05-0.503,0.075-1.146,0.075-1.934c0-0.804-0.044-1.569-0.132-2.298
				c-0.089-0.729-0.222-1.372-0.398-1.934c-0.177-0.561-0.395-1.009-0.653-1.344c-0.259-0.334-0.559-0.502-0.9-0.502
				c-0.379,0-0.697,0.15-0.956,0.452c-0.259,0.301-0.468,0.712-0.625,1.23c-0.158,0.519-0.272,1.113-0.342,1.783
				c-0.069,0.669-0.104,1.381-0.104,2.134c0,0.754,0.034,1.402,0.104,1.946s0.152,1.017,0.247,1.419
				c0.095,0.401,0.186,0.758,0.274,1.067c0.088,0.31,0.151,0.615,0.189,0.916c-0.872-0.134-1.728-0.234-2.567-0.301
				c-0.84-0.067-1.677-0.101-2.51-0.101c-0.834,0-1.671,0.033-2.511,0.101c-0.84,0.066-1.708,0.167-2.604,0.301
				c0.782-3.013,1.468-6.001,2.056-8.965c0.587-2.963,1.089-5.942,1.506-8.939c0.417-2.996,0.754-6.026,1.014-9.09
				c0.259-3.063,0.451-6.202,0.577-9.416c0.935,0.167,1.961,0.288,3.079,0.364c1.118,0.075,2.264,0.112,3.438,0.112
				c0.998,0,1.967-0.033,2.908-0.101c0.94-0.066,1.81-0.209,2.605-0.427c0.088,3.198,0.315,6.345,0.682,9.442
				c0.366,3.097,0.824,6.164,1.373,9.202c0.55,3.039,1.178,6.044,1.886,9.016C77.859,88.513,78.604,91.463,79.388,94.393z
				 M68.778,74.906c-0.025-0.317-0.102-0.787-0.228-1.406c-0.113-0.535-0.284-1.243-0.512-2.122s-0.562-2.013-1.004-3.402
				c-0.102,0.871-0.215,1.645-0.341,2.323c-0.127,0.678-0.246,1.289-0.36,1.833c-0.113,0.544-0.211,1.042-0.293,1.494
				c-0.083,0.451-0.124,0.879-0.124,1.28c0,0.837,0.148,1.485,0.445,1.946c0.297,0.46,0.629,0.69,0.995,0.69
				c0.392,0,0.72-0.251,0.985-0.754C68.607,76.287,68.753,75.659,68.778,74.906z"/>
			<path fill="#2F2A20" d="M101.725,94.492c-0.821-0.084-1.588-0.138-2.302-0.163c-0.714-0.024-1.373-0.037-1.979-0.037
				c-1.188,0-2.179,0.046-2.975,0.138s-1.446,0.188-1.951,0.289c-0.594,0.117-1.067,0.251-1.421,0.401
				c0.05-0.519,0.101-1.004,0.151-1.456c0.05-0.452,0.092-0.892,0.123-1.318s0.057-0.854,0.076-1.28
				c0.019-0.428,0.028-0.875,0.028-1.344c0-1.842-0.054-3.373-0.161-4.596c-0.107-1.222-0.263-2.243-0.465-3.063
				c-0.202-0.819-0.448-1.481-0.738-1.983c-0.291-0.502-0.613-0.954-0.967-1.356c-0.025,0.754-0.044,1.481-0.057,2.185
				s-0.019,1.448-0.019,2.235c0,0.771,0.013,1.573,0.038,2.41c0.024,0.838,0.069,1.725,0.132,2.662
				c0.063,0.938,0.158,1.938,0.284,3.001c0.127,1.063,0.284,2.214,0.474,3.452c-0.013-0.066-0.177-0.142-0.492-0.226
				s-0.739-0.159-1.27-0.226c-0.53-0.067-1.14-0.122-1.828-0.164c-0.688-0.041-1.405-0.063-2.15-0.063
				c-0.973,0-1.945,0.047-2.917,0.139c-0.973,0.092-1.851,0.271-2.634,0.539c0.303-0.519,0.578-1.176,0.824-1.971
				s0.464-1.67,0.653-2.624s0.351-1.959,0.483-3.014s0.249-2.092,0.351-3.113c0.228-2.394,0.379-4.947,0.454-7.659
				c0-0.669,0.003-1.515,0.01-2.536c0.006-1.021-0.007-2.135-0.038-3.34s-0.082-2.443-0.151-3.716s-0.184-2.494-0.341-3.666
				c-0.158-1.172-0.363-2.243-0.616-3.215c-0.252-0.971-0.574-1.749-0.966-2.335c0.909,0.185,1.793,0.306,2.652,0.364
				c0.858,0.059,1.592,0.088,2.197,0.088c0.531,0,1.021-0.017,1.469-0.051c0.448-0.033,0.894-0.066,1.336-0.101
				c0.441-0.033,0.902-0.066,1.383-0.1c0.479-0.034,1.01-0.051,1.591-0.051c0.796,0,1.598,0.055,2.406,0.163
				c0.809,0.109,1.582,0.302,2.321,0.578c0.738,0.276,1.427,0.652,2.064,1.13c0.638,0.477,1.194,1.079,1.668,1.808
				s0.846,1.604,1.117,2.624c0.271,1.021,0.407,2.21,0.407,3.565c0,0.754-0.072,1.507-0.218,2.261
				c-0.146,0.753-0.382,1.494-0.71,2.222c-0.329,0.729-0.755,1.424-1.279,2.085s-1.165,1.268-1.923,1.82
				c0.896,0.485,1.575,1.088,2.037,1.808c0.461,0.72,0.792,1.54,0.994,2.461s0.313,1.921,0.332,3.001
				c0.019,1.079,0.04,2.206,0.066,3.377c0.05,1.256,0.17,2.42,0.359,3.49c0.076,0.452,0.174,0.913,0.294,1.382
				s0.265,0.903,0.436,1.306c0.171,0.401,0.366,0.762,0.587,1.079C101.179,94.107,101.434,94.342,101.725,94.492z M89.145,72.847
				c0.278-0.268,0.591-0.606,0.938-1.017c0.347-0.41,0.669-0.862,0.966-1.355c0.297-0.494,0.546-1.018,0.748-1.57
				c0.202-0.552,0.304-1.104,0.304-1.657c0-0.535-0.117-0.971-0.351-1.306c-0.233-0.334-0.496-0.502-0.786-0.502
				c-0.404,0-0.727,0.247-0.967,0.741c-0.239,0.493-0.426,1.075-0.559,1.745c-0.133,0.669-0.221,1.343-0.265,2.021
				c-0.045,0.678-0.066,1.201-0.066,1.569c0,0.2,0,0.414,0,0.64C89.107,72.383,89.119,72.613,89.145,72.847z"/>
			<path fill="#2F2A20" d="M113.206,93.94c-0.215-0.033-0.48-0.067-0.796-0.101c-0.266-0.033-0.591-0.059-0.976-0.075
				c-0.386-0.017-0.818-0.025-1.298-0.025c-0.935,0-2.046,0.059-3.335,0.176c-1.288,0.117-2.722,0.343-4.3,0.678
				c0.669-3.732,1.133-7.391,1.393-10.973c0.258-3.583,0.388-7.031,0.388-10.346c0-3.014-0.088-5.847-0.265-8.5
				c-0.178-2.653-0.411-5.102-0.701-7.346c1.263,0.302,2.396,0.503,3.4,0.604c1.004,0.1,1.872,0.15,2.605,0.15
				c0.505,0,0.95-0.017,1.335-0.051c0.386-0.033,0.704-0.066,0.957-0.1c0.303-0.051,0.562-0.101,0.776-0.151
				c0.43,3.281,0.967,6.525,1.61,9.73c0.645,3.206,1.44,6.425,2.388,9.655c0.796-3.265,1.427-6.532,1.895-9.806
				c0.467-3.272,0.783-6.617,0.947-10.032l0.151,0.452l-0.151-0.452c1.263,0.302,2.412,0.503,3.448,0.604
				c1.035,0.1,1.951,0.15,2.747,0.15c0.53,0,0.997-0.017,1.401-0.051c0.404-0.033,0.752-0.066,1.042-0.1
				c0.329-0.051,0.613-0.101,0.853-0.151c-0.265,1.675-0.467,3.654-0.605,5.938c-0.14,2.285-0.209,4.733-0.209,7.346
				c0,1.857,0.038,3.771,0.114,5.737c0.075,1.968,0.192,3.926,0.35,5.876c0.158,1.95,0.363,3.871,0.616,5.763
				c0.253,1.893,0.556,3.691,0.909,5.399c-0.253-0.033-0.543-0.067-0.871-0.101c-0.291-0.033-0.632-0.059-1.023-0.075
				s-0.846-0.025-1.364-0.025c-0.984,0-2.144,0.059-3.477,0.176c-1.332,0.117-2.788,0.343-4.366,0.678
				c0.315-0.837,0.577-1.908,0.786-3.214c0.208-1.306,0.379-2.695,0.512-4.168c0.132-1.474,0.233-2.942,0.303-4.407
				s0.116-2.775,0.143-3.93c-0.367,1.038-0.721,2.093-1.062,3.164s-0.691,2.214-1.052,3.427c-0.359,1.215-0.735,2.524-1.127,3.931
				s-0.821,2.972-1.288,4.695c-0.48-1.724-0.916-3.289-1.308-4.695s-0.761-2.712-1.108-3.918c-0.347-1.205-0.688-2.348-1.022-3.428
				c-0.335-1.079-0.68-2.155-1.033-3.227c0.114,2.646,0.304,5.253,0.568,7.822C112.372,89.216,112.738,91.646,113.206,93.94z"/>
			<path fill="#2F2A20" d="M152.46,77.267c0,2.545-0.215,4.935-0.644,7.169c-0.43,2.235-1.08,4.186-1.951,5.851
				c-0.872,1.666-1.974,2.98-3.307,3.942c-1.332,0.963-2.908,1.444-4.727,1.444c-1.807,0-3.376-0.481-4.708-1.444
				c-1.333-0.962-2.438-2.276-3.315-3.942c-0.878-1.665-1.531-3.615-1.961-5.851c-0.43-2.234-0.645-4.624-0.645-7.169
				c0-1.875,0.133-3.683,0.398-5.424c0.265-1.741,0.631-3.365,1.099-4.871c0.467-1.507,1.029-2.88,1.687-4.118
				c0.656-1.239,1.379-2.298,2.169-3.177c0.789-0.879,1.629-1.561,2.52-2.047c0.891-0.485,1.81-0.729,2.757-0.729
				c1.591,0,3.041,0.516,4.348,1.545c1.308,1.029,2.425,2.457,3.354,4.281c0.929,1.825,1.648,3.977,2.16,6.453
				C152.204,71.658,152.46,74.354,152.46,77.267z M144.712,75.107c0-1.256-0.076-2.415-0.228-3.479
				c-0.151-1.063-0.357-1.983-0.616-2.762s-0.565-1.39-0.919-1.833s-0.726-0.666-1.117-0.666c-0.379,0-0.739,0.264-1.08,0.791
				s-0.642,1.21-0.899,2.047c-0.26,0.837-0.465,1.774-0.616,2.813s-0.228,2.067-0.228,3.089c0,0.987,0.066,1.904,0.199,2.749
				c0.133,0.846,0.318,1.578,0.559,2.197c0.24,0.62,0.533,1.109,0.881,1.469c0.348,0.36,0.742,0.54,1.185,0.54
				c0.429,0,0.824-0.18,1.184-0.54c0.36-0.359,0.663-0.849,0.91-1.469c0.246-0.619,0.438-1.352,0.577-2.197
				C144.642,77.012,144.712,76.095,144.712,75.107z"/>
			<path fill="#2F2A20" d="M164.983,93.94c-0.24-0.033-0.524-0.067-0.853-0.101c-0.277-0.033-0.612-0.059-1.004-0.075
				s-0.84-0.025-1.345-0.025c-0.985,0-2.139,0.059-3.458,0.176c-1.32,0.117-2.77,0.343-4.348,0.678
				c0.277-0.753,0.518-1.707,0.72-2.862s0.369-2.39,0.502-3.704c0.133-1.313,0.237-2.649,0.313-4.005
				c0.076-1.356,0.133-2.62,0.171-3.792c0.038-1.171,0.06-2.185,0.066-3.038c0.006-0.854,0.009-1.439,0.009-1.758
				c0-0.066-0.003-0.326-0.009-0.778c-0.007-0.452-0.017-1.038-0.028-1.758c-0.013-0.72-0.032-1.544-0.058-2.474
				c-0.025-0.929-0.06-1.896-0.104-2.9c-0.045-1.004-0.102-2.017-0.171-3.038s-0.151-1.983-0.246-2.888s-0.202-1.721-0.322-2.448
				c-0.12-0.729-0.262-1.302-0.426-1.721c1.275,0.302,2.438,0.503,3.485,0.604c1.049,0.1,1.983,0.15,2.804,0.15
				c0.556,0,1.052-0.017,1.487-0.051c0.437-0.033,0.799-0.066,1.09-0.1c0.341-0.051,0.644-0.101,0.909-0.151
				c0.543,3.55,1.162,6.839,1.856,9.869s1.478,5.842,2.35,8.437v-1.029c-0.038-2.729-0.107-5.273-0.209-7.634
				c-0.05-1.004-0.107-2.017-0.17-3.038c-0.063-1.021-0.143-1.983-0.237-2.888s-0.202-1.721-0.321-2.448
				c-0.12-0.729-0.263-1.302-0.427-1.721c1.263,0.302,2.428,0.503,3.495,0.604c1.067,0.1,2.012,0.15,2.833,0.15
				c0.556,0,1.051-0.017,1.487-0.051c0.436-0.033,0.798-0.066,1.089-0.1c0.341-0.051,0.645-0.101,0.909-0.151
				c-0.151,0.938-0.284,1.984-0.397,3.139c-0.113,1.155-0.215,2.386-0.303,3.691c-0.089,1.306-0.155,2.679-0.199,4.118
				c-0.045,1.44-0.066,2.922-0.066,4.445c0,1.724,0.031,3.478,0.095,5.261c0.063,1.782,0.167,3.557,0.313,5.323
				s0.328,3.499,0.55,5.197c0.221,1.7,0.482,3.327,0.786,4.885c-0.228-0.033-0.499-0.067-0.814-0.101
				c-0.266-0.033-0.588-0.059-0.967-0.075s-0.809-0.025-1.288-0.025c-0.909,0-1.958,0.059-3.145,0.176
				c-1.188,0.117-2.464,0.343-3.827,0.678c0-1.724-0.104-3.41-0.313-5.06c-0.209-1.648-0.503-3.272-0.882-4.871
				s-0.833-3.168-1.363-4.709c-0.531-1.54-1.118-3.063-1.763-4.569c0.013,1.573,0.061,3.163,0.143,4.771s0.195,3.197,0.341,4.771
				c0.146,1.573,0.322,3.117,0.53,4.633C164.463,91.073,164.706,92.534,164.983,93.94z"/>
			<path fill="#2F2A20" d="M199.521,58.459c-0.164,0.535-0.31,1.146-0.436,1.833s-0.236,1.406-0.331,2.159
				c-0.095,0.754-0.174,1.528-0.237,2.323s-0.113,1.561-0.151,2.297c-0.102,1.758-0.164,3.566-0.189,5.424
				c0,0.821,0.006,1.662,0.019,2.524s0.02,1.736,0.02,2.624c0,1.406-0.038,2.82-0.114,4.243c-0.075,1.424-0.24,2.787-0.492,4.094
				c-0.253,1.306-0.625,2.527-1.118,3.666c-0.492,1.139-1.158,2.126-1.998,2.963c-0.841,0.837-1.876,1.498-3.107,1.983
				s-2.719,0.729-4.462,0.729c-1.326,0-2.472-0.214-3.438-0.641c-0.966-0.427-1.762-1.004-2.387-1.732s-1.087-1.573-1.383-2.536
				c-0.298-0.963-0.445-1.979-0.445-3.051c0-0.804,0.126-1.557,0.379-2.26c0.252-0.703,0.59-1.311,1.014-1.821
				c0.423-0.51,0.909-0.912,1.458-1.205c0.55-0.293,1.115-0.439,1.696-0.439c0.745,0,1.465,0.26,2.159,0.778
				c0.694,0.52,1.308,1.356,1.838,2.512c-0.139-0.034-0.274-0.059-0.407-0.076c-0.133-0.016-0.256-0.024-0.369-0.024
				c-0.91,0-1.364,0.519-1.364,1.557c0,0.485,0.167,0.879,0.502,1.181c0.334,0.301,0.786,0.451,1.354,0.451
				c0.694,0,1.253-0.242,1.677-0.728c0.423-0.485,0.748-1.097,0.976-1.833c0.228-0.737,0.379-1.545,0.455-2.424
				c0.075-0.879,0.113-1.72,0.113-2.523v-1.08c-0.24,0.335-0.524,0.599-0.853,0.791c-0.328,0.193-0.663,0.344-1.004,0.452
				c-0.341,0.109-0.67,0.181-0.985,0.214s-0.581,0.05-0.796,0.05c-0.758,0-1.519-0.134-2.282-0.401
				c-0.765-0.268-1.459-0.771-2.084-1.507c-0.626-0.736-1.141-1.762-1.545-3.076c-0.404-1.313-0.631-3.018-0.682-5.11
				c0-0.083-0.003-0.405-0.01-0.967c-0.006-0.561-0.031-1.255-0.075-2.084c-0.045-0.828-0.114-1.736-0.209-2.725
				c-0.095-0.987-0.227-1.958-0.397-2.912c-0.171-0.955-0.386-1.838-0.645-2.649s-0.577-1.452-0.956-1.921
				c1.338,0.301,2.535,0.515,3.59,0.64c1.055,0.126,1.979,0.188,2.775,0.188c0.619,0,1.158-0.021,1.62-0.063
				c0.461-0.042,0.843-0.096,1.146-0.163c0.354-0.066,0.657-0.15,0.91-0.251c-0.063,0.687-0.13,1.41-0.199,2.172
				s-0.133,1.531-0.189,2.311c-0.057,0.778-0.102,1.561-0.133,2.348s-0.047,1.549-0.047,2.285c0,0.837,0.024,1.619,0.075,2.348
				s0.136,1.364,0.256,1.908s0.277,0.971,0.474,1.28c0.196,0.311,0.438,0.465,0.729,0.465c0.354,0,0.653-0.255,0.9-0.766
				c0.246-0.511,0.444-1.181,0.597-2.009c0.151-0.829,0.259-1.762,0.321-2.8c0.063-1.038,0.095-2.076,0.095-3.114
				c0-1.205-0.034-2.355-0.104-3.452s-0.155-1.979-0.256-2.649c0.228,0.117,0.523,0.21,0.891,0.276
				c0.315,0.084,0.729,0.15,1.24,0.201c0.512,0.05,1.146,0.075,1.904,0.075c0.606,0,1.298-0.025,2.074-0.075
				C197.674,58.685,198.548,58.593,199.521,58.459z"/>
			<path fill="#2F2A20" d="M19.208,110.592c-0.619-0.887-1.27-1.577-1.951-2.071c-0.683-0.494-1.314-0.854-1.896-1.08
				c-0.581-0.226-1.067-0.359-1.458-0.401c-0.392-0.042-0.613-0.063-0.663-0.063c-0.632,0-1.144,0.105-1.535,0.314
				s-0.698,0.477-0.919,0.804c-0.221,0.326-0.372,0.694-0.454,1.104c-0.083,0.41-0.123,0.825-0.123,1.243
				c0,0.401,0.034,0.82,0.104,1.256s0.187,0.833,0.351,1.192c0.164,0.36,0.386,0.657,0.663,0.892
				c0.278,0.234,0.632,0.352,1.062,0.352c0.024,0,0.126-0.004,0.303-0.013s0.397-0.075,0.663-0.201
				c0.266-0.125,0.559-0.343,0.881-0.652s0.647-0.758,0.976-1.344v10.22c-0.265-0.636-0.556-1.138-0.871-1.506
				c-0.316-0.368-0.616-0.641-0.9-0.816s-0.536-0.284-0.758-0.326c-0.221-0.042-0.369-0.063-0.445-0.063
				c-0.416,0-0.761,0.093-1.032,0.276c-0.271,0.185-0.486,0.439-0.644,0.766c-0.158,0.327-0.269,0.721-0.332,1.181
				c-0.063,0.461-0.095,0.967-0.095,1.52c0.038,1.289,0.133,2.62,0.284,3.992c0.063,0.586,0.146,1.205,0.246,1.858
				c0.102,0.652,0.228,1.327,0.379,2.021s0.328,1.39,0.53,2.084s0.437,1.377,0.701,2.047c-0.277-0.017-0.581-0.042-0.909-0.076
				c-0.291-0.033-0.628-0.058-1.014-0.075C9.965,135.008,9.533,135,9.053,135c-0.568,0-1.188,0.021-1.856,0.063
				c-0.67,0.042-1.352,0.113-2.046,0.213c-0.695,0.101-1.396,0.239-2.104,0.415c-0.707,0.176-1.383,0.397-2.026,0.665
				c0.277-0.753,0.518-1.707,0.72-2.862s0.369-2.386,0.502-3.691s0.236-2.637,0.313-3.993c0.076-1.355,0.133-2.615,0.171-3.778
				c0.037-1.164,0.06-2.177,0.066-3.039c0.006-0.861,0.009-1.452,0.009-1.771c0-0.066-0.003-0.326-0.009-0.778
				c-0.007-0.451-0.017-1.037-0.029-1.758c-0.013-0.719-0.031-1.544-0.057-2.473c-0.025-0.93-0.06-1.896-0.104-2.9
				c-0.045-1.005-0.102-2.018-0.171-3.039c-0.069-1.021-0.151-1.987-0.246-2.899c-0.095-0.913-0.202-1.733-0.322-2.461
				c-0.12-0.729-0.263-1.31-0.427-1.745c1.213,0.335,2.447,0.573,3.704,0.715c1.257,0.143,2.498,0.214,3.723,0.214
				c1.402,0,2.729-0.063,3.979-0.188c1.251-0.125,2.35-0.271,3.297-0.439c1.111-0.184,2.134-0.401,3.069-0.652V110.592z"/>
			<path fill="#2F2A20" d="M38.343,135.929c-0.656-0.168-1.329-0.298-2.018-0.39s-1.414-0.163-2.179-0.213
				c-0.764-0.051-1.579-0.079-2.443-0.088c-0.865-0.009-1.804-0.013-2.813-0.013c-0.48,0-1.052,0.009-1.715,0.025
				s-1.377,0.059-2.141,0.125c-0.765,0.067-1.551,0.163-2.359,0.289c-0.808,0.126-1.598,0.289-2.368,0.489
				c0.278-0.753,0.519-1.703,0.721-2.85c0.201-1.146,0.369-2.364,0.502-3.653s0.236-2.604,0.313-3.942
				c0.075-1.34,0.133-2.587,0.17-3.742c0.038-1.154,0.061-2.155,0.066-3c0.007-0.846,0.01-1.428,0.01-1.746
				c0-0.066-0.003-0.326-0.01-0.778c-0.006-0.451-0.016-1.037-0.028-1.758c-0.013-0.719-0.031-1.544-0.057-2.473
				c-0.025-0.93-0.061-1.896-0.104-2.9c-0.044-1.005-0.101-2.018-0.17-3.039c-0.07-1.021-0.151-1.987-0.246-2.899
				c-0.095-0.913-0.203-1.733-0.322-2.461c-0.12-0.729-0.263-1.31-0.427-1.745c1.238,0.234,2.457,0.405,3.656,0.515
				c1.2,0.108,2.362,0.163,3.486,0.163c1.377,0,2.665-0.051,3.865-0.15c1.199-0.101,2.248-0.218,3.145-0.352
				c1.048-0.151,2.002-0.327,2.861-0.527v11.776c-0.733-0.904-1.435-1.599-2.104-2.084c-0.67-0.485-1.263-0.845-1.781-1.08
				c-0.605-0.268-1.174-0.418-1.705-0.452c-0.631,0-1.146,0.105-1.544,0.314c-0.397,0.209-0.707,0.477-0.928,0.804
				c-0.222,0.326-0.37,0.694-0.445,1.104c-0.076,0.41-0.114,0.825-0.114,1.243c0,0.436,0.048,0.87,0.143,1.306
				s0.243,0.829,0.445,1.181c0.202,0.351,0.464,0.64,0.786,0.866c0.322,0.226,0.704,0.339,1.146,0.339
				c0.366,0,0.7-0.113,1.004-0.339c0.303-0.227,0.562-0.481,0.776-0.767c0.253-0.317,0.486-0.686,0.701-1.104v10.22
				c-0.202-0.636-0.438-1.138-0.71-1.506c-0.272-0.368-0.537-0.641-0.796-0.816s-0.493-0.284-0.701-0.326s-0.351-0.063-0.427-0.063
				c-0.82,0-1.434,0.335-1.837,1.005c-0.404,0.67-0.606,1.531-0.606,2.586c0,0.771,0.066,1.424,0.199,1.959
				c0.132,0.536,0.309,0.971,0.53,1.306c0.221,0.335,0.479,0.577,0.776,0.729c0.297,0.15,0.609,0.226,0.938,0.226
				c0.506,0,1.049-0.15,1.63-0.452c0.581-0.301,1.14-0.703,1.677-1.205c0.536-0.502,1.029-1.075,1.478-1.72s0.806-1.302,1.07-1.972
				L38.343,135.929z"/>
			<path fill="#2F2A20" d="M59.372,106.926c0,0.837-0.116,1.595-0.351,2.272c-0.233,0.678-0.559,1.26-0.976,1.745
				c-0.416,0.486-0.906,0.862-1.468,1.13c-0.563,0.269-1.172,0.402-1.828,0.402c-0.721,0-1.336-0.117-1.848-0.352
				s-0.94-0.531-1.288-0.892s-0.622-0.762-0.824-1.205s-0.356-0.875-0.464-1.294c-0.107-0.418-0.177-0.803-0.209-1.154
				c-0.031-0.352-0.047-0.619-0.047-0.804c0.151,0.335,0.328,0.548,0.53,0.64c0.202,0.093,0.372,0.139,0.512,0.139
				c0.354,0,0.603-0.126,0.748-0.377s0.218-0.519,0.218-0.804c0-0.184-0.028-0.376-0.085-0.577s-0.158-0.39-0.303-0.565
				c-0.146-0.176-0.342-0.322-0.588-0.439c-0.246-0.116-0.553-0.176-0.919-0.176c-0.253,0-0.512,0.063-0.776,0.188
				c-0.266,0.126-0.509,0.318-0.729,0.578s-0.401,0.581-0.54,0.967c-0.139,0.385-0.208,0.837-0.208,1.355
				c0,0.502,0.078,1.001,0.236,1.494c0.158,0.494,0.372,0.959,0.645,1.394c0.271,0.436,0.594,0.829,0.966,1.181
				c0.373,0.352,0.78,0.645,1.222,0.879c0.695,0.385,1.412,0.762,2.15,1.13c0.739,0.368,1.456,0.77,2.15,1.205
				s1.349,0.934,1.961,1.494s1.149,1.227,1.61,1.996c0.461,0.771,0.827,1.67,1.099,2.699c0.271,1.03,0.408,2.231,0.408,3.604
				c0,1.959-0.301,3.746-0.9,5.361c-0.6,1.616-1.402,2.997-2.406,4.144s-2.166,2.034-3.485,2.661c-1.32,0.628-2.7,0.942-4.14,0.942
				c-1.302,0-2.539-0.256-3.714-0.767s-2.204-1.209-3.088-2.097c-0.884-0.887-1.589-1.929-2.112-3.126
				c-0.524-1.196-0.786-2.49-0.786-3.88c0-1.021,0.126-1.916,0.379-2.687c0.252-0.77,0.603-1.41,1.052-1.921
				c0.447-0.511,0.972-0.892,1.572-1.143c0.6-0.251,1.24-0.377,1.923-0.377c0.53,0,1.052,0.075,1.563,0.227
				c0.512,0.15,0.992,0.372,1.44,0.665s0.853,0.649,1.212,1.067c0.36,0.419,0.647,0.896,0.862,1.432
				c-0.266-0.101-0.499-0.151-0.701-0.151c-0.341,0-0.612,0.135-0.814,0.402s-0.303,0.669-0.303,1.205
				c0,0.285,0.05,0.549,0.151,0.791c0.101,0.243,0.23,0.456,0.389,0.641c0.157,0.184,0.341,0.326,0.549,0.427
				c0.209,0.101,0.427,0.15,0.653,0.15c0.253,0,0.486-0.071,0.701-0.214c0.215-0.142,0.404-0.33,0.568-0.564
				s0.291-0.494,0.379-0.778c0.089-0.285,0.133-0.578,0.133-0.879c0-0.586-0.136-1.181-0.407-1.783s-0.666-1.138-1.185-1.607
				c-0.984-0.803-1.913-1.498-2.784-2.084c-0.872-0.586-1.674-1.143-2.406-1.67s-1.393-1.059-1.979-1.595
				c-0.588-0.535-1.087-1.154-1.497-1.857c-0.411-0.703-0.724-1.527-0.938-2.474c-0.215-0.945-0.322-2.088-0.322-3.428
				c0-1.607,0.233-3.113,0.701-4.52c0.467-1.406,1.146-2.633,2.036-3.679c0.891-1.047,1.979-1.871,3.269-2.474
				c1.288-0.603,2.753-0.904,4.395-0.904c1.655,0,3.057,0.264,4.206,0.791s2.081,1.21,2.795,2.047
				c0.713,0.837,1.231,1.771,1.554,2.8C59.211,104.904,59.372,105.921,59.372,106.926z"/>
			<path fill="#2F2A20" d="M76.764,135.477c-0.29-0.033-0.625-0.066-1.004-0.101c-0.328-0.033-0.714-0.059-1.155-0.075
				c-0.442-0.017-0.941-0.025-1.497-0.025c-0.935,0-1.986,0.047-3.154,0.139s-2.403,0.264-3.704,0.515
				c0.442-2.478,0.777-4.863,1.004-7.156c0.228-2.294,0.398-4.336,0.512-6.127c0.126-2.093,0.202-4.06,0.228-5.901
				c0-0.787-0.013-1.648-0.038-2.587c-0.025-0.803-0.057-1.736-0.095-2.8c-0.038-1.063-0.088-2.213-0.151-3.452
				c-0.594,0.753-1.184,1.561-1.771,2.423c-0.587,0.862-1.152,1.758-1.695,2.687c-0.543,0.93-1.052,1.871-1.525,2.825
				s-0.888,1.893-1.241,2.813l0.455-19.185c1.188,0.185,2.44,0.326,3.761,0.427c1.319,0.101,2.668,0.151,4.045,0.151
				c1.97,0,3.922-0.092,5.854-0.276c1.933-0.185,3.707-0.452,5.324-0.804l0.701,19.386c-0.909-2.294-1.917-4.449-3.022-6.467
				c-1.104-2.017-2.282-3.703-3.533-5.06c-0.101,1.139-0.174,2.331-0.218,3.578c-0.044,1.248-0.066,2.524-0.066,3.83
				c0,1.69,0.041,3.427,0.123,5.21s0.202,3.578,0.36,5.387c0.158,1.808,0.363,3.607,0.615,5.398
				C76.126,132.021,76.423,133.77,76.764,135.477z"/>
			<path fill="#2F2A20" d="M94.061,135.427c-0.265-0.033-0.562-0.067-0.891-0.101c-0.29-0.033-0.638-0.059-1.042-0.075
				s-0.871-0.025-1.401-0.025c-1.023,0-2.211,0.059-3.562,0.176c-1.352,0.117-2.817,0.343-4.396,0.678
				c0.277-0.753,0.518-1.707,0.72-2.862s0.369-2.39,0.502-3.704c0.133-1.313,0.237-2.649,0.313-4.005
				c0.076-1.356,0.133-2.62,0.171-3.792c0.038-1.171,0.06-2.185,0.066-3.038c0.006-0.854,0.009-1.439,0.009-1.758
				c0-0.066-0.003-0.326-0.009-0.778c-0.007-0.452-0.017-1.038-0.028-1.758c-0.013-0.72-0.032-1.544-0.058-2.474
				c-0.025-0.929-0.06-1.896-0.104-2.9c-0.045-1.004-0.102-2.017-0.171-3.038s-0.151-1.983-0.246-2.888s-0.202-1.721-0.322-2.448
				c-0.12-0.729-0.262-1.302-0.426-1.721c1.275,0.302,2.446,0.503,3.514,0.604c1.067,0.1,2.03,0.15,2.89,0.15
				c0.568,0,1.08-0.017,1.534-0.051c0.455-0.033,0.84-0.066,1.156-0.1c0.366-0.051,0.688-0.101,0.966-0.151
				c-0.151,0.938-0.284,1.98-0.397,3.127c-0.114,1.146-0.215,2.368-0.304,3.666c-0.088,1.297-0.154,2.657-0.198,4.08
				c-0.045,1.423-0.066,2.888-0.066,4.395c0,1.741,0.031,3.512,0.095,5.311c0.063,1.8,0.167,3.587,0.313,5.361
				c0.145,1.774,0.328,3.516,0.549,5.224C93.458,132.237,93.732,133.869,94.061,135.427z"/>
			<path fill="#2F2A20" d="M117.933,99.167c-0.784,3.013-1.479,6.03-2.084,9.052c-0.606,3.022-1.146,6.048-1.62,9.078
				s-0.891,6.063-1.251,9.103c-0.359,3.038-0.679,6.081-0.956,9.128c-0.657-0.084-1.339-0.139-2.047-0.164
				c-0.707-0.024-1.434-0.037-2.179-0.037c-1.174,0-2.343,0.046-3.505,0.138c-1.162,0.093-2.267,0.23-3.315,0.415
				c-0.315-3.063-0.691-6.115-1.127-9.153s-0.944-6.072-1.525-9.103s-1.247-6.048-1.998-9.053c-0.752-3.005-1.595-6.005-2.529-9.002
				c0.758,0.134,1.512,0.238,2.264,0.313c0.751,0.076,1.506,0.113,2.264,0.113c1.1,0,2.186-0.066,3.259-0.201
				c1.073-0.134,2.147-0.343,3.221-0.627c-0.063,0.987-0.104,1.963-0.123,2.925c-0.019,0.963-0.028,1.921-0.028,2.875
				c0,3.215,0.146,6.345,0.436,9.392c0.291,3.047,0.727,6.061,1.308,9.04c0.479-2.595,0.833-5.169,1.061-7.722
				s0.341-5.11,0.341-7.671c0-2.946-0.151-5.893-0.454-8.839c0.871,0.15,1.743,0.255,2.614,0.313
				c0.872,0.059,1.756,0.088,2.652,0.088c0.872,0,1.749-0.029,2.634-0.088C116.126,99.422,117.022,99.317,117.933,99.167z"/>
			<path fill="#2F2A20" d="M140.742,135.879c-0.783-0.135-1.538-0.227-2.264-0.276c-0.727-0.051-1.463-0.075-2.207-0.075
				c-2.009,0-4.067,0.259-6.177,0.778c0.076-0.402,0.161-0.758,0.256-1.067s0.18-0.653,0.256-1.029
				c0.075-0.377,0.139-0.816,0.189-1.318c0.05-0.503,0.075-1.146,0.075-1.934c0-0.804-0.044-1.569-0.132-2.298
				c-0.089-0.729-0.222-1.372-0.398-1.934c-0.177-0.561-0.395-1.009-0.653-1.344c-0.259-0.334-0.559-0.502-0.9-0.502
				c-0.379,0-0.697,0.15-0.956,0.452c-0.259,0.301-0.468,0.712-0.625,1.23c-0.158,0.519-0.272,1.113-0.342,1.783
				c-0.069,0.669-0.104,1.381-0.104,2.134c0,0.754,0.034,1.402,0.104,1.946s0.152,1.017,0.247,1.419
				c0.095,0.401,0.186,0.758,0.274,1.067c0.088,0.31,0.151,0.615,0.189,0.916c-0.872-0.134-1.728-0.234-2.567-0.301
				c-0.84-0.067-1.677-0.101-2.51-0.101c-0.834,0-1.671,0.033-2.511,0.101c-0.84,0.066-1.708,0.167-2.604,0.301
				c0.782-3.013,1.468-6.001,2.056-8.965c0.587-2.963,1.089-5.942,1.506-8.939c0.417-2.996,0.754-6.026,1.014-9.09
				c0.259-3.063,0.451-6.202,0.577-9.416c0.935,0.167,1.961,0.288,3.079,0.364c1.118,0.075,2.264,0.112,3.438,0.112
				c0.998,0,1.967-0.033,2.908-0.101c0.94-0.066,1.81-0.209,2.605-0.427c0.088,3.198,0.315,6.345,0.682,9.442
				c0.366,3.097,0.824,6.164,1.373,9.202c0.55,3.039,1.178,6.044,1.886,9.016C139.214,129.999,139.959,132.949,140.742,135.879z
				 M130.133,116.393c-0.025-0.317-0.102-0.787-0.228-1.406c-0.113-0.535-0.284-1.243-0.512-2.122s-0.562-2.013-1.004-3.402
				c-0.102,0.871-0.215,1.645-0.341,2.323c-0.127,0.678-0.246,1.289-0.36,1.833c-0.113,0.544-0.211,1.042-0.293,1.494
				c-0.083,0.451-0.124,0.879-0.124,1.28c0,0.837,0.148,1.485,0.445,1.946c0.297,0.46,0.629,0.69,0.995,0.69
				c0.392,0,0.72-0.251,0.985-0.754C129.962,117.773,130.107,117.146,130.133,116.393z"/>
			<path fill="#2F2A20" d="M157.907,135.929c-0.442-0.134-0.963-0.251-1.563-0.352c-0.6-0.101-1.225-0.176-1.875-0.226
				c-0.65-0.051-1.295-0.088-1.933-0.113s-1.213-0.042-1.724-0.051c-0.512-0.008-0.932-0.012-1.261-0.012c-0.328,0-0.505,0-0.53,0
				c-0.783,0.017-1.629,0.066-2.538,0.15c-0.783,0.084-1.677,0.205-2.681,0.364c-1.005,0.158-2.056,0.38-3.155,0.665
				c0.253-1.289,0.474-2.732,0.663-4.331s0.348-3.294,0.474-5.085c0.127-1.792,0.222-3.642,0.284-5.55
				c0.063-1.908,0.095-3.817,0.095-5.726c0-1.573-0.021-3.126-0.065-4.658c-0.045-1.531-0.114-3-0.209-4.406
				s-0.208-2.737-0.341-3.993c-0.133-1.255-0.294-2.401-0.483-3.439c1.313,0.317,2.504,0.527,3.571,0.627
				c1.067,0.101,2.012,0.151,2.832,0.151c0.519,0,0.979-0.013,1.384-0.038c0.403-0.025,0.745-0.054,1.022-0.088
				c0.328-0.05,0.612-0.101,0.853-0.15c-0.277,1.205-0.537,2.511-0.776,3.917c-0.24,1.406-0.445,2.851-0.616,4.332
				c-0.17,1.481-0.303,2.967-0.397,4.457s-0.143,2.913-0.143,4.269c0,1.725,0.082,3.202,0.247,4.433
				c0.164,1.229,0.407,2.234,0.729,3.013c0.321,0.778,0.713,1.353,1.174,1.72c0.461,0.369,0.988,0.553,1.582,0.553
				c0.796,0,1.582-0.381,2.359-1.143c0.776-0.762,1.449-1.87,2.018-3.327L157.907,135.929z"/>
			<path fill="#2F2A20" d="M166.641,104.816c0,0.687-0.101,1.448-0.303,2.285s-0.455,1.666-0.758,2.486s-0.642,1.582-1.014,2.285
				s-0.729,1.264-1.07,1.682l-3.846-0.603c0.404-0.418,0.776-0.887,1.117-1.406c0.342-0.519,0.657-1.063,0.947-1.632
				c-0.467-0.051-0.894-0.218-1.278-0.502c-0.386-0.285-0.717-0.653-0.995-1.105c-0.277-0.452-0.492-0.975-0.644-1.569
				c-0.151-0.594-0.228-1.234-0.228-1.921c0-0.569,0.069-1.159,0.208-1.771c0.14-0.61,0.363-1.176,0.673-1.694
				c0.31-0.52,0.723-0.946,1.241-1.281c0.518-0.334,1.155-0.502,1.913-0.502c0.683,0,1.279,0.126,1.791,0.377
				c0.511,0.251,0.931,0.606,1.26,1.066c0.328,0.461,0.574,1.014,0.738,1.658S166.641,104.03,166.641,104.816z"/>
			<path fill="#2F2A20" d="M187.52,136.079c0-2.326,0.17-4.331,0.512-6.014c0.341-1.683,0.792-3.143,1.354-4.382
				c0.562-1.238,1.203-2.293,1.923-3.164c0.72-0.87,1.455-1.657,2.207-2.36c0.751-0.703,1.487-1.364,2.207-1.983
				s1.361-1.289,1.923-2.009c0.563-0.72,1.014-1.532,1.354-2.437c0.341-0.903,0.512-2,0.512-3.289c0-0.302-0.035-0.628-0.104-0.979
				s-0.187-0.682-0.351-0.992c-0.164-0.31-0.385-0.564-0.663-0.766c-0.277-0.201-0.618-0.301-1.022-0.301
				c-0.341,0-0.642,0.084-0.9,0.251s-0.474,0.376-0.644,0.628c-0.171,0.251-0.297,0.531-0.379,0.841
				c-0.083,0.31-0.123,0.606-0.123,0.892c0,0.268,0.04,0.523,0.123,0.766c0.082,0.243,0.192,0.456,0.331,0.641
				s0.294,0.33,0.465,0.439c0.17,0.108,0.344,0.163,0.521,0.163c0.189,0,0.417-0.051,0.682-0.15
				c-0.215,0.535-0.502,1.017-0.861,1.443c-0.36,0.427-0.765,0.783-1.213,1.067c-0.448,0.285-0.928,0.502-1.439,0.652
				c-0.512,0.151-1.033,0.227-1.563,0.227c-0.682,0-1.323-0.126-1.923-0.377s-1.124-0.632-1.572-1.143s-0.799-1.146-1.052-1.908
				s-0.379-1.661-0.379-2.699c0-1.39,0.199-2.737,0.597-4.043c0.398-1.306,1.001-2.469,1.81-3.49s1.818-1.837,3.031-2.448
				s2.634-0.917,4.263-0.917c1.856,0,3.47,0.352,4.841,1.055c1.37,0.703,2.507,1.674,3.41,2.913
				c0.902,1.239,1.578,2.703,2.027,4.395c0.448,1.69,0.672,3.516,0.672,5.474c0,1.39-0.132,2.596-0.397,3.616
				c-0.266,1.021-0.625,1.908-1.08,2.662c-0.454,0.753-0.982,1.406-1.582,1.958c-0.6,0.553-1.237,1.06-1.913,1.52
				c-0.676,0.461-1.367,0.9-2.075,1.318c-0.707,0.419-1.392,0.875-2.055,1.368c-0.663,0.494-1.286,1.051-1.866,1.67
				c-0.581,0.62-1.08,1.365-1.497,2.235c2.551-0.234,4.813-0.858,6.782-1.871c1.971-1.013,3.631-2.322,4.983-3.93
				c-0.089,0.888-0.152,1.762-0.189,2.624c-0.038,0.862-0.058,1.72-0.058,2.574c0,1.39,0.054,2.774,0.161,4.155
				s0.275,2.75,0.502,4.105c-1.579-0.301-3.214-0.527-4.906-0.678c-1.693-0.15-3.404-0.226-5.135-0.226
				c-1.769,0-3.508,0.075-5.219,0.226C190.838,135.552,189.161,135.778,187.52,136.079z"/>
			<path fill="#2F2A20" d="M210.064,136.079c0-2.326,0.17-4.331,0.512-6.014c0.341-1.683,0.792-3.143,1.354-4.382
				c0.562-1.238,1.203-2.293,1.923-3.164c0.72-0.87,1.455-1.657,2.207-2.36c0.751-0.703,1.487-1.364,2.207-1.983
				s1.361-1.289,1.923-2.009c0.563-0.72,1.014-1.532,1.354-2.437c0.341-0.903,0.512-2,0.512-3.289c0-0.302-0.035-0.628-0.104-0.979
				s-0.187-0.682-0.351-0.992c-0.164-0.31-0.385-0.564-0.663-0.766c-0.277-0.201-0.618-0.301-1.022-0.301
				c-0.341,0-0.642,0.084-0.9,0.251s-0.474,0.376-0.644,0.628c-0.171,0.251-0.297,0.531-0.379,0.841
				c-0.083,0.31-0.123,0.606-0.123,0.892c0,0.268,0.04,0.523,0.123,0.766c0.082,0.243,0.192,0.456,0.331,0.641
				s0.294,0.33,0.465,0.439c0.17,0.108,0.344,0.163,0.521,0.163c0.189,0,0.417-0.051,0.682-0.15
				c-0.215,0.535-0.502,1.017-0.861,1.443c-0.36,0.427-0.765,0.783-1.213,1.067c-0.448,0.285-0.928,0.502-1.439,0.652
				c-0.512,0.151-1.033,0.227-1.563,0.227c-0.682,0-1.323-0.126-1.923-0.377s-1.124-0.632-1.572-1.143s-0.799-1.146-1.052-1.908
				s-0.379-1.661-0.379-2.699c0-1.39,0.199-2.737,0.597-4.043c0.398-1.306,1.001-2.469,1.81-3.49s1.818-1.837,3.031-2.448
				s2.634-0.917,4.263-0.917c1.856,0,3.47,0.352,4.841,1.055c1.37,0.703,2.507,1.674,3.41,2.913
				c0.902,1.239,1.578,2.703,2.027,4.395c0.448,1.69,0.672,3.516,0.672,5.474c0,1.39-0.132,2.596-0.397,3.616
				c-0.266,1.021-0.625,1.908-1.08,2.662c-0.454,0.753-0.982,1.406-1.582,1.958c-0.6,0.553-1.237,1.06-1.913,1.52
				c-0.676,0.461-1.367,0.9-2.075,1.318c-0.707,0.419-1.392,0.875-2.055,1.368c-0.663,0.494-1.286,1.051-1.866,1.67
				c-0.581,0.62-1.08,1.365-1.497,2.235c2.551-0.234,4.813-0.858,6.782-1.871c1.971-1.013,3.631-2.322,4.983-3.93
				c-0.089,0.888-0.152,1.762-0.189,2.624c-0.038,0.862-0.058,1.72-0.058,2.574c0,1.39,0.054,2.774,0.161,4.155
				s0.275,2.75,0.502,4.105c-1.579-0.301-3.214-0.527-4.906-0.678c-1.693-0.15-3.404-0.226-5.135-0.226
				c-1.769,0-3.508,0.075-5.219,0.226C213.383,135.552,211.706,135.778,210.064,136.079z"/>
		</g>
		<g>
			<defs>
				<rect id="SVGID_24_" x="14" width="205" height="56"/>
			</defs>
			<clipPath id="SVGID_2_">
				<use xlink:href="#SVGID_24_"  overflow="visible"/>
			</clipPath>
			<g clip-path="url(#SVGID_2_)">
				<path fill="#2F2A20" d="M155.935,41.93l5.028,4.233c11.537,2.631,18.665,6.256,18.665,10.255
					c0,8.022-28.675,14.528-64.049,14.528c-35.375,0-64.052-6.506-64.052-14.528c0-3.999,7.126-7.624,18.665-10.255l5.029-4.233
					c-25.917,2.984-43.475,8.732-43.475,15.347c0,9.675,37.534,17.521,83.832,17.521c46.299,0,83.828-7.843,83.828-17.517
					C199.407,50.662,181.852,44.91,155.935,41.93z"/>
				<path fill="#2F2A20" d="M169.49,53H61.666l8.526-7.012c5.263-1.193,11.45-2.009,18.293-2.736L84.286,48h62.582l-4.199-4.661
					l-2.468-2.735L115.579,13.78L90.954,40.572l-2.469,2.681c-6.843,0.725-13.03,1.718-18.293,2.914l5.029-4.235l40.357-33.999
					l40.355,33.997l5.028,4.059L169.49,53z"/>
			</g>
		</g>
		<rect x="1" y="89" fill="#2F2A20" width="27" height="5"/>
		<rect x="200" y="89" fill="#2F2A20" width="26" height="5"/>
	</g>
</g>
<g id="img_1_">
</g>
<g id="nav">
</g>
<g id="news">
</g>
<g id="text">
</g>
<g id="mv">
</g>
<g id="footer">
</g>
<g id="top_x5F_btn">
</g>
<g id="header">
</g>
</svg>
