<?xml version="1.0" encoding="utf-8"?>
<!-- Generator: Adobe Illustrator 16.0.3, SVG Export Plug-In . SVG Version: 6.00 Build 0)  -->
<!DOCTYPE svg PUBLIC "-//W3C//DTD SVG 1.1//EN" "http://www.w3.org/Graphics/SVG/1.1/DTD/svg11.dtd">
<svg version="1.1" xmlns="http://www.w3.org/2000/svg" xmlns:xlink="http://www.w3.org/1999/xlink" x="0px" y="0px" width="460px"
	 height="76px" viewBox="0 0 460 76" enable-background="new 0 0 460 76" xml:space="preserve">
<g id="bg">
</g>
<g id="ガイド" display="none">
</g>
<g id="sns">
</g>
<g id="history">
</g>
<g id="img_1_">
</g>
<g id="nav">
</g>
<g id="news">
</g>
<g id="text">
</g>
<g id="mv">
</g>
<g id="footer">
	<g id="logo_3_">
		<path fill="#FFFDFA" d="M9.143,34.101c-0.184-0.025-0.396-0.051-0.639-0.077c-0.203-0.025-0.455-0.044-0.754-0.058
			c-0.3-0.013-0.639-0.019-1.016-0.019c-0.725,0-1.593,0.045-2.604,0.134c-1.01,0.09-2.119,0.263-3.328,0.519
			c0.213-0.577,0.396-1.307,0.551-2.191s0.283-1.829,0.385-2.835c0.102-1.006,0.182-2.028,0.239-3.066s0.102-2.005,0.13-2.903
			c0.029-0.896,0.047-1.672,0.051-2.326c0.006-0.654,0.008-1.102,0.008-1.346c0-0.051-0.002-0.25-0.008-0.596
			c-0.004-0.346-0.012-0.794-0.021-1.345s-0.023-1.183-0.043-1.894c-0.02-0.711-0.047-1.452-0.08-2.22
			c-0.033-0.769-0.078-1.544-0.131-2.326c-0.053-0.781-0.115-1.519-0.188-2.21C1.622,8.649,1.54,8.025,1.448,7.467
			C1.355,6.91,1.248,6.471,1.121,6.15C2.06,6.369,2.944,6.519,3.775,6.603c0.832,0.083,1.591,0.125,2.277,0.125
			c0.474,0,0.904-0.013,1.291-0.039S8.059,6.631,8.33,6.593c0.318-0.039,0.6-0.083,0.842-0.135C8.736,8.061,8.43,9.588,8.25,11.043
			c-0.179,1.455-0.268,2.733-0.268,3.835c0,1.41,0.14,2.445,0.42,3.104c0.28,0.66,0.668,0.99,1.16,0.99
			c0.609,0,1.039-0.413,1.291-1.24s0.377-1.97,0.377-3.431c0-0.794-0.029-1.596-0.087-2.403c-0.058-0.808-0.143-1.583-0.254-2.326
			c-0.111-0.743-0.241-1.442-0.392-2.095c-0.15-0.654-0.312-1.23-0.486-1.73c0.967,0.244,1.871,0.403,2.713,0.48
			c0.841,0.077,1.59,0.115,2.248,0.115c0.444,0,0.841-0.013,1.189-0.039c0.348-0.025,0.647-0.051,0.898-0.077
			c0.291-0.039,0.542-0.077,0.754-0.115c-0.105,0.718-0.205,1.531-0.297,2.441c-0.092,0.91-0.172,1.887-0.239,2.931
			c-0.067,1.045-0.118,2.15-0.151,3.316c-0.035,1.167-0.051,2.365-0.051,3.595c0,1.397,0.023,2.816,0.072,4.258
			c0.048,1.441,0.127,2.867,0.238,4.277c0.111,1.41,0.252,2.785,0.422,4.124c0.168,1.339,0.369,2.604,0.602,3.796
			c-0.184-0.026-0.396-0.051-0.639-0.077c-0.203-0.026-0.455-0.045-0.754-0.058c-0.3-0.013-0.639-0.02-1.016-0.02
			c-0.725,0-1.593,0.045-2.604,0.135c-1.01,0.089-2.119,0.262-3.328,0.519c0.135-0.359,0.266-0.82,0.392-1.384
			c0.126-0.563,0.237-1.172,0.333-1.826c0.098-0.653,0.175-1.329,0.232-2.028c0.059-0.698,0.088-1.362,0.088-1.99
			c0-1.205-0.129-2.118-0.385-2.739s-0.617-0.932-1.08-0.932c-0.406,0-0.735,0.25-0.986,0.75c-0.252,0.5-0.377,1.288-0.377,2.364
			c0,0.5,0.023,1.025,0.072,1.577c0.048,0.551,0.111,1.108,0.188,1.672c0.078,0.564,0.17,1.125,0.276,1.682
			C8.93,33.053,9.035,33.588,9.143,34.101z"/>
		<path fill="#FFFDFA" d="M36.51,34.447c-0.6-0.103-1.178-0.173-1.732-0.211c-0.557-0.038-1.119-0.058-1.69-0.058
			c-1.537,0-3.113,0.199-4.728,0.596c0.058-0.308,0.123-0.58,0.195-0.817c0.072-0.237,0.139-0.5,0.195-0.789
			c0.059-0.288,0.107-0.625,0.146-1.009c0.038-0.385,0.058-0.878,0.058-1.48c0-0.615-0.033-1.201-0.102-1.759
			c-0.067-0.558-0.168-1.051-0.305-1.48c-0.135-0.429-0.302-0.771-0.5-1.028c-0.197-0.256-0.428-0.384-0.688-0.384
			c-0.29,0-0.534,0.115-0.732,0.346c-0.198,0.23-0.358,0.544-0.479,0.942c-0.121,0.397-0.208,0.852-0.261,1.365
			c-0.054,0.513-0.08,1.057-0.08,1.634s0.026,1.074,0.08,1.49c0.053,0.417,0.115,0.779,0.188,1.086
			c0.073,0.307,0.143,0.58,0.211,0.817c0.067,0.237,0.115,0.471,0.145,0.702c-0.666-0.103-1.322-0.18-1.965-0.231
			c-0.643-0.051-1.283-0.077-1.922-0.077c-0.638,0-1.278,0.026-1.922,0.077c-0.643,0.051-1.307,0.128-1.994,0.231
			c0.6-2.307,1.125-4.594,1.574-6.863s0.834-4.549,1.152-6.843c0.319-2.294,0.578-4.614,0.776-6.959s0.346-4.748,0.442-7.208
			c0.715,0.128,1.501,0.221,2.357,0.279C25.785,6.872,26.662,6.9,27.562,6.9c0.764,0,1.506-0.025,2.226-0.077
			c0.721-0.051,1.386-0.16,1.994-0.327c0.068,2.448,0.242,4.857,0.523,7.228c0.279,2.371,0.631,4.719,1.051,7.045
			c0.42,2.326,0.901,4.626,1.443,6.901C35.34,29.946,35.91,32.205,36.51,34.447z M28.389,19.53c-0.02-0.243-0.078-0.602-0.175-1.076
			c-0.087-0.41-0.218-0.952-0.392-1.625s-0.43-1.541-0.769-2.605c-0.077,0.667-0.165,1.259-0.261,1.778
			c-0.098,0.519-0.189,0.987-0.275,1.403c-0.088,0.417-0.162,0.798-0.225,1.144c-0.063,0.346-0.095,0.673-0.095,0.98
			c0,0.641,0.113,1.138,0.341,1.49c0.227,0.353,0.48,0.529,0.762,0.529c0.299,0,0.551-0.192,0.754-0.577
			C28.258,20.587,28.369,20.106,28.389,19.53z"/>
		<path fill="#FFFDFA" d="M53.609,34.524c-0.629-0.064-1.216-0.106-1.762-0.125c-0.547-0.019-1.052-0.029-1.516-0.029
			c-0.909,0-1.668,0.035-2.277,0.105s-1.107,0.145-1.494,0.221c-0.455,0.09-0.816,0.192-1.088,0.308
			c0.039-0.397,0.078-0.769,0.116-1.115c0.038-0.346,0.07-0.683,0.095-1.009c0.023-0.327,0.043-0.654,0.058-0.98
			s0.022-0.669,0.022-1.028c0-1.41-0.042-2.583-0.124-3.518c-0.082-0.935-0.2-1.717-0.354-2.345
			c-0.155-0.627-0.344-1.134-0.566-1.519c-0.223-0.384-0.469-0.73-0.74-1.038c-0.02,0.577-0.033,1.134-0.043,1.672
			c-0.01,0.539-0.015,1.109-0.015,1.711c0,0.59,0.01,1.205,0.029,1.846c0.019,0.641,0.053,1.32,0.102,2.038
			c0.048,0.718,0.12,1.483,0.218,2.297c0.096,0.814,0.217,1.695,0.362,2.643c-0.01-0.051-0.136-0.109-0.377-0.173
			c-0.242-0.064-0.565-0.122-0.972-0.173c-0.406-0.051-0.873-0.093-1.4-0.125c-0.526-0.032-1.075-0.048-1.646-0.048
			c-0.745,0-1.489,0.035-2.233,0.105s-1.416,0.208-2.016,0.413c0.231-0.397,0.441-0.9,0.631-1.509
			c0.188-0.608,0.355-1.278,0.5-2.009s0.268-1.5,0.369-2.307c0.102-0.808,0.191-1.602,0.27-2.384
			c0.174-1.833,0.289-3.787,0.348-5.863c0-0.512,0.002-1.16,0.007-1.941c0.005-0.781-0.005-1.634-0.028-2.557
			c-0.025-0.923-0.063-1.871-0.117-2.845c-0.053-0.974-0.14-1.91-0.26-2.807c-0.121-0.897-0.279-1.717-0.473-2.461
			c-0.193-0.743-0.439-1.339-0.738-1.788c0.695,0.141,1.372,0.234,2.029,0.279c0.658,0.045,1.219,0.067,1.684,0.067
			c0.405,0,0.779-0.013,1.123-0.039c0.344-0.025,0.684-0.051,1.023-0.077c0.338-0.026,0.69-0.051,1.059-0.077
			c0.367-0.025,0.773-0.039,1.218-0.039c0.608,0,1.224,0.042,1.842,0.125c0.618,0.083,1.211,0.231,1.776,0.442
			c0.566,0.211,1.093,0.5,1.581,0.865s0.914,0.827,1.276,1.384c0.363,0.558,0.648,1.227,0.855,2.009
			c0.208,0.782,0.313,1.691,0.313,2.729c0,0.577-0.057,1.154-0.167,1.73c-0.111,0.577-0.292,1.144-0.544,1.701
			c-0.252,0.557-0.578,1.089-0.979,1.595c-0.402,0.506-0.893,0.971-1.473,1.394c0.687,0.372,1.206,0.833,1.559,1.384
			c0.354,0.551,0.607,1.179,0.762,1.884c0.154,0.705,0.24,1.471,0.254,2.297c0.015,0.827,0.031,1.688,0.051,2.585
			c0.039,0.961,0.131,1.852,0.275,2.672c0.059,0.346,0.133,0.699,0.225,1.058s0.203,0.692,0.334,1s0.28,0.583,0.449,0.827
			C53.191,34.229,53.387,34.409,53.609,34.524z M43.979,17.954c0.213-0.205,0.453-0.464,0.719-0.778s0.512-0.66,0.739-1.038
			s0.419-0.779,0.573-1.202s0.232-0.846,0.232-1.269c0-0.41-0.09-0.743-0.27-1c-0.178-0.256-0.379-0.385-0.602-0.385
			c-0.309,0-0.556,0.189-0.739,0.567s-0.326,0.823-0.428,1.336s-0.169,1.028-0.203,1.547s-0.051,0.919-0.051,1.201
			c0,0.154,0,0.317,0,0.49C43.95,17.598,43.959,17.774,43.979,17.954z"/>
		<path fill="#FFFDFA" d="M62.398,34.101c-0.164-0.025-0.367-0.051-0.609-0.077c-0.203-0.025-0.452-0.044-0.747-0.058
			c-0.295-0.013-0.626-0.019-0.993-0.019c-0.716,0-1.566,0.045-2.553,0.134c-0.986,0.09-2.084,0.263-3.293,0.519
			c0.514-2.857,0.868-5.658,1.066-8.4c0.198-2.742,0.297-5.382,0.297-7.92c0-2.307-0.066-4.476-0.202-6.507S55.05,7.868,54.828,6.15
			c0.967,0.231,1.834,0.385,2.603,0.461c0.769,0.077,1.434,0.116,1.994,0.116c0.387,0,0.728-0.013,1.022-0.039
			s0.539-0.051,0.732-0.077c0.232-0.038,0.43-0.077,0.595-0.115c0.329,2.512,0.739,4.995,1.233,7.449
			c0.492,2.454,1.102,4.918,1.827,7.391c0.608-2.499,1.093-5.001,1.45-7.507c0.357-2.505,0.6-5.065,0.725-7.68l0.117,0.346
			L67.01,6.15c0.967,0.231,1.848,0.385,2.641,0.461c0.792,0.077,1.493,0.116,2.103,0.116c0.405,0,0.764-0.013,1.073-0.039
			c0.309-0.026,0.575-0.051,0.797-0.077c0.252-0.038,0.47-0.077,0.653-0.115c-0.203,1.282-0.358,2.797-0.464,4.546
			c-0.107,1.749-0.16,3.624-0.16,5.623c0,1.423,0.029,2.887,0.088,4.393c0.058,1.506,0.146,3.005,0.268,4.498
			c0.121,1.493,0.278,2.964,0.472,4.412c0.193,1.449,0.425,2.826,0.696,4.133c-0.193-0.025-0.416-0.051-0.668-0.077
			c-0.222-0.025-0.482-0.044-0.783-0.058c-0.299-0.013-0.646-0.019-1.043-0.019c-0.755,0-1.643,0.045-2.662,0.134
			c-1.02,0.09-2.135,0.263-3.343,0.519c0.241-0.641,0.442-1.461,0.602-2.46s0.29-2.063,0.392-3.191
			c0.102-1.127,0.18-2.252,0.232-3.374s0.09-2.125,0.108-3.009c-0.28,0.795-0.551,1.603-0.812,2.422
			c-0.262,0.82-0.529,1.695-0.805,2.624c-0.276,0.929-0.564,1.932-0.863,3.008c-0.301,1.077-0.629,2.275-0.986,3.595
			c-0.367-1.32-0.701-2.518-1.001-3.595s-0.583-2.076-0.849-2.999c-0.266-0.922-0.527-1.797-0.783-2.624
			c-0.256-0.827-0.52-1.65-0.79-2.47c0.087,2.025,0.231,4.021,0.435,5.988C61.76,30.484,62.041,32.345,62.398,34.101z"/>
		<path fill="#FFFDFA" d="M92.449,21.337c0,1.948-0.165,3.777-0.494,5.488c-0.328,1.71-0.826,3.204-1.493,4.479
			c-0.667,1.275-1.511,2.281-2.53,3.018c-1.021,0.736-2.227,1.105-3.619,1.105c-1.383,0-2.584-0.369-3.604-1.105
			c-1.021-0.737-1.867-1.743-2.539-3.018c-0.672-1.275-1.172-2.769-1.5-4.479c-0.33-1.711-0.494-3.54-0.494-5.488
			c0-1.435,0.102-2.819,0.305-4.152c0.203-1.333,0.484-2.576,0.842-3.729c0.357-1.154,0.787-2.204,1.291-3.153
			c0.502-0.948,1.056-1.759,1.66-2.432c0.604-0.673,1.247-1.195,1.929-1.567c0.682-0.372,1.386-0.557,2.11-0.557
			c1.219,0,2.328,0.394,3.328,1.182c1.001,0.788,1.857,1.881,2.567,3.277c0.711,1.397,1.262,3.044,1.653,4.94
			C92.253,17.044,92.449,19.107,92.449,21.337z M86.518,19.684c0-0.961-0.059-1.848-0.175-2.662s-0.272-1.519-0.472-2.115
			c-0.197-0.596-0.432-1.063-0.703-1.403c-0.271-0.339-0.556-0.509-0.855-0.509c-0.29,0-0.565,0.202-0.826,0.605
			c-0.262,0.404-0.491,0.926-0.689,1.566c-0.198,0.641-0.355,1.359-0.471,2.153c-0.117,0.794-0.175,1.583-0.175,2.364
			c0,0.756,0.051,1.458,0.152,2.105c0.102,0.647,0.244,1.208,0.428,1.682s0.409,0.849,0.675,1.125
			c0.266,0.276,0.568,0.413,0.906,0.413c0.328,0,0.631-0.137,0.906-0.413c0.275-0.275,0.508-0.65,0.696-1.125
			s0.336-1.035,0.442-1.682C86.464,21.142,86.518,20.44,86.518,19.684z"/>
		<path fill="#FFFDFA" d="M102.035,34.101c-0.184-0.025-0.4-0.051-0.652-0.077c-0.213-0.025-0.469-0.044-0.769-0.058
			c-0.3-0.013-0.644-0.019-1.029-0.019c-0.755,0-1.637,0.045-2.647,0.134c-1.01,0.09-2.119,0.263-3.328,0.519
			c0.213-0.577,0.396-1.307,0.551-2.191s0.283-1.829,0.385-2.835c0.102-1.006,0.182-2.028,0.239-3.066s0.102-2.005,0.13-2.903
			c0.029-0.896,0.047-1.672,0.051-2.326c0.006-0.654,0.008-1.102,0.008-1.346c0-0.051-0.002-0.25-0.008-0.596
			c-0.004-0.346-0.012-0.794-0.021-1.345S94.92,16.81,94.9,16.099c-0.02-0.711-0.047-1.452-0.08-2.22
			c-0.033-0.769-0.078-1.544-0.131-2.326c-0.053-0.781-0.115-1.519-0.188-2.21c-0.073-0.692-0.155-1.317-0.247-1.875
			c-0.093-0.557-0.2-0.996-0.327-1.317c0.977,0.231,1.867,0.385,2.67,0.461c0.802,0.077,1.518,0.116,2.146,0.116
			c0.425,0,0.805-0.013,1.138-0.039c0.334-0.026,0.612-0.051,0.834-0.077c0.261-0.038,0.493-0.077,0.696-0.115
			c0.416,2.717,0.89,5.235,1.422,7.555c0.531,2.32,1.131,4.473,1.798,6.459v-0.788c-0.028-2.089-0.082-4.037-0.159-5.844
			c-0.039-0.769-0.082-1.544-0.131-2.326c-0.049-0.781-0.109-1.519-0.182-2.21c-0.072-0.692-0.154-1.317-0.246-1.875
			c-0.092-0.557-0.201-0.996-0.326-1.317c0.967,0.231,1.858,0.385,2.676,0.461c0.816,0.077,1.539,0.116,2.168,0.116
			c0.426,0,0.805-0.013,1.139-0.039s0.611-0.051,0.834-0.077c0.262-0.038,0.493-0.077,0.696-0.115
			c-0.116,0.718-0.218,1.519-0.305,2.403s-0.165,1.826-0.231,2.826c-0.068,1-0.119,2.051-0.152,3.153
			c-0.035,1.102-0.051,2.236-0.051,3.402c0,1.32,0.023,2.663,0.072,4.027c0.048,1.365,0.127,2.723,0.238,4.075
			c0.111,1.353,0.252,2.679,0.422,3.979c0.168,1.301,0.369,2.547,0.602,3.739c-0.174-0.025-0.383-0.051-0.624-0.077
			c-0.203-0.025-0.45-0.044-0.739-0.058c-0.291-0.013-0.619-0.019-0.986-0.019c-0.696,0-1.499,0.045-2.408,0.134
			c-0.908,0.09-1.885,0.263-2.93,0.519c0-1.32-0.079-2.611-0.238-3.873c-0.16-1.262-0.385-2.505-0.675-3.729
			c-0.29-1.224-0.638-2.425-1.044-3.604c-0.406-1.179-0.855-2.345-1.35-3.499c0.01,1.205,0.046,2.422,0.109,3.652
			c0.063,1.23,0.149,2.448,0.261,3.652c0.111,1.205,0.247,2.387,0.406,3.547C101.637,31.907,101.823,33.024,102.035,34.101z"/>
		<path fill="#FFFDFA" d="M128.476,6.939c-0.126,0.41-0.237,0.878-0.333,1.403c-0.098,0.525-0.182,1.076-0.254,1.653
			c-0.073,0.577-0.134,1.17-0.182,1.778c-0.049,0.609-0.088,1.195-0.116,1.759c-0.077,1.346-0.126,2.729-0.146,4.152
			c0,0.628,0.006,1.272,0.016,1.932c0.009,0.66,0.014,1.33,0.014,2.009c0,1.077-0.029,2.16-0.087,3.249s-0.184,2.134-0.377,3.133
			c-0.194,1-0.479,1.935-0.856,2.807c-0.377,0.872-0.887,1.627-1.529,2.268c-0.643,0.641-1.436,1.147-2.379,1.519
			c-0.942,0.372-2.081,0.558-3.416,0.558c-1.015,0-1.893-0.164-2.632-0.49s-1.349-0.769-1.827-1.326
			c-0.479-0.558-0.832-1.205-1.059-1.942c-0.228-0.736-0.342-1.515-0.342-2.335c0-0.615,0.098-1.192,0.291-1.73
			s0.451-1.002,0.775-1.394s0.696-0.698,1.117-0.923c0.42-0.224,0.854-0.336,1.298-0.336c0.57,0,1.122,0.199,1.653,0.596
			c0.531,0.397,1.001,1.038,1.406,1.922c-0.105-0.025-0.209-0.044-0.311-0.058c-0.102-0.013-0.196-0.019-0.283-0.019
			c-0.696,0-1.045,0.397-1.045,1.192c0,0.372,0.129,0.673,0.385,0.903c0.256,0.231,0.602,0.346,1.037,0.346
			c0.531,0,0.959-0.186,1.283-0.558c0.324-0.372,0.573-0.839,0.747-1.403c0.175-0.564,0.29-1.182,0.349-1.855
			c0.058-0.673,0.086-1.317,0.086-1.932V22.99c-0.184,0.256-0.4,0.458-0.652,0.605c-0.251,0.147-0.508,0.263-0.769,0.346
			c-0.261,0.083-0.513,0.138-0.754,0.164c-0.241,0.026-0.444,0.039-0.609,0.039c-0.58,0-1.163-0.103-1.747-0.308
			c-0.586-0.205-1.117-0.589-1.596-1.153s-0.873-1.349-1.182-2.355c-0.311-1.006-0.484-2.31-0.522-3.912
			c0-0.064-0.003-0.311-0.007-0.74c-0.006-0.429-0.025-0.961-0.059-1.596s-0.087-1.329-0.16-2.085
			c-0.072-0.756-0.174-1.5-0.304-2.23c-0.131-0.73-0.296-1.406-0.493-2.028c-0.198-0.621-0.442-1.111-0.732-1.47
			c1.024,0.23,1.941,0.394,2.748,0.49c0.808,0.096,1.516,0.144,2.125,0.144c0.474,0,0.887-0.016,1.24-0.048
			c0.353-0.032,0.645-0.073,0.877-0.125c0.271-0.051,0.503-0.116,0.696-0.192c-0.048,0.525-0.099,1.08-0.152,1.663
			c-0.054,0.583-0.102,1.173-0.146,1.769c-0.043,0.596-0.076,1.195-0.102,1.797c-0.023,0.603-0.035,1.186-0.035,1.75
			c0,0.641,0.02,1.24,0.058,1.797c0.038,0.557,0.104,1.044,0.196,1.461s0.212,0.743,0.362,0.98c0.149,0.237,0.335,0.355,0.558,0.355
			c0.271,0,0.501-0.195,0.689-0.586c0.188-0.391,0.341-0.903,0.457-1.538c0.115-0.635,0.197-1.349,0.246-2.144
			c0.049-0.794,0.072-1.589,0.072-2.384c0-0.922-0.026-1.804-0.079-2.643c-0.054-0.839-0.118-1.515-0.196-2.028
			c0.174,0.09,0.401,0.16,0.682,0.211c0.242,0.064,0.559,0.115,0.95,0.154c0.392,0.038,0.878,0.058,1.458,0.058
			c0.464,0,0.993-0.02,1.588-0.058C127.062,7.112,127.73,7.042,128.476,6.939z"/>
		<path fill="#FFFDFA" d="M147.721,15.089c-0.473-0.679-0.971-1.208-1.493-1.586c-0.522-0.378-1.006-0.653-1.45-0.827
			c-0.445-0.173-0.817-0.275-1.117-0.308c-0.3-0.032-0.469-0.048-0.508-0.048c-0.483,0-0.875,0.08-1.174,0.24
			c-0.301,0.16-0.535,0.365-0.704,0.615s-0.285,0.532-0.349,0.846c-0.063,0.314-0.094,0.631-0.094,0.952
			c0,0.308,0.027,0.628,0.08,0.961c0.053,0.333,0.143,0.638,0.268,0.913c0.126,0.276,0.295,0.503,0.508,0.683
			c0.213,0.18,0.484,0.269,0.813,0.269c0.02,0,0.097-0.003,0.232-0.01c0.135-0.006,0.305-0.058,0.508-0.154
			c0.203-0.096,0.428-0.262,0.674-0.5s0.496-0.58,0.747-1.028v7.824c-0.203-0.487-0.426-0.872-0.667-1.153
			c-0.242-0.282-0.472-0.49-0.689-0.625c-0.217-0.135-0.41-0.218-0.58-0.25c-0.169-0.032-0.283-0.048-0.341-0.048
			c-0.319,0-0.583,0.07-0.79,0.211c-0.208,0.141-0.373,0.336-0.493,0.586c-0.121,0.25-0.206,0.551-0.254,0.903
			s-0.073,0.74-0.073,1.163c0.029,0.987,0.102,2.006,0.219,3.056c0.048,0.449,0.11,0.923,0.188,1.423
			c0.078,0.5,0.175,1.016,0.291,1.547c0.115,0.532,0.251,1.064,0.406,1.596c0.154,0.532,0.333,1.054,0.536,1.566
			c-0.213-0.013-0.444-0.032-0.696-0.058c-0.223-0.025-0.48-0.045-0.775-0.058s-0.627-0.019-0.994-0.019
			c-0.436,0-0.908,0.016-1.421,0.048c-0.513,0.032-1.035,0.086-1.566,0.164c-0.532,0.077-1.069,0.183-1.61,0.317
			c-0.541,0.135-1.059,0.304-1.552,0.509c0.213-0.577,0.396-1.307,0.552-2.191c0.154-0.884,0.282-1.826,0.384-2.826
			s0.182-2.019,0.239-3.056c0.059-1.038,0.102-2.002,0.131-2.894c0.029-0.89,0.045-1.666,0.051-2.326
			c0.004-0.66,0.007-1.112,0.007-1.355c0-0.051-0.003-0.25-0.007-0.596c-0.006-0.346-0.012-0.794-0.021-1.346
			c-0.01-0.551-0.025-1.182-0.044-1.894c-0.02-0.711-0.046-1.451-0.079-2.22c-0.035-0.769-0.078-1.544-0.131-2.326
			c-0.054-0.782-0.116-1.522-0.189-2.221c-0.072-0.698-0.154-1.326-0.246-1.884c-0.092-0.557-0.201-1.002-0.326-1.336
			c0.928,0.256,1.873,0.439,2.836,0.548c0.961,0.109,1.911,0.164,2.85,0.164c1.072,0,2.088-0.048,3.045-0.144
			c0.957-0.096,1.799-0.208,2.523-0.336c0.852-0.141,1.635-0.308,2.35-0.5V15.089z"/>
		<path fill="#FFFDFA" d="M162.369,34.485c-0.502-0.128-1.018-0.228-1.544-0.298c-0.527-0.07-1.083-0.125-1.668-0.164
			c-0.585-0.038-1.209-0.061-1.871-0.067c-0.663-0.006-1.38-0.01-2.153-0.01c-0.368,0-0.805,0.006-1.313,0.019
			c-0.508,0.013-1.055,0.045-1.639,0.096c-0.586,0.051-1.188,0.125-1.807,0.221s-1.223,0.221-1.813,0.375
			c0.213-0.577,0.396-1.304,0.551-2.182c0.154-0.877,0.283-1.81,0.385-2.797s0.182-1.993,0.239-3.018
			c0.058-1.025,0.102-1.98,0.13-2.864c0.029-0.884,0.047-1.65,0.051-2.297c0.006-0.647,0.008-1.092,0.008-1.336
			c0-0.051-0.002-0.25-0.008-0.596c-0.004-0.346-0.012-0.794-0.021-1.346c-0.01-0.551-0.023-1.182-0.043-1.894
			c-0.02-0.711-0.047-1.451-0.08-2.22c-0.034-0.769-0.078-1.544-0.131-2.326s-0.115-1.522-0.188-2.221
			c-0.073-0.698-0.155-1.326-0.247-1.884c-0.093-0.557-0.201-1.002-0.327-1.336c0.948,0.18,1.881,0.311,2.8,0.394
			c0.919,0.083,1.808,0.125,2.669,0.125c1.053,0,2.039-0.039,2.959-0.115c0.918-0.077,1.721-0.167,2.406-0.269
			c0.803-0.115,1.533-0.25,2.19-0.404v9.016c-0.561-0.692-1.097-1.224-1.61-1.596c-0.512-0.372-0.967-0.647-1.363-0.826
			c-0.463-0.205-0.898-0.32-1.305-0.346c-0.483,0-0.877,0.08-1.182,0.24s-0.542,0.365-0.711,0.615
			c-0.17,0.25-0.283,0.532-0.341,0.846s-0.087,0.631-0.087,0.952c0,0.333,0.036,0.667,0.108,1c0.073,0.333,0.187,0.634,0.341,0.903
			s0.355,0.49,0.602,0.664c0.247,0.173,0.539,0.259,0.878,0.259c0.28,0,0.536-0.086,0.769-0.259c0.232-0.173,0.43-0.369,0.595-0.586
			c0.193-0.244,0.372-0.525,0.536-0.846v7.824c-0.154-0.487-0.336-0.872-0.543-1.153c-0.209-0.282-0.412-0.49-0.609-0.625
			c-0.198-0.135-0.377-0.218-0.537-0.25c-0.159-0.032-0.268-0.048-0.326-0.048c-0.629,0-1.098,0.256-1.406,0.769
			c-0.311,0.513-0.465,1.172-0.465,1.98c0,0.589,0.051,1.089,0.152,1.499c0.102,0.411,0.237,0.744,0.406,1
			c0.17,0.256,0.367,0.442,0.595,0.557s0.466,0.173,0.718,0.173c0.387,0,0.803-0.116,1.248-0.346
			c0.443-0.231,0.872-0.538,1.283-0.923c0.41-0.384,0.787-0.823,1.131-1.317c0.344-0.493,0.617-0.996,0.82-1.509L162.369,34.485z"/>
		<path fill="#FFFDFA" d="M178.469,12.283c0,0.641-0.09,1.221-0.269,1.74s-0.429,0.964-0.747,1.336
			c-0.319,0.372-0.693,0.66-1.124,0.865s-0.897,0.308-1.399,0.308c-0.551,0-1.022-0.09-1.414-0.27
			c-0.392-0.179-0.721-0.406-0.986-0.682c-0.266-0.275-0.477-0.583-0.631-0.923c-0.154-0.339-0.273-0.669-0.355-0.99
			s-0.136-0.615-0.16-0.884c-0.023-0.269-0.035-0.474-0.035-0.615c0.115,0.256,0.251,0.42,0.406,0.49
			c0.154,0.07,0.285,0.105,0.391,0.105c0.271,0,0.462-0.096,0.573-0.288c0.11-0.192,0.167-0.397,0.167-0.615
			c0-0.141-0.021-0.289-0.065-0.442c-0.044-0.154-0.121-0.298-0.231-0.433c-0.111-0.135-0.262-0.247-0.45-0.336
			s-0.423-0.135-0.704-0.135c-0.193,0-0.391,0.048-0.594,0.144c-0.203,0.096-0.39,0.244-0.559,0.442
			c-0.17,0.199-0.307,0.445-0.414,0.74c-0.105,0.295-0.158,0.641-0.158,1.038c0,0.384,0.06,0.766,0.181,1.144
			c0.12,0.378,0.285,0.734,0.493,1.067c0.207,0.333,0.454,0.634,0.74,0.903c0.284,0.269,0.596,0.494,0.935,0.673
			c0.532,0.295,1.081,0.583,1.646,0.865s1.114,0.589,1.646,0.923c0.532,0.333,1.033,0.714,1.502,1.144
			c0.469,0.43,0.879,0.939,1.232,1.528s0.633,1.278,0.842,2.066c0.207,0.788,0.311,1.708,0.311,2.758c0,1.5-0.229,2.868-0.688,4.104
			c-0.459,1.237-1.073,2.294-1.842,3.172s-1.658,1.557-2.669,2.038c-1.01,0.48-2.066,0.721-3.168,0.721
			c-0.996,0-1.943-0.196-2.844-0.586c-0.898-0.391-1.688-0.926-2.363-1.605c-0.678-0.679-1.217-1.477-1.617-2.394
			c-0.401-0.916-0.602-1.906-0.602-2.97c0-0.782,0.096-1.467,0.289-2.057s0.462-1.08,0.806-1.471
			c0.343-0.391,0.744-0.683,1.204-0.875c0.459-0.192,0.949-0.289,1.472-0.289c0.405,0,0.805,0.058,1.196,0.173
			c0.392,0.116,0.76,0.286,1.103,0.51s0.652,0.497,0.929,0.817c0.275,0.32,0.494,0.686,0.659,1.096
			c-0.203-0.077-0.382-0.115-0.536-0.115c-0.262,0-0.47,0.103-0.624,0.307c-0.155,0.206-0.231,0.513-0.231,0.923
			c0,0.218,0.038,0.42,0.115,0.605c0.078,0.186,0.176,0.35,0.297,0.49c0.121,0.141,0.262,0.25,0.422,0.327
			c0.158,0.077,0.326,0.116,0.5,0.116c0.193,0,0.371-0.055,0.536-0.164s0.31-0.253,0.435-0.433c0.126-0.179,0.223-0.378,0.291-0.596
			c0.067-0.218,0.102-0.442,0.102-0.673c0-0.449-0.104-0.903-0.313-1.365c-0.207-0.461-0.51-0.872-0.906-1.23
			c-0.754-0.615-1.465-1.147-2.132-1.596c-0.667-0.448-1.281-0.875-1.842-1.278c-0.562-0.403-1.065-0.81-1.516-1.22
			s-0.831-0.884-1.146-1.423c-0.314-0.538-0.555-1.169-0.719-1.894c-0.164-0.724-0.246-1.598-0.246-2.624
			c0-1.23,0.179-2.384,0.537-3.46c0.357-1.077,0.877-2.015,1.559-2.816s1.516-1.432,2.502-1.894s2.107-0.692,3.365-0.692
			c1.266,0,2.34,0.202,3.219,0.606c0.881,0.403,1.594,0.926,2.14,1.566c0.546,0.641,0.942,1.355,1.189,2.144
			S178.469,11.514,178.469,12.283z"/>
		<path fill="#FFFDFA" d="M191.782,34.14c-0.223-0.026-0.479-0.051-0.769-0.077c-0.252-0.025-0.547-0.045-0.885-0.058
			c-0.339-0.013-0.721-0.019-1.146-0.019c-0.715,0-1.52,0.035-2.414,0.105c-0.895,0.071-1.84,0.202-2.836,0.394
			c0.339-1.896,0.596-3.723,0.77-5.479c0.174-1.755,0.305-3.319,0.391-4.69c0.098-1.602,0.155-3.107,0.175-4.518
			c0-0.602-0.01-1.262-0.029-1.98c-0.02-0.615-0.044-1.329-0.072-2.143c-0.029-0.814-0.067-1.695-0.116-2.643
			c-0.455,0.577-0.906,1.195-1.355,1.855c-0.45,0.66-0.883,1.345-1.299,2.057s-0.805,1.432-1.168,2.163
			c-0.361,0.73-0.679,1.448-0.949,2.153l0.348-14.686c0.909,0.141,1.869,0.25,2.879,0.327c1.011,0.077,2.043,0.115,3.097,0.115
			c1.509,0,3.003-0.07,4.481-0.211c1.479-0.141,2.838-0.346,4.076-0.615l0.536,14.84c-0.696-1.756-1.468-3.405-2.313-4.95
			c-0.846-1.544-1.748-2.835-2.705-3.873c-0.077,0.872-0.133,1.785-0.166,2.739c-0.034,0.955-0.051,1.932-0.051,2.931
			c0,1.295,0.031,2.624,0.094,3.989c0.063,1.365,0.154,2.739,0.275,4.123c0.121,1.384,0.278,2.762,0.472,4.133
			C191.294,31.493,191.521,32.832,191.782,34.14z"/>
		<path fill="#FFFDFA" d="M205.023,34.101c-0.203-0.025-0.43-0.051-0.682-0.077c-0.223-0.025-0.488-0.044-0.797-0.058
			c-0.311-0.013-0.668-0.019-1.074-0.019c-0.783,0-1.691,0.045-2.727,0.134c-1.034,0.09-2.156,0.263-3.364,0.519
			c0.212-0.577,0.396-1.307,0.552-2.191c0.154-0.884,0.282-1.829,0.384-2.835c0.102-1.006,0.181-2.028,0.239-3.066
			s0.102-2.005,0.131-2.903c0.029-0.896,0.045-1.672,0.051-2.326c0.004-0.654,0.007-1.102,0.007-1.346
			c0-0.051-0.003-0.25-0.007-0.596c-0.006-0.346-0.013-0.794-0.021-1.345c-0.01-0.551-0.025-1.183-0.044-1.894
			c-0.02-0.711-0.046-1.452-0.08-2.22c-0.034-0.769-0.077-1.544-0.13-2.326c-0.054-0.781-0.117-1.519-0.189-2.21
			c-0.072-0.692-0.154-1.317-0.246-1.875c-0.092-0.557-0.201-0.996-0.326-1.317c0.977,0.231,1.873,0.385,2.689,0.461
			c0.817,0.077,1.555,0.116,2.213,0.116c0.435,0,0.826-0.013,1.174-0.039c0.349-0.026,0.644-0.051,0.885-0.077
			c0.281-0.038,0.527-0.077,0.74-0.115c-0.116,0.718-0.218,1.516-0.305,2.394s-0.164,1.813-0.232,2.806
			c-0.067,0.994-0.118,2.035-0.152,3.124c-0.033,1.089-0.051,2.21-0.051,3.364c0,1.333,0.024,2.688,0.072,4.066
			c0.049,1.378,0.129,2.746,0.24,4.104s0.251,2.691,0.42,3.999C204.563,31.66,204.772,32.909,205.023,34.101z"/>
		<path fill="#FFFDFA" d="M223.298,6.343c-0.6,2.307-1.132,4.617-1.595,6.93c-0.465,2.313-0.878,4.629-1.24,6.949
			c-0.363,2.32-0.682,4.643-0.957,6.969c-0.276,2.326-0.521,4.655-0.732,6.987c-0.504-0.064-1.025-0.105-1.566-0.125
			c-0.542-0.019-1.098-0.029-1.668-0.029c-0.899,0-1.794,0.036-2.684,0.106s-1.735,0.176-2.538,0.317
			c-0.241-2.345-0.529-4.681-0.862-7.007c-0.334-2.326-0.724-4.648-1.168-6.968c-0.445-2.319-0.955-4.629-1.53-6.93
			s-1.221-4.598-1.937-6.892c0.58,0.103,1.158,0.183,1.733,0.24s1.153,0.086,1.733,0.086c0.841,0,1.672-0.051,2.494-0.154
			c0.822-0.102,1.645-0.262,2.466-0.48c-0.048,0.756-0.079,1.503-0.095,2.24c-0.014,0.737-0.021,1.47-0.021,2.201
			c0,2.461,0.111,4.857,0.334,7.189c0.223,2.333,0.556,4.64,1,6.92c0.367-1.986,0.639-3.957,0.813-5.911
			c0.174-1.954,0.262-3.912,0.262-5.873c0-2.255-0.116-4.511-0.349-6.767c0.667,0.115,1.335,0.196,2.001,0.24
			c0.668,0.045,1.344,0.067,2.031,0.067c0.667,0,1.339-0.022,2.016-0.067C221.915,6.539,222.602,6.458,223.298,6.343z"/>
		<path fill="#FFFDFA" d="M240.76,34.447c-0.6-0.103-1.178-0.173-1.732-0.211c-0.557-0.038-1.119-0.058-1.69-0.058
			c-1.537,0-3.113,0.199-4.728,0.596c0.058-0.308,0.123-0.58,0.195-0.817c0.072-0.237,0.139-0.5,0.195-0.789
			c0.059-0.288,0.107-0.625,0.146-1.009c0.038-0.385,0.058-0.878,0.058-1.48c0-0.615-0.033-1.201-0.102-1.759
			c-0.067-0.558-0.168-1.051-0.305-1.48c-0.135-0.429-0.302-0.771-0.5-1.028c-0.197-0.256-0.428-0.384-0.688-0.384
			c-0.29,0-0.534,0.115-0.732,0.346c-0.198,0.23-0.358,0.544-0.479,0.942c-0.121,0.397-0.208,0.852-0.261,1.365
			c-0.054,0.513-0.08,1.057-0.08,1.634s0.026,1.074,0.08,1.49c0.053,0.417,0.115,0.779,0.188,1.086
			c0.073,0.307,0.143,0.58,0.211,0.817c0.067,0.237,0.115,0.471,0.145,0.702c-0.666-0.103-1.322-0.18-1.965-0.231
			c-0.643-0.051-1.283-0.077-1.922-0.077c-0.638,0-1.278,0.026-1.922,0.077c-0.643,0.051-1.307,0.128-1.994,0.231
			c0.6-2.307,1.125-4.594,1.574-6.863s0.834-4.549,1.152-6.843c0.319-2.294,0.578-4.614,0.776-6.959s0.346-4.748,0.442-7.208
			c0.715,0.128,1.501,0.221,2.357,0.279c0.855,0.058,1.732,0.086,2.632,0.086c0.764,0,1.506-0.025,2.226-0.077
			c0.721-0.051,1.386-0.16,1.994-0.327c0.068,2.448,0.242,4.857,0.523,7.228c0.279,2.371,0.631,4.719,1.051,7.045
			c0.42,2.326,0.901,4.626,1.443,6.901C239.59,29.946,240.16,32.205,240.76,34.447z M232.639,19.53
			c-0.02-0.243-0.078-0.602-0.175-1.076c-0.087-0.41-0.218-0.952-0.392-1.625s-0.43-1.541-0.769-2.605
			c-0.077,0.667-0.165,1.259-0.261,1.778c-0.098,0.519-0.189,0.987-0.275,1.403c-0.088,0.417-0.162,0.798-0.225,1.144
			c-0.063,0.346-0.095,0.673-0.095,0.98c0,0.641,0.113,1.138,0.341,1.49c0.227,0.353,0.48,0.529,0.762,0.529
			c0.299,0,0.551-0.192,0.754-0.577C232.508,20.587,232.619,20.106,232.639,19.53z"/>
		<path fill="#FFFDFA" d="M253.9,34.485c-0.339-0.103-0.738-0.192-1.197-0.269s-0.938-0.135-1.436-0.173
			c-0.498-0.039-0.991-0.067-1.479-0.086c-0.488-0.02-0.929-0.032-1.319-0.039c-0.393-0.006-0.713-0.01-0.965-0.01s-0.387,0-0.406,0
			c-0.6,0.013-1.247,0.051-1.943,0.115c-0.6,0.064-1.283,0.157-2.053,0.279c-0.768,0.122-1.572,0.292-2.414,0.509
			c0.193-0.986,0.362-2.092,0.508-3.316c0.145-1.224,0.266-2.521,0.362-3.893c0.097-1.371,0.169-2.787,0.218-4.248
			c0.048-1.461,0.072-2.922,0.072-4.383c0-1.204-0.018-2.393-0.051-3.565c-0.034-1.173-0.087-2.297-0.16-3.374
			c-0.072-1.076-0.158-2.095-0.26-3.056c-0.102-0.961-0.226-1.839-0.371-2.634c1.006,0.244,1.918,0.404,2.734,0.48
			c0.816,0.077,1.539,0.116,2.168,0.116c0.396,0,0.75-0.01,1.059-0.029c0.311-0.02,0.57-0.042,0.783-0.067
			c0.252-0.039,0.469-0.077,0.653-0.115c-0.213,0.922-0.411,1.922-0.595,2.999s-0.341,2.182-0.471,3.316
			c-0.131,1.134-0.232,2.271-0.305,3.412c-0.073,1.141-0.109,2.23-0.109,3.268c0,1.32,0.063,2.451,0.188,3.393
			c0.126,0.942,0.312,1.711,0.559,2.307c0.247,0.596,0.546,1.035,0.899,1.317c0.353,0.282,0.756,0.423,1.211,0.423
			c0.609,0,1.211-0.292,1.805-0.875c0.596-0.583,1.11-1.432,1.545-2.547L253.9,34.485z"/>
		<path fill="#FFFDFA" d="M260.586,10.668c0,0.526-0.078,1.109-0.232,1.75s-0.348,1.275-0.58,1.903
			c-0.232,0.628-0.49,1.211-0.775,1.75c-0.285,0.538-0.559,0.968-0.82,1.288l-2.943-0.461c0.309-0.32,0.594-0.679,0.855-1.077
			c0.262-0.397,0.503-0.813,0.725-1.25c-0.357-0.039-0.684-0.167-0.979-0.384s-0.549-0.5-0.762-0.846
			c-0.213-0.346-0.377-0.746-0.492-1.201c-0.117-0.455-0.174-0.945-0.174-1.471c0-0.436,0.053-0.887,0.158-1.355
			c0.107-0.468,0.278-0.9,0.516-1.298c0.236-0.397,0.553-0.724,0.949-0.98c0.396-0.256,0.885-0.384,1.465-0.384
			c0.523,0,0.979,0.096,1.371,0.289c0.392,0.192,0.713,0.464,0.965,0.817c0.251,0.353,0.439,0.775,0.565,1.269
			C260.523,9.518,260.586,10.066,260.586,10.668z"/>
		<path fill="#FFFDFA" d="M276.568,34.601c0-1.781,0.131-3.316,0.393-4.604c0.261-1.288,0.605-2.406,1.037-3.354
			c0.43-0.948,0.92-1.756,1.472-2.422c0.551-0.666,1.114-1.269,1.689-1.807c0.575-0.539,1.139-1.044,1.689-1.519
			c0.552-0.474,1.042-0.986,1.472-1.538c0.431-0.551,0.776-1.173,1.037-1.865c0.262-0.692,0.393-1.531,0.393-2.518
			c0-0.231-0.027-0.48-0.08-0.75c-0.054-0.269-0.143-0.522-0.269-0.759c-0.126-0.237-0.295-0.432-0.508-0.586
			c-0.212-0.154-0.474-0.231-0.783-0.231c-0.261,0-0.491,0.064-0.688,0.192c-0.198,0.128-0.363,0.288-0.493,0.48
			c-0.131,0.192-0.228,0.407-0.29,0.644c-0.063,0.237-0.094,0.465-0.094,0.682c0,0.206,0.031,0.401,0.094,0.586
			c0.063,0.186,0.146,0.35,0.254,0.49c0.105,0.141,0.225,0.253,0.355,0.336c0.131,0.083,0.263,0.125,0.398,0.125
			c0.145,0,0.318-0.039,0.521-0.115c-0.164,0.41-0.384,0.778-0.659,1.105c-0.276,0.327-0.585,0.599-0.929,0.817
			c-0.343,0.218-0.711,0.384-1.102,0.5c-0.393,0.115-0.791,0.173-1.197,0.173c-0.521,0-1.013-0.096-1.472-0.289
			c-0.46-0.192-0.86-0.483-1.204-0.875c-0.343-0.391-0.611-0.878-0.805-1.461s-0.29-1.272-0.29-2.066
			c0-1.064,0.152-2.096,0.457-3.095s0.767-1.89,1.385-2.672s1.393-1.406,2.321-1.875c0.928-0.467,2.016-0.702,3.263-0.702
			c1.421,0,2.656,0.27,3.706,0.808c1.049,0.538,1.919,1.282,2.61,2.23c0.69,0.948,1.208,2.07,1.552,3.364
			c0.343,1.295,0.515,2.691,0.515,4.191c0,1.064-0.102,1.986-0.304,2.768c-0.203,0.782-0.479,1.461-0.828,2.038
			c-0.348,0.577-0.751,1.077-1.211,1.5c-0.459,0.423-0.947,0.811-1.465,1.163c-0.517,0.353-1.046,0.689-1.588,1.009
			c-0.541,0.321-1.065,0.67-1.573,1.048s-0.983,0.804-1.429,1.278s-0.826,1.044-1.146,1.711c1.953-0.179,3.684-0.657,5.192-1.432
			c1.508-0.775,2.779-1.778,3.814-3.008c-0.068,0.679-0.116,1.349-0.146,2.009c-0.028,0.66-0.044,1.316-0.044,1.97
			c0,1.064,0.041,2.124,0.124,3.182c0.082,1.057,0.21,2.104,0.384,3.143c-1.209-0.23-2.461-0.403-3.756-0.519
			c-1.296-0.115-2.605-0.173-3.931-0.173c-1.354,0-2.686,0.058-3.995,0.173C279.109,34.197,277.826,34.37,276.568,34.601z"/>
		<path fill="#FFFDFA" d="M300.717,14.839c0.29,0.013,0.713,0.051,1.27,0.115c0.555,0.064,1.162,0.211,1.82,0.442
			c0.656,0.23,1.328,0.567,2.016,1.009c0.686,0.442,1.31,1.051,1.871,1.826c0.561,0.775,1.02,1.743,1.377,2.902
			c0.357,1.16,0.537,2.566,0.537,4.22c0,1.525-0.172,2.912-0.516,4.162c-0.343,1.25-0.859,2.316-1.551,3.201
			s-1.563,1.567-2.611,2.047s-2.284,0.721-3.705,0.721c-1.248,0-2.336-0.234-3.264-0.702s-1.701-1.092-2.32-1.874
			s-1.08-1.675-1.385-2.682c-0.305-1.006-0.457-2.041-0.457-3.104c0-0.782,0.096-1.464,0.29-2.047
			c0.193-0.583,0.462-1.07,0.805-1.461c0.343-0.391,0.745-0.683,1.204-0.875c0.459-0.192,0.949-0.289,1.472-0.289
			c0.406,0,0.806,0.058,1.196,0.173c0.393,0.115,0.76,0.285,1.103,0.509s0.653,0.497,0.929,0.817s0.495,0.686,0.66,1.096
			c-0.203-0.077-0.378-0.115-0.523-0.115c-0.135,0-0.268,0.042-0.398,0.125s-0.248,0.195-0.355,0.336
			c-0.105,0.141-0.19,0.304-0.254,0.49c-0.063,0.186-0.094,0.381-0.094,0.586c0,0.218,0.031,0.446,0.094,0.683
			c0.063,0.237,0.16,0.452,0.291,0.644c0.13,0.192,0.295,0.353,0.492,0.48c0.199,0.128,0.428,0.192,0.689,0.192
			c0.629,0,1.092-0.26,1.393-0.779c0.299-0.519,0.449-1.201,0.449-2.047c0-0.743-0.141-1.4-0.42-1.97
			c-0.281-0.57-0.648-1.051-1.104-1.441c-0.454-0.391-0.971-0.699-1.551-0.923s-1.168-0.372-1.763-0.442
			c-0.595-0.07-1.177-0.064-1.747,0.02c-0.571,0.083-1.068,0.234-1.494,0.452c0-0.039-0.002-0.25-0.008-0.634
			c-0.004-0.385-0.012-0.881-0.021-1.49c-0.01-0.609-0.023-1.304-0.043-2.086s-0.047-1.592-0.08-2.432
			c-0.034-0.839-0.075-1.685-0.123-2.538c-0.049-0.852-0.109-1.653-0.182-2.403c-0.072-0.75-0.154-1.422-0.246-2.019
			c-0.092-0.596-0.201-1.06-0.326-1.394c0.928,0.256,1.87,0.439,2.828,0.548c0.957,0.109,1.904,0.164,2.842,0.164
			c1.074,0,2.12-0.048,3.141-0.144c1.02-0.096,1.931-0.208,2.733-0.336c0.938-0.141,1.823-0.308,2.654-0.5v10.188
			c-0.522-0.589-1.057-1.086-1.603-1.49c-0.547-0.403-1.083-0.727-1.609-0.971c-0.527-0.243-1.033-0.419-1.516-0.528
			c-0.484-0.109-0.92-0.164-1.307-0.164h-1.465L300.717,14.839z"/>
		<path fill="#FFFDFA" d="M321.799,34.163c-0.115-0.009-0.25-0.022-0.405-0.041c-0.136-0.009-0.294-0.018-0.478-0.027
			c-0.183-0.009-0.393-0.014-0.629-0.014c-0.44,0-0.948,0.025-1.523,0.074s-1.197,0.141-1.867,0.276
			c0.128-0.341,0.236-0.769,0.324-1.285c0.088-0.516,0.16-1.067,0.219-1.655c0.057-0.587,0.102-1.182,0.131-1.783
			c0.031-0.601,0.053-1.153,0.066-1.655c0.014-0.502,0.021-0.928,0.025-1.278c0.004-0.35,0.006-0.569,0.006-0.659
			c-0.014-1.166-0.045-2.256-0.092-3.27c-0.021-0.431-0.046-0.865-0.076-1.305c-0.031-0.439-0.066-0.854-0.106-1.245
			c-0.041-0.39-0.087-0.74-0.138-1.05c-0.051-0.309-0.109-0.554-0.178-0.733c0.549,0.125,1.057,0.21,1.523,0.255
			s0.89,0.067,1.27,0.067c0.243,0,0.461-0.007,0.654-0.02c0.193-0.014,0.357-0.029,0.492-0.047c0.162-0.018,0.305-0.04,0.427-0.067
			c-0.122,0.808-0.222,1.781-0.3,2.92s-0.117,2.359-0.117,3.66c0,0.745,0.014,1.499,0.041,2.261
			c0.027,0.763,0.071,1.523,0.133,2.281c0.061,0.758,0.14,1.503,0.238,2.234C321.537,32.788,321.657,33.49,321.799,34.163z
			 M317.14,14.92c0-0.413,0.06-0.801,0.178-1.164s0.28-0.682,0.487-0.956c0.206-0.273,0.448-0.489,0.726-0.646
			c0.277-0.157,0.571-0.235,0.884-0.235c0.311,0,0.604,0.079,0.878,0.235c0.274,0.157,0.515,0.373,0.721,0.646
			c0.206,0.274,0.368,0.592,0.487,0.956c0.118,0.363,0.178,0.751,0.178,1.164s-0.06,0.803-0.178,1.17
			c-0.119,0.368-0.281,0.688-0.487,0.962c-0.206,0.273-0.446,0.489-0.721,0.646c-0.274,0.157-0.567,0.236-0.878,0.236
			c-0.313,0-0.606-0.079-0.884-0.236c-0.277-0.157-0.52-0.372-0.726-0.646c-0.207-0.274-0.369-0.594-0.487-0.962
			C317.199,15.723,317.14,15.333,317.14,14.92z"/>
		<path fill="#FFFDFA" d="M333.129,34.485c-0.209-0.045-0.439-0.074-0.689-0.087c-0.251-0.014-0.512-0.02-0.782-0.02
			c-0.325,0-0.655,0.011-0.989,0.034c-0.336,0.022-0.662,0.051-0.98,0.087c-0.318,0.036-0.619,0.076-0.903,0.121
			c-0.284,0.044-0.532,0.085-0.741,0.121c0.291-1.301,0.516-2.691,0.676-4.171c0.158-1.48,0.238-3.122,0.238-4.925
			c0-0.134-0.002-0.313-0.006-0.538c-0.003-0.224-0.012-0.466-0.025-0.727s-0.035-0.522-0.065-0.787s-0.075-0.505-0.132-0.72
			c-0.059-0.215-0.131-0.39-0.219-0.524c-0.088-0.135-0.196-0.202-0.324-0.202c-0.189,0-0.375,0.09-0.554,0.269
			c-0.18,0.18-0.339,0.417-0.478,0.713s-0.25,0.637-0.335,1.022c-0.085,0.386-0.126,0.785-0.126,1.198c0,0.745,0.013,1.5,0.04,2.268
			c0.026,0.767,0.071,1.527,0.132,2.281s0.139,1.491,0.233,2.213s0.214,1.406,0.355,2.052c-0.115-0.009-0.251-0.022-0.406-0.041
			c-0.136-0.009-0.294-0.018-0.478-0.027c-0.182-0.009-0.393-0.014-0.629-0.014c-0.439,0-0.947,0.025-1.523,0.074
			c-0.574,0.049-1.197,0.141-1.867,0.276c0.081-0.502,0.152-1.117,0.213-1.844c0.061-0.727,0.111-1.516,0.152-2.368
			c0.041-0.852,0.072-1.743,0.097-2.671c0.023-0.929,0.035-1.846,0.035-2.752c0-0.673-0.007-1.332-0.021-1.978
			s-0.031-1.256-0.056-1.83c-0.023-0.574-0.056-1.103-0.097-1.588c-0.04-0.484-0.088-0.901-0.142-1.251
			c0.548,0.125,1.056,0.213,1.522,0.262s0.891,0.074,1.27,0.074c0.244,0,0.462-0.006,0.654-0.02
			c0.193-0.013,0.357-0.029,0.492-0.047c0.163-0.027,0.305-0.054,0.427-0.081c-0.04,0.278-0.079,0.574-0.116,0.888
			s-0.073,0.655-0.107,1.023c0.224-0.377,0.461-0.707,0.711-0.989s0.502-0.518,0.756-0.707s0.506-0.33,0.757-0.424
			s0.487-0.141,0.711-0.141c0.487,0,0.909,0.132,1.264,0.397c0.355,0.265,0.649,0.679,0.884,1.245
			c0.232,0.565,0.407,1.287,0.522,2.167s0.173,1.933,0.173,3.162c0,0.843,0.002,1.7,0.005,2.57s0.019,1.722,0.046,2.557
			c0.027,0.834,0.074,1.626,0.143,2.375C332.912,33.209,333.008,33.885,333.129,34.485z"/>
		<path fill="#FFFDFA" d="M356.848,19.761c-0.793,2.602-1.189,5.126-1.189,7.574c0,1.179,0.082,2.368,0.246,3.566
			s0.421,2.419,0.77,3.662c-0.552-0.18-1.064-0.314-1.538-0.404s-0.942-0.135-1.407-0.135c-0.492,0-0.996,0.058-1.508,0.173
			c-0.513,0.115-1.068,0.294-1.668,0.538l0.595-3.076c-0.194,0.41-0.426,0.83-0.696,1.259c-0.271,0.429-0.592,0.817-0.965,1.163
			c-0.372,0.346-0.797,0.631-1.275,0.855s-1.027,0.336-1.646,0.336c-0.928,0-1.781-0.295-2.561-0.884
			c-0.777-0.589-1.447-1.441-2.008-2.557c-0.561-1.115-0.999-2.482-1.313-4.104c-0.314-1.621-0.472-3.463-0.472-5.527
			c0-1.371,0.097-2.732,0.29-4.084s0.474-2.64,0.842-3.864c0.367-1.224,0.82-2.357,1.363-3.402c0.541-1.044,1.154-1.948,1.842-2.71
			c0.686-0.762,1.447-1.358,2.283-1.788c0.837-0.429,1.738-0.644,2.705-0.644c0.88,0,1.648,0.119,2.307,0.355
			c0.657,0.237,1.228,0.551,1.711,0.942c0.483,0.391,0.883,0.84,1.197,1.346c0.313,0.506,0.563,1.035,0.746,1.586
			c0.184,0.551,0.314,1.099,0.393,1.644c0.076,0.545,0.115,1.054,0.115,1.528c0,0.679-0.09,1.333-0.268,1.961
			c-0.18,0.628-0.429,1.179-0.748,1.653c-0.318,0.475-0.695,0.853-1.131,1.134c-0.436,0.282-0.914,0.423-1.436,0.423
			c-0.542,0-1.011-0.108-1.407-0.327c-0.396-0.218-0.726-0.503-0.985-0.855c-0.262-0.353-0.457-0.747-0.588-1.182
			s-0.195-0.872-0.195-1.307c0-0.372,0.048-0.75,0.145-1.134c0.096-0.384,0.232-0.743,0.406-1.077
			c0.058,0.27,0.14,0.478,0.246,0.625s0.213,0.253,0.319,0.317c0.116,0.077,0.247,0.122,0.392,0.135
			c0.328,0,0.563-0.109,0.703-0.327s0.211-0.468,0.211-0.75c0-0.128-0.022-0.259-0.066-0.394c-0.043-0.134-0.107-0.259-0.195-0.375
			c-0.087-0.116-0.201-0.211-0.341-0.289c-0.14-0.077-0.312-0.115-0.515-0.115c-0.136,0-0.322,0.035-0.559,0.105
			c-0.236,0.071-0.493,0.208-0.769,0.414s-0.554,0.497-0.834,0.875c-0.28,0.378-0.536,0.881-0.769,1.509s-0.42,1.397-0.565,2.307
			c-0.146,0.91-0.218,1.993-0.218,3.249c0,1.038,0.065,1.948,0.195,2.73c0.131,0.782,0.313,1.435,0.545,1.96
			c0.231,0.526,0.507,0.92,0.826,1.182c0.318,0.263,0.667,0.394,1.045,0.394c0.357,0,0.652-0.122,0.884-0.365
			c0.232-0.243,0.416-0.538,0.552-0.884c0.135-0.346,0.227-0.705,0.275-1.076c0.048-0.372,0.072-0.686,0.072-0.942
			c0-0.013-0.008-0.103-0.021-0.269c-0.015-0.167-0.061-0.359-0.139-0.577c-0.077-0.218-0.203-0.442-0.377-0.672
			c-0.174-0.231-0.42-0.423-0.739-0.577c1.141,0,2.286-0.067,3.438-0.202C354.546,20.251,355.696,20.042,356.848,19.761z"/>
		<path fill="#FFFDFA" d="M374.004,21.337c0,1.948-0.164,3.777-0.492,5.488c-0.329,1.71-0.827,3.204-1.494,4.479
			c-0.667,1.275-1.511,2.281-2.531,3.018c-1.02,0.736-2.226,1.105-3.618,1.105c-1.383,0-2.584-0.369-3.604-1.105
			c-1.02-0.737-1.865-1.743-2.537-3.018c-0.673-1.275-1.173-2.769-1.502-4.479c-0.328-1.711-0.492-3.54-0.492-5.488
			c0-1.435,0.102-2.819,0.305-4.152c0.202-1.333,0.482-2.576,0.84-3.729c0.358-1.154,0.789-2.204,1.291-3.153
			c0.503-0.948,1.057-1.759,1.661-2.432s1.247-1.195,1.929-1.567c0.682-0.372,1.385-0.557,2.11-0.557
			c1.218,0,2.327,0.394,3.329,1.182c1,0.788,1.855,1.881,2.566,3.277c0.711,1.397,1.262,3.044,1.653,4.94
			C373.809,17.044,374.004,19.107,374.004,21.337z M368.072,19.684c0-0.961-0.058-1.848-0.174-2.662
			c-0.115-0.814-0.273-1.519-0.471-2.115c-0.199-0.596-0.434-1.063-0.703-1.403c-0.271-0.339-0.557-0.509-0.856-0.509
			c-0.29,0-0.565,0.202-0.827,0.605c-0.261,0.404-0.49,0.926-0.688,1.566c-0.198,0.641-0.355,1.359-0.472,2.153
			c-0.115,0.794-0.174,1.583-0.174,2.364c0,0.756,0.051,1.458,0.152,2.105c0.102,0.647,0.244,1.208,0.428,1.682
			s0.408,0.849,0.675,1.125c0.266,0.276,0.567,0.413,0.906,0.413c0.329,0,0.631-0.137,0.907-0.413
			c0.275-0.275,0.507-0.65,0.695-1.125s0.336-1.035,0.442-1.682C368.02,21.142,368.072,20.44,368.072,19.684z"/>
		<path fill="#FFFDFA" d="M386.782,34.14c-0.223-0.026-0.479-0.051-0.769-0.077c-0.252-0.025-0.547-0.045-0.885-0.058
			c-0.339-0.013-0.721-0.019-1.146-0.019c-0.715,0-1.52,0.035-2.414,0.105c-0.895,0.071-1.84,0.202-2.836,0.394
			c0.339-1.896,0.596-3.723,0.77-5.479c0.174-1.755,0.305-3.319,0.391-4.69c0.098-1.602,0.155-3.107,0.175-4.518
			c0-0.602-0.01-1.262-0.029-1.98c-0.02-0.615-0.044-1.329-0.072-2.143c-0.029-0.814-0.067-1.695-0.116-2.643
			c-0.455,0.577-0.906,1.195-1.355,1.855c-0.45,0.66-0.883,1.345-1.299,2.057s-0.805,1.432-1.168,2.163
			c-0.361,0.73-0.679,1.448-0.949,2.153l0.348-14.686c0.909,0.141,1.869,0.25,2.879,0.327c1.011,0.077,2.043,0.115,3.097,0.115
			c1.509,0,3.003-0.07,4.481-0.211c1.479-0.141,2.838-0.346,4.076-0.615l0.536,14.84c-0.696-1.756-1.468-3.405-2.313-4.95
			c-0.846-1.544-1.748-2.835-2.705-3.873c-0.077,0.872-0.133,1.785-0.166,2.739c-0.034,0.955-0.051,1.932-0.051,2.931
			c0,1.295,0.031,2.624,0.094,3.989c0.063,1.365,0.154,2.739,0.275,4.123c0.121,1.384,0.278,2.762,0.472,4.133
			C386.294,31.493,386.521,32.832,386.782,34.14z"/>
		<path fill="#FFFDFA" d="M405.245,34.485c-0.503-0.128-1.018-0.228-1.544-0.298c-0.527-0.07-1.084-0.125-1.668-0.164
			c-0.586-0.038-1.209-0.061-1.871-0.067c-0.663-0.006-1.381-0.01-2.154-0.01c-0.367,0-0.805,0.006-1.313,0.019
			c-0.508,0.013-1.054,0.045-1.639,0.096c-0.586,0.051-1.188,0.125-1.806,0.221c-0.619,0.096-1.224,0.221-1.813,0.375
			c0.213-0.577,0.396-1.304,0.552-2.182c0.154-0.877,0.282-1.81,0.384-2.797s0.182-1.993,0.24-3.018
			c0.058-1.025,0.102-1.98,0.13-2.864s0.046-1.65,0.051-2.297c0.005-0.647,0.007-1.092,0.007-1.336c0-0.051-0.002-0.25-0.007-0.596
			s-0.013-0.794-0.022-1.346c-0.009-0.551-0.023-1.182-0.043-1.894c-0.02-0.711-0.046-1.451-0.08-2.22
			c-0.033-0.769-0.077-1.544-0.13-2.326c-0.054-0.782-0.116-1.522-0.188-2.221c-0.072-0.698-0.154-1.326-0.246-1.884
			c-0.093-0.557-0.201-1.002-0.327-1.336c0.948,0.18,1.88,0.311,2.8,0.394c0.918,0.083,1.808,0.125,2.668,0.125
			c1.054,0,2.04-0.039,2.959-0.115c0.918-0.077,1.721-0.167,2.407-0.269c0.803-0.115,1.532-0.25,2.19-0.404v9.016
			c-0.561-0.692-1.098-1.224-1.61-1.596c-0.513-0.372-0.967-0.647-1.363-0.826c-0.464-0.205-0.899-0.32-1.306-0.346
			c-0.482,0-0.877,0.08-1.182,0.24s-0.541,0.365-0.711,0.615c-0.169,0.25-0.282,0.532-0.34,0.846
			c-0.059,0.314-0.088,0.631-0.088,0.952c0,0.333,0.037,0.667,0.109,1c0.072,0.333,0.186,0.634,0.34,0.903
			c0.155,0.269,0.355,0.49,0.603,0.664c0.247,0.173,0.539,0.259,0.878,0.259c0.279,0,0.536-0.086,0.768-0.259
			c0.232-0.173,0.431-0.369,0.596-0.586c0.193-0.244,0.371-0.525,0.536-0.846v7.824c-0.155-0.487-0.336-0.872-0.544-1.153
			s-0.411-0.49-0.609-0.625c-0.197-0.135-0.377-0.218-0.536-0.25c-0.159-0.032-0.269-0.048-0.327-0.048
			c-0.628,0-1.097,0.256-1.406,0.769s-0.464,1.172-0.464,1.98c0,0.589,0.051,1.089,0.152,1.499c0.102,0.411,0.237,0.744,0.405,1
			c0.17,0.256,0.368,0.442,0.596,0.557c0.227,0.115,0.466,0.173,0.717,0.173c0.387,0,0.803-0.116,1.248-0.346
			c0.444-0.231,0.873-0.538,1.283-0.923c0.411-0.384,0.788-0.823,1.131-1.317c0.344-0.493,0.617-0.996,0.82-1.509L405.245,34.485z"
			/>
		<path fill="#FFFDFA" d="M414.744,34.101c-0.184-0.025-0.4-0.051-0.652-0.077c-0.213-0.025-0.469-0.044-0.769-0.058
			c-0.3-0.013-0.644-0.019-1.029-0.019c-0.755,0-1.637,0.045-2.647,0.134c-1.01,0.09-2.119,0.263-3.328,0.519
			c0.213-0.577,0.396-1.307,0.551-2.191s0.283-1.829,0.385-2.835c0.102-1.006,0.182-2.028,0.239-3.066s0.102-2.005,0.13-2.903
			c0.029-0.896,0.047-1.672,0.051-2.326c0.006-0.654,0.008-1.102,0.008-1.346c0-0.051-0.002-0.25-0.008-0.596
			c-0.004-0.346-0.012-0.794-0.021-1.345s-0.023-1.183-0.043-1.894c-0.02-0.711-0.047-1.452-0.08-2.22
			c-0.033-0.769-0.078-1.544-0.131-2.326c-0.053-0.781-0.115-1.519-0.188-2.21c-0.073-0.692-0.155-1.317-0.247-1.875
			c-0.093-0.557-0.2-0.996-0.327-1.317c0.977,0.231,1.867,0.385,2.67,0.461c0.802,0.077,1.518,0.116,2.146,0.116
			c0.425,0,0.805-0.013,1.138-0.039c0.334-0.026,0.612-0.051,0.834-0.077c0.261-0.038,0.493-0.077,0.696-0.115
			c0.416,2.717,0.89,5.235,1.422,7.555c0.531,2.32,1.131,4.473,1.798,6.459v-0.788c-0.028-2.089-0.082-4.037-0.159-5.844
			c-0.039-0.769-0.082-1.544-0.131-2.326c-0.049-0.781-0.109-1.519-0.182-2.21c-0.072-0.692-0.154-1.317-0.246-1.875
			c-0.092-0.557-0.201-0.996-0.326-1.317c0.967,0.231,1.858,0.385,2.676,0.461c0.816,0.077,1.539,0.116,2.168,0.116
			c0.426,0,0.805-0.013,1.139-0.039s0.611-0.051,0.834-0.077c0.262-0.038,0.493-0.077,0.696-0.115
			c-0.116,0.718-0.218,1.519-0.305,2.403s-0.165,1.826-0.231,2.826c-0.068,1-0.119,2.051-0.152,3.153
			c-0.035,1.102-0.051,2.236-0.051,3.402c0,1.32,0.023,2.663,0.072,4.027c0.048,1.365,0.127,2.723,0.238,4.075
			c0.111,1.353,0.252,2.679,0.422,3.979c0.168,1.301,0.369,2.547,0.602,3.739c-0.174-0.025-0.383-0.051-0.624-0.077
			c-0.203-0.025-0.45-0.044-0.739-0.058c-0.291-0.013-0.619-0.019-0.986-0.019c-0.696,0-1.499,0.045-2.408,0.134
			c-0.908,0.09-1.885,0.263-2.93,0.519c0-1.32-0.079-2.611-0.238-3.873c-0.16-1.262-0.385-2.505-0.675-3.729
			c-0.29-1.224-0.638-2.425-1.044-3.604c-0.406-1.179-0.855-2.345-1.35-3.499c0.01,1.205,0.046,2.422,0.109,3.652
			c0.063,1.23,0.149,2.448,0.261,3.652c0.111,1.205,0.247,2.387,0.406,3.547C414.346,31.907,414.532,33.024,414.744,34.101z"/>
		<path fill="#FFFDFA" d="M441.691,26.739c0,1.422-0.225,2.633-0.674,3.633s-1.047,1.817-1.791,2.451s-1.598,1.105-2.561,1.413
			c-0.961,0.308-1.95,0.487-2.965,0.539c-0.648-0.026-1.268-0.058-1.857-0.096c-0.251-0.013-0.507-0.022-0.768-0.029
			c-0.262-0.007-0.516-0.016-0.762-0.029c-0.246-0.013-0.481-0.02-0.703-0.02c-0.223,0-0.412,0-0.566,0
			c-0.638,0.026-1.298,0.045-1.979,0.058s-1.351,0.051-2.009,0.116c0.436-0.782,0.788-1.781,1.059-2.999
			c0.271-1.217,0.486-2.531,0.646-3.94s0.269-2.855,0.327-4.335c0.057-1.48,0.086-2.867,0.086-4.162c0-0.551-0.007-1.22-0.021-2.009
			c-0.014-0.788-0.041-1.627-0.08-2.518c-0.038-0.891-0.092-1.791-0.159-2.701c-0.067-0.91-0.162-1.759-0.282-2.547
			c-0.121-0.788-0.27-1.483-0.443-2.085c-0.174-0.602-0.381-1.031-0.623-1.288c0.696,0.141,1.373,0.234,2.03,0.279
			s1.218,0.067,1.683,0.067c0.406,0,0.769-0.01,1.088-0.029c0.318-0.02,0.633-0.042,0.942-0.067c0.31-0.025,0.628-0.048,0.958-0.067
			c0.328-0.019,0.7-0.029,1.116-0.029c0.638,0.013,1.278,0.061,1.921,0.144c0.644,0.083,1.258,0.228,1.843,0.433
			c0.585,0.205,1.134,0.484,1.646,0.836c0.513,0.353,0.955,0.811,1.328,1.375c0.371,0.564,0.666,1.243,0.884,2.038
			s0.327,1.73,0.327,2.807c0,0.577-0.057,1.153-0.168,1.73s-0.289,1.141-0.536,1.691c-0.247,0.551-0.57,1.08-0.972,1.586
			c-0.401,0.506-0.893,0.978-1.473,1.413c1.238,0.679,2.133,1.547,2.684,2.604C441.416,24.057,441.691,25.303,441.691,26.739z
			 M435.035,27.642c0-0.461-0.053-0.926-0.16-1.394c-0.105-0.468-0.248-0.929-0.428-1.384c-0.179-0.455-0.382-0.894-0.609-1.317
			c-0.227-0.423-0.461-0.827-0.703-1.211c-0.145,0.577-0.238,1.144-0.283,1.701c-0.043,0.558-0.064,1.061-0.064,1.509
			c0,0.667,0.033,1.221,0.102,1.663c0.067,0.442,0.162,0.798,0.283,1.067c0.12,0.269,0.263,0.461,0.428,0.577
			c0.164,0.115,0.348,0.173,0.551,0.173c0.242,0,0.449-0.118,0.623-0.355C434.948,28.434,435.035,28.091,435.035,27.642z
			 M433.048,18.069c0.193-0.192,0.421-0.452,0.682-0.778c0.261-0.327,0.508-0.686,0.739-1.077c0.232-0.391,0.431-0.798,0.596-1.221
			c0.164-0.423,0.246-0.827,0.246-1.211c0-0.41-0.09-0.743-0.268-1c-0.18-0.256-0.381-0.385-0.603-0.385
			c-0.31,0-0.556,0.186-0.739,0.558c-0.184,0.372-0.326,0.811-0.428,1.317s-0.17,1.019-0.203,1.538
			c-0.035,0.519-0.051,0.933-0.051,1.24c0,0.154,0,0.317,0,0.49C433.02,17.713,433.029,17.89,433.048,18.069z"/>
		<path fill="#FFFDFA" d="M459.734,34.447c-0.6-0.103-1.178-0.173-1.733-0.211c-0.556-0.038-1.119-0.058-1.69-0.058
			c-1.537,0-3.113,0.199-4.728,0.596c0.058-0.308,0.124-0.58,0.196-0.817c0.072-0.237,0.138-0.5,0.195-0.789
			c0.059-0.288,0.106-0.625,0.145-1.009c0.039-0.385,0.059-0.878,0.059-1.48c0-0.615-0.033-1.201-0.102-1.759
			s-0.169-1.051-0.305-1.48c-0.135-0.429-0.303-0.771-0.5-1.028c-0.198-0.256-0.428-0.384-0.689-0.384
			c-0.289,0-0.534,0.115-0.732,0.346c-0.197,0.23-0.357,0.544-0.479,0.942c-0.121,0.397-0.207,0.852-0.261,1.365
			s-0.079,1.057-0.079,1.634s0.025,1.074,0.079,1.49c0.054,0.417,0.116,0.779,0.188,1.086c0.072,0.307,0.143,0.58,0.211,0.817
			c0.066,0.237,0.115,0.471,0.145,0.702c-0.667-0.103-1.322-0.18-1.965-0.231c-0.644-0.051-1.284-0.077-1.922-0.077
			c-0.639,0-1.279,0.026-1.922,0.077c-0.643,0.051-1.308,0.128-1.994,0.231c0.6-2.307,1.124-4.594,1.574-6.863
			c0.449-2.269,0.833-4.549,1.152-6.843c0.318-2.294,0.578-4.614,0.775-6.959c0.199-2.345,0.346-4.748,0.443-7.208
			c0.715,0.128,1.5,0.221,2.356,0.279c0.855,0.058,1.733,0.086,2.632,0.086c0.764,0,1.506-0.025,2.227-0.077
			c0.721-0.051,1.385-0.16,1.994-0.327c0.068,2.448,0.242,4.857,0.522,7.228c0.28,2.371,0.631,4.719,1.052,7.045
			c0.42,2.326,0.9,4.626,1.442,6.901S459.135,32.205,459.734,34.447z M451.612,19.53c-0.02-0.243-0.077-0.602-0.175-1.076
			c-0.086-0.41-0.217-0.952-0.391-1.625s-0.431-1.541-0.77-2.605c-0.077,0.667-0.164,1.259-0.261,1.778s-0.188,0.987-0.275,1.403
			s-0.162,0.798-0.225,1.144c-0.063,0.346-0.095,0.673-0.095,0.98c0,0.641,0.113,1.138,0.342,1.49
			c0.227,0.353,0.48,0.529,0.761,0.529c0.3,0,0.552-0.192,0.755-0.577C451.481,20.587,451.593,20.106,451.612,19.53z"/>
		<path fill="#FFFDFA" d="M0.773,65.503c0-1.326,0.098-2.468,0.291-3.426c0.194-0.958,0.451-1.79,0.771-2.496
			c0.32-0.706,0.686-1.306,1.096-1.802c0.41-0.496,0.83-0.944,1.258-1.345s0.848-0.777,1.258-1.13
			c0.409-0.353,0.774-0.734,1.095-1.145c0.32-0.41,0.577-0.873,0.771-1.388c0.194-0.515,0.292-1.139,0.292-1.874
			c0-0.172-0.021-0.358-0.06-0.558c-0.04-0.2-0.106-0.389-0.2-0.565s-0.219-0.322-0.377-0.437c-0.158-0.114-0.354-0.171-0.583-0.171
			c-0.194,0-0.366,0.048-0.513,0.143c-0.148,0.095-0.27,0.214-0.367,0.357S5.337,49.97,5.29,50.146
			c-0.047,0.177-0.07,0.346-0.07,0.508c0,0.153,0.023,0.298,0.07,0.437s0.11,0.26,0.188,0.365c0.08,0.105,0.168,0.188,0.265,0.25
			s0.196,0.093,0.297,0.093c0.108,0,0.237-0.028,0.389-0.086c-0.122,0.306-0.286,0.58-0.491,0.823s-0.436,0.446-0.69,0.608
			c-0.256,0.162-0.528,0.286-0.82,0.372c-0.292,0.085-0.589,0.128-0.891,0.128c-0.388,0-0.753-0.071-1.095-0.214
			s-0.641-0.36-0.896-0.651s-0.455-0.653-0.599-1.087c-0.144-0.434-0.216-0.946-0.216-1.538c0-0.792,0.113-1.559,0.34-2.303
			c0.227-0.744,0.57-1.406,1.031-1.988c0.459-0.582,1.035-1.046,1.727-1.395c0.69-0.348,1.5-0.522,2.428-0.522
			c1.058,0,1.977,0.2,2.758,0.601c0.78,0.4,1.428,0.954,1.942,1.659c0.515,0.706,0.899,1.541,1.155,2.503
			c0.255,0.963,0.383,2.003,0.383,3.119c0,0.792-0.076,1.478-0.227,2.06c-0.151,0.582-0.356,1.087-0.615,1.517
			c-0.26,0.429-0.56,0.801-0.901,1.116c-0.342,0.314-0.705,0.603-1.09,0.865c-0.386,0.263-0.778,0.513-1.182,0.751
			c-0.403,0.239-0.794,0.499-1.171,0.78c-0.378,0.281-0.732,0.599-1.063,0.951C5.914,60.22,5.63,60.644,5.393,61.14
			c1.453-0.134,2.741-0.489,3.863-1.066c1.123-0.577,2.068-1.323,2.839-2.239c-0.05,0.506-0.087,1.004-0.108,1.495
			s-0.031,0.979-0.031,1.466c0,0.792,0.029,1.581,0.092,2.368c0.061,0.787,0.156,1.566,0.285,2.339
			c-0.899-0.172-1.831-0.3-2.795-0.386c-0.965-0.086-1.939-0.129-2.925-0.129c-1.007,0-1.999,0.043-2.974,0.129
			S1.709,65.331,0.773,65.503z"/>
		<path fill="#FFFDFA" d="M26.039,55.347c0,0.839-0.053,1.681-0.156,2.524c-0.105,0.844-0.264,1.655-0.475,2.432
			c-0.213,0.777-0.486,1.502-0.82,2.174c-0.335,0.672-0.73,1.256-1.188,1.752c-0.457,0.496-0.98,0.887-1.57,1.173
			s-1.248,0.429-1.975,0.429c-0.728,0-1.383-0.129-1.965-0.386c-0.583-0.258-1.104-0.618-1.564-1.08
			c-0.461-0.462-0.857-1.018-1.188-1.667c-0.332-0.648-0.604-1.361-0.82-2.139c-0.217-0.777-0.377-1.607-0.48-2.489
			c-0.104-0.882-0.156-1.791-0.156-2.725c0-1.688,0.16-3.226,0.48-4.613c0.32-1.388,0.759-2.577,1.316-3.569
			c0.557-0.992,1.212-1.762,1.964-2.31s1.556-0.823,2.413-0.823c0.956,0,1.816,0.248,2.578,0.744
			c0.764,0.496,1.41,1.223,1.943,2.181c0.532,0.958,0.942,2.141,1.23,3.548C25.895,51.911,26.039,53.525,26.039,55.347z
			 M21.668,54.703c0-0.82-0.045-1.554-0.135-2.203s-0.216-1.199-0.378-1.652c-0.162-0.453-0.36-0.799-0.594-1.037
			s-0.495-0.357-0.782-0.357c-0.273,0-0.523,0.15-0.75,0.45c-0.227,0.301-0.421,0.696-0.583,1.188
			c-0.161,0.491-0.29,1.051-0.384,1.681c-0.093,0.629-0.14,1.273-0.14,1.931c0,0.763,0.038,1.455,0.113,2.074
			c0.075,0.62,0.188,1.149,0.34,1.588c0.151,0.439,0.344,0.777,0.577,1.016c0.234,0.239,0.51,0.358,0.826,0.358
			c0.324,0,0.603-0.117,0.836-0.351c0.234-0.234,0.43-0.567,0.588-1.001c0.158-0.434,0.275-0.963,0.352-1.588
			C21.631,56.174,21.668,55.475,21.668,54.703z"/>
		<path fill="#FFFDFA" d="M27.14,65.503c0-1.326,0.097-2.468,0.292-3.426c0.193-0.958,0.451-1.79,0.771-2.496
			c0.32-0.706,0.686-1.306,1.096-1.802c0.409-0.496,0.828-0.944,1.257-1.345c0.428-0.4,0.847-0.777,1.257-1.13
			s0.775-0.734,1.096-1.145c0.32-0.41,0.578-0.873,0.771-1.388c0.194-0.515,0.291-1.139,0.291-1.874c0-0.172-0.02-0.358-0.059-0.558
			c-0.04-0.2-0.106-0.389-0.199-0.565c-0.094-0.176-0.221-0.322-0.379-0.437c-0.158-0.114-0.352-0.171-0.582-0.171
			c-0.194,0-0.365,0.048-0.513,0.143s-0.271,0.214-0.367,0.357s-0.169,0.303-0.216,0.479c-0.047,0.177-0.07,0.346-0.07,0.508
			c0,0.153,0.023,0.298,0.07,0.437s0.109,0.26,0.189,0.365c0.078,0.105,0.166,0.188,0.264,0.25s0.196,0.093,0.297,0.093
			c0.107,0,0.238-0.028,0.389-0.086c-0.123,0.306-0.286,0.58-0.491,0.823s-0.435,0.446-0.69,0.608s-0.529,0.286-0.82,0.372
			c-0.291,0.085-0.588,0.128-0.891,0.128c-0.389,0-0.754-0.071-1.096-0.214s-0.641-0.36-0.896-0.651s-0.455-0.653-0.599-1.087
			c-0.145-0.434-0.217-0.946-0.217-1.538c0-0.792,0.114-1.559,0.341-2.303c0.227-0.744,0.569-1.406,1.03-1.988
			c0.461-0.582,1.036-1.046,1.727-1.395c0.691-0.348,1.5-0.522,2.429-0.522c1.058,0,1.978,0.2,2.758,0.601s1.429,0.954,1.942,1.659
			c0.515,0.706,0.899,1.541,1.154,2.503c0.256,0.963,0.384,2.003,0.384,3.119c0,0.792-0.075,1.478-0.227,2.06
			c-0.151,0.582-0.356,1.087-0.615,1.517s-0.56,0.801-0.901,1.116c-0.342,0.314-0.705,0.603-1.09,0.865
			c-0.385,0.263-0.779,0.513-1.182,0.751c-0.403,0.239-0.793,0.499-1.172,0.78c-0.377,0.281-0.731,0.599-1.063,0.951
			c-0.331,0.353-0.615,0.777-0.853,1.273c1.453-0.134,2.741-0.489,3.864-1.066c1.122-0.577,2.068-1.323,2.838-2.239
			c-0.051,0.506-0.086,1.004-0.107,1.495s-0.033,0.979-0.033,1.466c0,0.792,0.031,1.581,0.092,2.368
			c0.062,0.787,0.156,1.566,0.286,2.339c-0.899-0.172-1.831-0.3-2.795-0.386s-1.939-0.129-2.925-0.129
			c-1.008,0-1.998,0.043-2.974,0.129S28.074,65.331,27.14,65.503z"/>
		<path fill="#FFFDFA" d="M45.109,50.797c0.216,0.01,0.53,0.039,0.944,0.086c0.413,0.048,0.865,0.157,1.354,0.329
			s0.989,0.422,1.5,0.751s0.975,0.782,1.393,1.359c0.417,0.577,0.759,1.297,1.025,2.16c0.266,0.863,0.398,1.91,0.398,3.14
			c0,1.135-0.127,2.167-0.383,3.097s-0.641,1.724-1.154,2.382c-0.515,0.658-1.162,1.166-1.943,1.523
			c-0.78,0.357-1.699,0.537-2.757,0.537c-0.929,0-1.737-0.174-2.429-0.522c-0.69-0.348-1.266-0.813-1.727-1.395
			s-0.805-1.247-1.031-1.996c-0.227-0.749-0.34-1.519-0.34-2.31c0-0.582,0.072-1.089,0.217-1.523
			c0.143-0.434,0.343-0.796,0.598-1.087c0.256-0.291,0.555-0.508,0.896-0.651s0.707-0.214,1.096-0.214
			c0.302,0,0.599,0.043,0.891,0.128c0.291,0.086,0.564,0.212,0.82,0.379c0.255,0.167,0.484,0.37,0.689,0.608s0.369,0.51,0.492,0.815
			c-0.151-0.057-0.281-0.086-0.389-0.086c-0.102,0-0.199,0.031-0.297,0.093c-0.098,0.063-0.186,0.146-0.265,0.25
			s-0.142,0.227-0.188,0.365s-0.07,0.284-0.07,0.437c0,0.162,0.023,0.331,0.07,0.508c0.047,0.176,0.118,0.336,0.215,0.479
			c0.098,0.143,0.221,0.262,0.367,0.357c0.148,0.096,0.318,0.143,0.514,0.143c0.467,0,0.813-0.193,1.035-0.579
			s0.335-0.894,0.335-1.523c0-0.553-0.104-1.042-0.313-1.466s-0.482-0.782-0.82-1.073s-0.723-0.52-1.154-0.687
			s-0.869-0.277-1.312-0.329s-0.876-0.048-1.3,0.014c-0.426,0.062-0.795,0.174-1.112,0.336c0-0.029-0.001-0.186-0.005-0.472
			s-0.01-0.656-0.017-1.109c-0.007-0.453-0.019-0.97-0.032-1.552c-0.015-0.582-0.034-1.185-0.06-1.81s-0.056-1.254-0.092-1.888
			s-0.081-1.23-0.135-1.788c-0.054-0.558-0.115-1.059-0.184-1.502c-0.068-0.443-0.149-0.789-0.243-1.037
			c0.691,0.19,1.393,0.327,2.105,0.407c0.712,0.082,1.417,0.122,2.115,0.122c0.799,0,1.577-0.036,2.336-0.107
			c0.76-0.072,1.438-0.155,2.035-0.25c0.697-0.105,1.355-0.229,1.975-0.372v7.582c-0.389-0.438-0.786-0.808-1.192-1.108
			c-0.407-0.3-0.806-0.541-1.198-0.723c-0.393-0.181-0.768-0.312-1.128-0.393s-0.684-0.122-0.972-0.122h-1.09L45.109,50.797z"/>
		<path fill="#FFFDFA" d="M52.653,62.928c0-0.41,0.06-0.799,0.178-1.166s0.28-0.689,0.485-0.966
			c0.205-0.276,0.446-0.493,0.724-0.651c0.276-0.157,0.573-0.236,0.89-0.236c0.311,0,0.604,0.079,0.881,0.236
			c0.276,0.158,0.52,0.375,0.729,0.651c0.208,0.277,0.371,0.599,0.49,0.966s0.178,0.756,0.178,1.166c0,0.419-0.059,0.813-0.178,1.18
			s-0.282,0.687-0.49,0.958c-0.209,0.272-0.452,0.486-0.729,0.644c-0.277,0.157-0.57,0.236-0.881,0.236
			c-0.316,0-0.613-0.079-0.89-0.236c-0.277-0.158-0.519-0.372-0.724-0.644c-0.205-0.271-0.367-0.591-0.485-0.958
			S52.653,63.348,52.653,62.928z"/>
		<path fill="#FFFDFA" d="M67.223,54.56c0.332,0.124,0.657,0.317,0.978,0.58c0.319,0.262,0.604,0.603,0.853,1.023
			c0.248,0.419,0.447,0.92,0.599,1.502s0.228,1.254,0.228,2.017c0,0.878-0.115,1.708-0.346,2.489
			c-0.23,0.782-0.585,1.469-1.063,2.06s-1.089,1.061-1.829,1.409c-0.741,0.348-1.623,0.522-2.645,0.522s-1.902-0.174-2.645-0.522
			c-0.74-0.348-1.351-0.817-1.828-1.409c-0.479-0.591-0.834-1.278-1.064-2.06c-0.229-0.782-0.345-1.611-0.345-2.489
			c0-0.763,0.075-1.435,0.227-2.017s0.351-1.083,0.599-1.502c0.248-0.42,0.533-0.761,0.854-1.023s0.646-0.456,0.977-0.58
			c-0.252-0.019-0.508-0.174-0.767-0.465c-0.259-0.291-0.497-0.648-0.712-1.073c-0.217-0.424-0.393-0.88-0.529-1.366
			s-0.205-0.935-0.205-1.345c0-0.801,0.113-1.583,0.34-2.346s0.566-1.442,1.02-2.039c0.454-0.596,1.021-1.075,1.701-1.438
			c0.68-0.362,1.473-0.543,2.379-0.543c0.949,0,1.767,0.181,2.45,0.543s1.247,0.842,1.688,1.438c0.443,0.596,0.77,1.275,0.982,2.039
			s0.318,1.545,0.318,2.346c0,0.449-0.07,0.914-0.211,1.395c-0.14,0.481-0.32,0.93-0.539,1.345
			c-0.219,0.415-0.459,0.763-0.718,1.044C67.709,54.376,67.461,54.531,67.223,54.56z M63.004,50.597
			c0,0.267,0.029,0.532,0.092,0.794c0.061,0.263,0.138,0.518,0.231,0.766c0.093,0.248,0.2,0.489,0.318,0.722
			c0.118,0.234,0.235,0.451,0.351,0.651c0.331-0.486,0.579-0.982,0.744-1.488c0.166-0.505,0.249-0.987,0.249-1.445
			c0-0.152-0.017-0.326-0.049-0.522c-0.032-0.195-0.086-0.381-0.161-0.558c-0.076-0.176-0.179-0.324-0.309-0.443
			c-0.129-0.119-0.287-0.179-0.475-0.179s-0.346,0.06-0.475,0.179c-0.129,0.12-0.232,0.267-0.308,0.443
			c-0.075,0.177-0.13,0.363-0.162,0.558C63.02,50.271,63.004,50.445,63.004,50.597z M63.004,59.209c0,0.152,0.016,0.329,0.048,0.529
			c0.032,0.2,0.087,0.389,0.162,0.565s0.179,0.327,0.308,0.451s0.287,0.186,0.475,0.186s0.346-0.062,0.475-0.186
			c0.13-0.124,0.232-0.274,0.309-0.451c0.075-0.176,0.129-0.365,0.161-0.565c0.032-0.201,0.049-0.377,0.049-0.529
			c0-0.267-0.025-0.537-0.075-0.809c-0.051-0.271-0.121-0.529-0.211-0.772s-0.196-0.467-0.318-0.672
			c-0.123-0.205-0.252-0.379-0.389-0.522c-0.145,0.143-0.277,0.322-0.398,0.537c-0.123,0.214-0.228,0.443-0.313,0.687
			c-0.087,0.243-0.155,0.499-0.205,0.765C63.028,58.689,63.004,58.951,63.004,59.209z"/>
		<path fill="#FFFDFA" d="M70.785,62.928c0-0.41,0.059-0.799,0.178-1.166s0.281-0.689,0.486-0.966
			c0.205-0.276,0.445-0.493,0.723-0.651c0.277-0.157,0.574-0.236,0.891-0.236c0.309,0,0.602,0.079,0.879,0.236
			c0.277,0.158,0.52,0.375,0.729,0.651c0.209,0.277,0.373,0.599,0.491,0.966c0.119,0.367,0.179,0.756,0.179,1.166
			c0,0.419-0.06,0.813-0.179,1.18c-0.118,0.367-0.282,0.687-0.491,0.958c-0.209,0.272-0.451,0.486-0.729,0.644
			c-0.277,0.157-0.57,0.236-0.879,0.236c-0.316,0-0.613-0.079-0.891-0.236c-0.277-0.158-0.518-0.372-0.723-0.644
			c-0.205-0.271-0.367-0.591-0.486-0.958S70.785,63.348,70.785,62.928z"/>
		<path fill="#FFFDFA" d="M83.477,57.692c-0.064,0.086-0.158,0.177-0.279,0.272c-0.123,0.095-0.264,0.184-0.422,0.265
			s-0.334,0.148-0.529,0.2c-0.193,0.053-0.395,0.079-0.604,0.079c-0.425,0-0.854-0.05-1.29-0.15c-0.435-0.1-0.854-0.262-1.257-0.486
			c-0.403-0.224-0.783-0.512-1.139-0.865c-0.356-0.353-0.666-0.784-0.928-1.294c-0.264-0.51-0.471-1.104-0.621-1.781
			c-0.151-0.677-0.227-1.445-0.227-2.303c0-1.259,0.146-2.37,0.442-3.333c0.295-0.963,0.706-1.769,1.235-2.417
			s1.158-1.138,1.889-1.466c0.73-0.329,1.531-0.494,2.402-0.494c0.92,0,1.748,0.203,2.481,0.608s1.358,1.014,1.872,1.824
			c0.516,0.811,0.908,1.822,1.182,3.033c0.273,1.211,0.41,2.623,0.41,4.234c0,0.925-0.029,1.874-0.091,2.847
			s-0.179,1.924-0.351,2.854c-0.173,0.93-0.416,1.808-0.729,2.632c-0.313,0.825-0.724,1.545-1.23,2.16
			c-0.508,0.615-1.121,1.104-1.84,1.466c-0.721,0.362-1.576,0.544-2.569,0.544c-0.575,0-1.126-0.1-1.651-0.301
			c-0.525-0.2-0.987-0.479-1.387-0.836c-0.399-0.358-0.718-0.787-0.955-1.288s-0.355-1.056-0.355-1.667
			c0-0.458,0.071-0.887,0.215-1.288c0.145-0.4,0.336-0.746,0.578-1.037c0.24-0.291,0.516-0.52,0.825-0.687
			c0.31-0.167,0.63-0.25,0.96-0.25c0.426,0,0.836,0.148,1.23,0.444c0.396,0.295,0.745,0.777,1.047,1.445
			c-0.165-0.048-0.313-0.072-0.441-0.072c-0.145,0-0.25,0.062-0.318,0.186s-0.104,0.257-0.104,0.4c0,0.153,0.059,0.298,0.174,0.437
			c0.114,0.138,0.295,0.208,0.539,0.208c0.389,0,0.703-0.129,0.944-0.386c0.241-0.258,0.428-0.587,0.562-0.987
			c0.133-0.4,0.221-0.844,0.264-1.33C83.455,58.622,83.477,58.15,83.477,57.692z M80.887,51.513c0,0.811,0.104,1.447,0.313,1.91
			c0.209,0.463,0.541,0.694,0.994,0.694c0.18,0,0.348-0.06,0.507-0.179c0.158-0.119,0.295-0.293,0.41-0.522
			c0.114-0.229,0.206-0.503,0.274-0.823c0.068-0.319,0.107-0.679,0.113-1.08c0.008-0.362-0.02-0.708-0.08-1.037
			c-0.062-0.329-0.148-0.62-0.26-0.873c-0.111-0.252-0.25-0.453-0.415-0.601s-0.349-0.222-0.55-0.222
			c-0.209,0-0.395,0.071-0.557,0.214s-0.299,0.339-0.41,0.586c-0.111,0.248-0.195,0.539-0.254,0.873
			C80.916,50.788,80.887,51.141,80.887,51.513z"/>
		<path fill="#FFFDFA" d="M98.291,56.48c0,0.256-0.039,0.487-0.117,0.692c-0.076,0.205-0.181,0.38-0.312,0.524
			c-0.13,0.144-0.282,0.256-0.456,0.336c-0.175,0.08-0.358,0.12-0.552,0.12c-0.222,0-0.412-0.035-0.569-0.106
			c-0.157-0.07-0.29-0.162-0.398-0.274c-0.109-0.112-0.195-0.237-0.258-0.375s-0.112-0.271-0.148-0.399
			c-0.036-0.128-0.06-0.247-0.068-0.356c-0.01-0.108-0.016-0.192-0.016-0.25c0.044,0.109,0.1,0.176,0.168,0.202
			c0.066,0.026,0.12,0.039,0.158,0.039c0.111,0,0.191-0.039,0.24-0.115c0.048-0.077,0.072-0.157,0.072-0.241
			c0-0.051-0.01-0.109-0.029-0.173s-0.053-0.123-0.102-0.178c-0.048-0.054-0.111-0.101-0.188-0.139
			c-0.077-0.039-0.174-0.058-0.29-0.058c-0.072,0-0.15,0.02-0.232,0.058c-0.082,0.038-0.155,0.098-0.221,0.178
			c-0.064,0.08-0.119,0.179-0.163,0.298s-0.065,0.255-0.065,0.409c0,0.288,0.056,0.532,0.167,0.73
			c0.111,0.198,0.257,0.373,0.438,0.523c0.182,0.151,0.387,0.29,0.617,0.418c0.229,0.128,0.465,0.261,0.707,0.399
			c0.241,0.138,0.477,0.292,0.707,0.461c0.229,0.17,0.435,0.376,0.615,0.62c0.182,0.244,0.328,0.535,0.439,0.875
			c0.111,0.34,0.166,0.744,0.166,1.211c0,0.596-0.092,1.134-0.275,1.615c-0.184,0.48-0.429,0.892-0.735,1.235
			c-0.308,0.343-0.663,0.605-1.069,0.788s-0.834,0.274-1.284,0.274c-0.411,0-0.8-0.074-1.167-0.221s-0.689-0.352-0.965-0.615
			s-0.494-0.574-0.656-0.933s-0.243-0.746-0.243-1.163c0-0.313,0.039-0.587,0.116-0.822c0.077-0.234,0.186-0.428,0.322-0.582
			c0.139-0.154,0.301-0.269,0.486-0.346c0.186-0.077,0.388-0.115,0.605-0.115c0.16,0,0.319,0.022,0.479,0.067
			c0.16,0.045,0.31,0.112,0.449,0.202c0.141,0.09,0.266,0.199,0.377,0.327c0.111,0.128,0.201,0.275,0.27,0.442
			c-0.039-0.013-0.076-0.022-0.113-0.029c-0.036-0.006-0.073-0.009-0.112-0.009c-0.106,0-0.189,0.037-0.25,0.11
			s-0.091,0.194-0.091,0.36c0,0.18,0.056,0.33,0.167,0.452c0.111,0.122,0.234,0.183,0.37,0.183c0.077,0,0.149-0.022,0.217-0.067
			c0.068-0.045,0.126-0.104,0.174-0.178c0.049-0.074,0.086-0.156,0.113-0.245c0.026-0.09,0.039-0.183,0.039-0.279
			c0-0.167-0.042-0.346-0.127-0.539c-0.084-0.192-0.203-0.352-0.358-0.48c-0.305-0.25-0.593-0.464-0.862-0.644
			c-0.271-0.179-0.521-0.349-0.748-0.509c-0.227-0.16-0.431-0.32-0.612-0.48c-0.181-0.16-0.335-0.348-0.46-0.563
			c-0.126-0.214-0.223-0.467-0.291-0.759c-0.067-0.292-0.102-0.646-0.102-1.062c0-0.493,0.074-0.95,0.222-1.37
			c0.147-0.419,0.358-0.783,0.635-1.091c0.275-0.308,0.614-0.549,1.015-0.726c0.402-0.176,0.855-0.265,1.363-0.265
			c0.518,0,0.954,0.081,1.31,0.24c0.354,0.161,0.643,0.365,0.862,0.615c0.221,0.25,0.379,0.529,0.476,0.836
			S98.291,56.179,98.291,56.48z"/>
		<path fill="#FFFDFA" d="M106.564,65.352c-0.092-0.013-0.198-0.026-0.318-0.039c-0.102-0.013-0.225-0.022-0.367-0.029
			s-0.299-0.01-0.467-0.01c-0.242,0-0.508,0.013-0.795,0.039c-0.287,0.025-0.584,0.074-0.889,0.144l0.029-2.701
			c-0.184,0.955-0.453,1.691-0.809,2.21s-0.771,0.779-1.25,0.779c-0.15,0-0.32-0.026-0.508-0.077
			c-0.189-0.051-0.381-0.149-0.577-0.293s-0.387-0.344-0.573-0.601c-0.186-0.256-0.352-0.588-0.496-0.995
			c-0.145-0.407-0.262-0.9-0.348-1.48c-0.088-0.58-0.131-1.267-0.131-2.062c0-1.076,0.082-1.998,0.246-2.763
			s0.375-1.392,0.631-1.879s0.539-0.843,0.849-1.067s0.612-0.336,0.907-0.336c0.25,0,0.479,0.046,0.685,0.139
			c0.206,0.093,0.388,0.211,0.548,0.356c0.159,0.144,0.297,0.306,0.413,0.485s0.21,0.359,0.282,0.538
			c-0.014-0.218-0.035-0.45-0.064-0.697s-0.063-0.501-0.102-0.764c0.314,0.083,0.633,0.138,0.957,0.164
			c0.324,0.025,0.623,0.038,0.899,0.038c0.329,0,0.595-0.009,0.798-0.029c0.115-0.006,0.222-0.016,0.318-0.029
			c-0.053,0.321-0.102,0.679-0.145,1.077s-0.081,0.822-0.113,1.273c-0.031,0.452-0.055,0.926-0.072,1.422
			c-0.017,0.497-0.025,1.004-0.025,1.523c0,0.968,0.037,1.938,0.109,2.913S106.386,64.493,106.564,65.352z M103.584,59.844v-1.557
			c0-0.173-0.008-0.35-0.021-0.529c-0.015-0.179-0.047-0.343-0.098-0.49s-0.125-0.268-0.222-0.36s-0.228-0.14-0.392-0.14
			c-0.174,0-0.318,0.081-0.432,0.24c-0.113,0.161-0.205,0.38-0.275,0.659s-0.119,0.609-0.145,0.99
			c-0.027,0.381-0.041,0.796-0.041,1.245c0,0.256,0.014,0.516,0.041,0.778c0.025,0.263,0.07,0.501,0.134,0.716
			c0.063,0.215,0.147,0.39,0.254,0.524c0.106,0.135,0.237,0.202,0.392,0.202c0.174,0,0.314-0.08,0.42-0.24
			c0.107-0.16,0.188-0.359,0.243-0.596c0.056-0.237,0.093-0.485,0.112-0.745C103.574,60.281,103.584,60.049,103.584,59.844z"/>
		<path fill="#FFFDFA" d="M112.968,53.548c-0.038,0.289-0.066,0.57-0.083,0.846c-0.018,0.276-0.025,0.558-0.025,0.846
			c0,0.275,0.008,0.552,0.025,0.831c0.017,0.279,0.045,0.559,0.083,0.841c-0.231-0.16-0.495-0.279-0.786-0.356
			c-0.293-0.077-0.592-0.138-0.896-0.183v0.827c0,0.724,0.01,1.456,0.029,2.196s0.051,1.458,0.094,2.153
			c0.044,0.695,0.101,1.354,0.171,1.976c0.069,0.622,0.155,1.172,0.257,1.653c-0.082-0.006-0.178-0.016-0.289-0.029
			c-0.098-0.006-0.211-0.013-0.342-0.019c-0.13-0.006-0.279-0.01-0.449-0.01c-0.314,0-0.677,0.018-1.088,0.053
			c-0.41,0.036-0.855,0.101-1.334,0.197c0.164-1.25,0.281-2.548,0.352-3.897c0.07-1.349,0.105-2.667,0.105-3.955v-1.144
			c-0.329,0.032-0.654,0.082-0.976,0.149c-0.321,0.067-0.625,0.149-0.91,0.245c0.02-0.07,0.036-0.163,0.051-0.278
			c0.015-0.116,0.025-0.234,0.032-0.356c0.008-0.122,0.012-0.24,0.016-0.355c0.002-0.115,0.003-0.211,0.003-0.289
			c0-0.327-0.01-0.65-0.028-0.971c-0.02-0.32-0.044-0.644-0.073-0.971c0.231,0.128,0.508,0.232,0.827,0.313
			c0.318,0.08,0.643,0.139,0.971,0.178c-0.028-0.558-0.063-1.073-0.102-1.547c-0.038-0.474-0.084-0.904-0.137-1.288
			c0.391,0.09,0.754,0.151,1.088,0.183c0.333,0.032,0.635,0.048,0.906,0.048c0.174,0,0.33-0.005,0.467-0.015
			c0.139-0.01,0.256-0.021,0.353-0.034c0.116-0.013,0.218-0.029,0.304-0.048c-0.053,0.308-0.098,0.69-0.133,1.148
			c-0.037,0.458-0.072,0.969-0.105,1.533c0.318-0.045,0.619-0.106,0.902-0.183C112.529,53.76,112.77,53.664,112.968,53.548z"/>
		<path fill="#FFFDFA" d="M126.506,44.646c-1.238,3.338-2.29,6.723-3.157,10.156s-1.573,6.972-2.12,10.614
			c-0.252-0.057-0.535-0.105-0.848-0.143s-0.639-0.071-0.977-0.1c-0.338-0.028-0.68-0.047-1.025-0.057
			c-0.346-0.009-0.673-0.014-0.982-0.014h-0.787c0.395-0.849,0.783-1.807,1.165-2.875c0.382-1.068,0.748-2.193,1.101-3.376
			c0.353-1.182,0.689-2.403,1.01-3.662s0.611-2.503,0.873-3.733c0.264-1.23,0.494-2.425,0.691-3.583s0.357-2.233,0.48-3.226
			c0.129,0.038,0.287,0.069,0.475,0.093c0.188,0.024,0.379,0.043,0.578,0.058c0.197,0.014,0.39,0.024,0.576,0.028
			c0.188,0.005,0.346,0.007,0.476,0.007c0.173,0,0.365-0.005,0.577-0.014c0.213-0.01,0.432-0.024,0.658-0.043
			s0.446-0.041,0.658-0.064C126.141,44.687,126.333,44.666,126.506,44.646z"/>
		<path fill="#FFFDFA" d="M138.755,65.131c-0.151-0.019-0.32-0.038-0.507-0.057c-0.166-0.019-0.363-0.033-0.594-0.043
			c-0.23-0.009-0.496-0.014-0.799-0.014c-0.583,0-1.26,0.034-2.029,0.1c-0.77,0.067-1.604,0.195-2.504,0.386
			c0.158-0.429,0.295-0.973,0.41-1.631c0.115-0.658,0.211-1.361,0.286-2.11s0.136-1.509,0.179-2.282s0.075-1.492,0.097-2.16
			c0.021-0.667,0.034-1.244,0.038-1.73c0.003-0.486,0.005-0.82,0.005-1.001c0-0.029-0.002-0.146-0.005-0.351
			c-0.004-0.205-0.01-0.474-0.017-0.808c-0.007-0.333-0.017-0.717-0.026-1.151c-0.012-0.434-0.023-0.894-0.039-1.38
			c-0.395-0.105-0.789-0.201-1.182-0.286c-0.392-0.086-0.75-0.158-1.073-0.215c-0.374-0.066-0.733-0.119-1.079-0.157
			c0.496-0.62,0.902-1.216,1.219-1.788s0.57-1.111,0.762-1.617c0.19-0.505,0.334-0.968,0.432-1.387
			c0.098-0.42,0.174-0.792,0.232-1.116c0.727,0.171,1.394,0.286,2.002,0.343c0.607,0.057,1.156,0.085,1.646,0.085
			c0.323,0,0.615-0.009,0.874-0.028c0.26-0.019,0.479-0.038,0.658-0.057c0.209-0.029,0.393-0.058,0.551-0.086
			c-0.086,0.534-0.162,1.128-0.227,1.781c-0.064,0.653-0.123,1.35-0.173,2.089c-0.05,0.739-0.089,1.514-0.113,2.324
			c-0.025,0.811-0.038,1.645-0.038,2.503c0,0.992,0.018,2,0.055,3.025c0.035,1.025,0.095,2.043,0.178,3.054
			c0.082,1.011,0.188,2.002,0.313,2.975C138.411,63.314,138.568,64.244,138.755,65.131z"/>
		<path fill="#FFFDFA" d="M152.213,55.347c0,0.839-0.052,1.681-0.156,2.524c-0.104,0.844-0.263,1.655-0.475,2.432
			c-0.213,0.777-0.486,1.502-0.82,2.174s-0.73,1.256-1.188,1.752c-0.457,0.496-0.98,0.887-1.57,1.173s-1.248,0.429-1.975,0.429
			s-1.382-0.129-1.965-0.386c-0.582-0.258-1.104-0.618-1.564-1.08s-0.856-1.018-1.188-1.667s-0.604-1.361-0.82-2.139
			c-0.216-0.777-0.376-1.607-0.48-2.489c-0.104-0.882-0.156-1.791-0.156-2.725c0-1.688,0.16-3.226,0.48-4.613
			c0.32-1.388,0.76-2.577,1.316-3.569c0.558-0.992,1.213-1.762,1.965-2.31s1.556-0.823,2.412-0.823c0.957,0,1.816,0.248,2.579,0.744
			c0.763,0.496,1.41,1.223,1.942,2.181c0.533,0.958,0.943,2.141,1.23,3.548C152.069,51.911,152.213,53.525,152.213,55.347z
			 M147.842,54.703c0-0.82-0.045-1.554-0.135-2.203s-0.215-1.199-0.377-1.652c-0.162-0.453-0.36-0.799-0.594-1.037
			c-0.234-0.238-0.495-0.357-0.783-0.357c-0.273,0-0.523,0.15-0.75,0.45c-0.227,0.301-0.42,0.696-0.582,1.188
			s-0.29,1.051-0.384,1.681c-0.093,0.629-0.14,1.273-0.14,1.931c0,0.763,0.037,1.455,0.113,2.074c0.075,0.62,0.188,1.149,0.34,1.588
			c0.15,0.439,0.344,0.777,0.577,1.016c0.233,0.239,0.509,0.358,0.825,0.358c0.324,0,0.604-0.117,0.837-0.351
			s0.43-0.567,0.588-1.001c0.158-0.434,0.275-0.963,0.351-1.588C147.805,56.174,147.842,55.475,147.842,54.703z"/>
		<path fill="#FFFDFA" d="M162.407,56.48c0,0.256-0.039,0.487-0.116,0.692s-0.182,0.38-0.313,0.524
			c-0.13,0.144-0.282,0.256-0.456,0.336c-0.175,0.08-0.358,0.12-0.552,0.12c-0.222,0-0.412-0.035-0.568-0.106
			c-0.158-0.07-0.291-0.162-0.399-0.274c-0.108-0.112-0.194-0.237-0.257-0.375c-0.063-0.138-0.113-0.271-0.148-0.399
			c-0.037-0.128-0.061-0.247-0.069-0.356c-0.01-0.108-0.015-0.192-0.015-0.25c0.043,0.109,0.1,0.176,0.167,0.202
			c0.067,0.026,0.12,0.039,0.159,0.039c0.111,0,0.191-0.039,0.239-0.115c0.048-0.077,0.073-0.157,0.073-0.241
			c0-0.051-0.01-0.109-0.029-0.173s-0.054-0.123-0.102-0.178c-0.049-0.054-0.111-0.101-0.189-0.139
			c-0.076-0.039-0.174-0.058-0.289-0.058c-0.072,0-0.15,0.02-0.232,0.058c-0.082,0.038-0.156,0.098-0.221,0.178
			c-0.065,0.08-0.12,0.179-0.164,0.298c-0.043,0.119-0.064,0.255-0.064,0.409c0,0.288,0.055,0.532,0.166,0.73
			c0.111,0.198,0.258,0.373,0.439,0.523c0.182,0.151,0.387,0.29,0.616,0.418c0.229,0.128,0.466,0.261,0.707,0.399
			c0.241,0.138,0.478,0.292,0.707,0.461c0.229,0.17,0.435,0.376,0.616,0.62s0.328,0.535,0.439,0.875
			c0.11,0.34,0.166,0.744,0.166,1.211c0,0.596-0.092,1.134-0.275,1.615c-0.184,0.48-0.43,0.892-0.736,1.235
			s-0.663,0.605-1.069,0.788s-0.834,0.274-1.284,0.274c-0.41,0-0.799-0.074-1.167-0.221c-0.367-0.147-0.688-0.352-0.964-0.615
			s-0.494-0.574-0.656-0.933s-0.244-0.746-0.244-1.163c0-0.313,0.039-0.587,0.117-0.822c0.076-0.234,0.185-0.428,0.322-0.582
			s0.3-0.269,0.486-0.346c0.186-0.077,0.387-0.115,0.605-0.115c0.159,0,0.318,0.022,0.479,0.067
			c0.159,0.045,0.309,0.112,0.449,0.202s0.266,0.199,0.377,0.327c0.111,0.128,0.201,0.275,0.269,0.442
			c-0.039-0.013-0.076-0.022-0.112-0.029c-0.037-0.006-0.074-0.009-0.113-0.009c-0.105,0-0.189,0.037-0.25,0.11
			s-0.09,0.194-0.09,0.36c0,0.18,0.055,0.33,0.166,0.452c0.111,0.122,0.234,0.183,0.37,0.183c0.077,0,0.149-0.022,0.218-0.067
			c0.067-0.045,0.125-0.104,0.174-0.178s0.086-0.156,0.113-0.245c0.025-0.09,0.039-0.183,0.039-0.279
			c0-0.167-0.043-0.346-0.127-0.539c-0.084-0.192-0.204-0.352-0.359-0.48c-0.305-0.25-0.592-0.464-0.862-0.644
			c-0.271-0.179-0.521-0.349-0.747-0.509s-0.432-0.32-0.613-0.48c-0.181-0.16-0.334-0.348-0.46-0.563
			c-0.126-0.214-0.222-0.467-0.29-0.759c-0.068-0.292-0.102-0.646-0.102-1.062c0-0.493,0.074-0.95,0.221-1.37
			c0.148-0.419,0.359-0.783,0.635-1.091s0.614-0.549,1.016-0.726s0.855-0.265,1.363-0.265c0.518,0,0.953,0.081,1.309,0.24
			c0.355,0.161,0.643,0.365,0.863,0.615c0.22,0.25,0.379,0.529,0.475,0.836C162.359,55.875,162.407,56.179,162.407,56.48z"/>
		<path fill="#FFFDFA" d="M169.746,54.135c-0.044,0.288-0.084,0.625-0.12,1.009c-0.036,0.384-0.067,0.799-0.095,1.245
			c-0.026,0.445-0.047,0.91-0.061,1.394c-0.016,0.484-0.022,0.966-0.022,1.447c0,0.16,0.003,0.319,0.007,0.476
			c0.006,0.157,0.008,0.309,0.008,0.457c0,0.314-0.014,0.669-0.04,1.067s-0.079,0.803-0.159,1.216s-0.189,0.819-0.33,1.216
			c-0.141,0.397-0.325,0.75-0.555,1.057c-0.23,0.308-0.51,0.556-0.838,0.745s-0.718,0.284-1.168,0.284
			c-0.387,0-0.729-0.067-1.025-0.202c-0.297-0.134-0.557-0.319-0.775-0.553c-0.221-0.233-0.406-0.511-0.555-0.831
			c-0.15-0.32-0.271-0.665-0.363-1.033c-0.092-0.369-0.158-0.755-0.199-1.158c-0.041-0.404-0.063-0.804-0.063-1.202
			c0-0.096,0.002-0.155,0.004-0.178c0.003-0.022,0.004-0.037,0.004-0.043c0-0.006,0.002-0.018,0.008-0.034
			c0.004-0.016,0.007-0.065,0.007-0.149c0-0.083,0.001-0.214,0.003-0.394c0.003-0.179,0.004-0.432,0.004-0.759
			c0-0.384-0.004-0.818-0.014-1.302s-0.031-0.958-0.063-1.422c-0.031-0.465-0.076-0.886-0.134-1.264
			c-0.058-0.378-0.133-0.653-0.225-0.827c0.392,0.09,0.76,0.151,1.105,0.183c0.346,0.032,0.661,0.048,0.946,0.048
			c0.189,0,0.359-0.005,0.512-0.015c0.152-0.009,0.283-0.021,0.395-0.034c0.126-0.013,0.24-0.029,0.342-0.048
			c-0.098,0.628-0.19,1.341-0.279,2.139c-0.09,0.798-0.135,1.712-0.135,2.744c0,0.237,0.009,0.484,0.025,0.74
			c0.018,0.256,0.047,0.492,0.091,0.707c0.044,0.215,0.103,0.391,0.178,0.529s0.171,0.207,0.286,0.207
			c0.146,0,0.259-0.064,0.342-0.192c0.082-0.128,0.143-0.296,0.184-0.504s0.066-0.44,0.073-0.697s0.011-0.513,0.011-0.769
			c-0.005-0.833-0.024-1.611-0.059-2.335c-0.014-0.308-0.032-0.619-0.054-0.933c-0.022-0.314-0.048-0.61-0.076-0.889
			c-0.028-0.278-0.063-0.528-0.102-0.75s-0.082-0.396-0.13-0.524c0.391,0.09,0.754,0.151,1.087,0.183
			c0.334,0.032,0.632,0.048,0.892,0.048c0.175,0,0.33-0.005,0.469-0.015c0.137-0.01,0.254-0.021,0.352-0.034
			C169.557,54.17,169.658,54.154,169.746,54.135z"/>
		<path fill="#FFFDFA" d="M177.81,65.409c-0.149-0.032-0.314-0.053-0.493-0.063c-0.179-0.01-0.365-0.015-0.559-0.015
			c-0.232,0-0.467,0.008-0.707,0.024c-0.238,0.016-0.473,0.037-0.699,0.063c-0.228,0.026-0.442,0.055-0.646,0.087
			c-0.203,0.032-0.38,0.061-0.529,0.086c0.208-0.929,0.368-1.922,0.481-2.979c0.114-1.058,0.171-2.23,0.171-3.518
			c0-0.096-0.001-0.224-0.003-0.384c-0.003-0.16-0.01-0.333-0.019-0.519c-0.01-0.186-0.025-0.374-0.048-0.563
			c-0.021-0.189-0.053-0.36-0.094-0.514s-0.094-0.279-0.156-0.375s-0.141-0.144-0.232-0.144c-0.135,0-0.267,0.064-0.395,0.192
			c-0.128,0.128-0.242,0.298-0.341,0.509s-0.179,0.455-0.239,0.73s-0.091,0.561-0.091,0.855c0,0.532,0.01,1.072,0.029,1.62
			c0.019,0.548,0.051,1.091,0.095,1.629c0.043,0.539,0.099,1.065,0.166,1.581c0.068,0.516,0.152,1.004,0.254,1.466
			c-0.082-0.006-0.179-0.016-0.29-0.029c-0.097-0.006-0.21-0.013-0.341-0.019s-0.28-0.01-0.449-0.01
			c-0.314,0-0.678,0.018-1.088,0.053c-0.411,0.036-0.855,0.101-1.334,0.197c0.058-0.359,0.108-0.798,0.152-1.317
			c0.043-0.519,0.079-1.083,0.108-1.691c0.028-0.609,0.052-1.245,0.069-1.908c0.016-0.663,0.025-1.318,0.025-1.965
			c0-0.48-0.006-0.952-0.016-1.413s-0.022-0.897-0.039-1.307c-0.018-0.41-0.04-0.788-0.069-1.134
			c-0.028-0.346-0.063-0.644-0.102-0.894c0.392,0.09,0.755,0.152,1.088,0.188s0.636,0.053,0.906,0.053
			c0.175,0,0.33-0.005,0.468-0.015c0.138-0.009,0.255-0.021,0.352-0.034c0.116-0.019,0.218-0.038,0.305-0.058
			c-0.029,0.199-0.057,0.41-0.083,0.635c-0.026,0.224-0.052,0.468-0.076,0.73c0.159-0.27,0.329-0.505,0.507-0.707
			c0.18-0.202,0.359-0.37,0.541-0.505c0.182-0.134,0.361-0.235,0.54-0.303s0.349-0.101,0.508-0.101c0.349,0,0.649,0.094,0.903,0.283
			c0.253,0.189,0.463,0.485,0.631,0.889c0.166,0.404,0.291,0.919,0.373,1.547c0.082,0.628,0.123,1.381,0.123,2.259
			c0,0.603,0.001,1.214,0.004,1.836c0.002,0.622,0.014,1.23,0.032,1.826c0.02,0.596,0.054,1.162,0.102,1.696
			C177.654,64.498,177.723,64.98,177.81,65.409z"/>
		<path fill="#FFFDFA" d="M191.5,44.646c-1.238,3.338-2.29,6.723-3.157,10.156s-1.573,6.972-2.12,10.614
			c-0.252-0.057-0.535-0.105-0.848-0.143s-0.639-0.071-0.977-0.1c-0.338-0.028-0.68-0.047-1.025-0.057
			c-0.346-0.009-0.673-0.014-0.982-0.014h-0.787c0.395-0.849,0.783-1.807,1.165-2.875c0.382-1.068,0.748-2.193,1.101-3.376
			c0.353-1.182,0.689-2.403,1.01-3.662s0.611-2.503,0.873-3.733c0.264-1.23,0.494-2.425,0.691-3.583s0.357-2.233,0.48-3.226
			c0.129,0.038,0.287,0.069,0.475,0.093c0.188,0.024,0.379,0.043,0.578,0.058c0.197,0.014,0.39,0.024,0.576,0.028
			c0.188,0.005,0.346,0.007,0.476,0.007c0.173,0,0.365-0.005,0.577-0.014c0.213-0.01,0.432-0.024,0.658-0.043
			s0.446-0.041,0.658-0.064C191.135,44.687,191.327,44.666,191.5,44.646z"/>
		<path fill="#FFFDFA" d="M203.749,65.131c-0.151-0.019-0.32-0.038-0.507-0.057c-0.166-0.019-0.363-0.033-0.594-0.043
			c-0.23-0.009-0.496-0.014-0.799-0.014c-0.583,0-1.26,0.034-2.029,0.1c-0.77,0.067-1.604,0.195-2.504,0.386
			c0.158-0.429,0.295-0.973,0.41-1.631c0.115-0.658,0.211-1.361,0.286-2.11s0.136-1.509,0.179-2.282s0.075-1.492,0.097-2.16
			c0.021-0.667,0.034-1.244,0.038-1.73c0.003-0.486,0.005-0.82,0.005-1.001c0-0.029-0.002-0.146-0.005-0.351
			c-0.004-0.205-0.01-0.474-0.017-0.808c-0.007-0.333-0.017-0.717-0.026-1.151c-0.012-0.434-0.023-0.894-0.039-1.38
			c-0.395-0.105-0.789-0.201-1.182-0.286c-0.392-0.086-0.75-0.158-1.073-0.215c-0.374-0.066-0.733-0.119-1.079-0.157
			c0.496-0.62,0.902-1.216,1.219-1.788s0.57-1.111,0.762-1.617c0.19-0.505,0.334-0.968,0.432-1.387
			c0.098-0.42,0.174-0.792,0.232-1.116c0.727,0.171,1.394,0.286,2.002,0.343c0.607,0.057,1.156,0.085,1.646,0.085
			c0.323,0,0.615-0.009,0.874-0.028c0.26-0.019,0.479-0.038,0.658-0.057c0.209-0.029,0.393-0.058,0.551-0.086
			c-0.086,0.534-0.162,1.128-0.227,1.781c-0.064,0.653-0.123,1.35-0.173,2.089c-0.05,0.739-0.089,1.514-0.113,2.324
			c-0.025,0.811-0.038,1.645-0.038,2.503c0,0.992,0.018,2,0.055,3.025c0.035,1.025,0.095,2.043,0.178,3.054
			c0.082,1.011,0.188,2.002,0.313,2.975C203.405,63.314,203.563,64.244,203.749,65.131z"/>
		<path fill="#FFFDFA" d="M212.966,65.131c-0.151-0.019-0.32-0.038-0.507-0.057c-0.166-0.019-0.363-0.033-0.594-0.043
			c-0.23-0.009-0.496-0.014-0.799-0.014c-0.583,0-1.26,0.034-2.029,0.1c-0.77,0.067-1.604,0.195-2.504,0.386
			c0.158-0.429,0.295-0.973,0.41-1.631c0.115-0.658,0.211-1.361,0.286-2.11s0.136-1.509,0.179-2.282s0.075-1.492,0.097-2.16
			c0.021-0.667,0.034-1.244,0.038-1.73c0.003-0.486,0.005-0.82,0.005-1.001c0-0.029-0.002-0.146-0.005-0.351
			c-0.004-0.205-0.01-0.474-0.017-0.808c-0.007-0.333-0.017-0.717-0.026-1.151c-0.012-0.434-0.023-0.894-0.039-1.38
			c-0.395-0.105-0.789-0.201-1.182-0.286c-0.392-0.086-0.75-0.158-1.073-0.215c-0.374-0.066-0.733-0.119-1.079-0.157
			c0.496-0.62,0.902-1.216,1.219-1.788s0.57-1.111,0.762-1.617c0.19-0.505,0.334-0.968,0.432-1.387
			c0.098-0.42,0.174-0.792,0.232-1.116c0.727,0.171,1.394,0.286,2.002,0.343c0.607,0.057,1.156,0.085,1.646,0.085
			c0.323,0,0.615-0.009,0.874-0.028c0.26-0.019,0.479-0.038,0.658-0.057c0.209-0.029,0.393-0.058,0.551-0.086
			c-0.086,0.534-0.162,1.128-0.227,1.781c-0.064,0.653-0.123,1.35-0.173,2.089c-0.05,0.739-0.089,1.514-0.113,2.324
			c-0.025,0.811-0.038,1.645-0.038,2.503c0,0.992,0.018,2,0.055,3.025c0.035,1.025,0.095,2.043,0.178,3.054
			c0.082,1.011,0.188,2.002,0.313,2.975C212.622,63.314,212.779,64.244,212.966,65.131z"/>
		<path fill="#FFFDFA" d="M227.91,65.409c-0.15-0.032-0.309-0.053-0.475-0.063c-0.167-0.01-0.34-0.015-0.52-0.015
			c-0.217,0-0.435,0.008-0.652,0.024c-0.217,0.016-0.43,0.037-0.638,0.063c-0.208,0.026-0.406,0.055-0.595,0.087
			c-0.188,0.032-0.357,0.061-0.508,0.086c0.063-0.327,0.119-0.729,0.17-1.207c0.051-0.477,0.094-1.001,0.127-1.571
			c0.035-0.57,0.06-1.171,0.076-1.802c0.018-0.631,0.025-1.27,0.025-1.917c0-0.096,0-0.224-0.003-0.384s-0.009-0.333-0.019-0.519
			c-0.01-0.186-0.025-0.374-0.047-0.563s-0.053-0.36-0.094-0.514s-0.092-0.279-0.152-0.375s-0.137-0.144-0.229-0.144
			c-0.098,0-0.191,0.08-0.283,0.24s-0.182,0.375-0.268,0.644c0.014,0.359,0.025,0.783,0.035,1.273s0.018,1.001,0.022,1.533
			s0.009,1.057,0.011,1.576s0.006,0.984,0.011,1.394c0.005,0.41,0.01,0.742,0.015,0.995c0.005,0.253,0.012,0.379,0.021,0.379
			c-0.217-0.044-0.417-0.08-0.598-0.105c-0.182-0.026-0.364-0.039-0.548-0.039c-0.241,0-0.503,0.026-0.783,0.077
			c-0.28,0.052-0.616,0.132-1.008,0.241c0.063-0.609,0.12-1.237,0.174-1.884c0.044-0.557,0.085-1.172,0.123-1.845
			c0.039-0.673,0.058-1.333,0.058-1.98c0-0.096,0-0.224-0.003-0.384s-0.009-0.333-0.019-0.519c-0.01-0.186-0.025-0.374-0.047-0.563
			s-0.053-0.36-0.094-0.514s-0.094-0.279-0.156-0.375s-0.141-0.144-0.232-0.144c-0.154,0-0.281,0.06-0.381,0.178
			c-0.099,0.119-0.178,0.277-0.235,0.476s-0.098,0.428-0.12,0.687c-0.021,0.26-0.032,0.534-0.032,0.822
			c0,0.545,0.01,1.096,0.029,1.653c0.019,0.557,0.051,1.11,0.095,1.658c0.043,0.548,0.099,1.085,0.166,1.61
			c0.068,0.526,0.152,1.025,0.254,1.5c-0.082-0.006-0.179-0.016-0.29-0.029c-0.097-0.006-0.21-0.013-0.341-0.019
			s-0.28-0.01-0.449-0.01c-0.314,0-0.678,0.018-1.088,0.053c-0.411,0.036-0.855,0.101-1.334,0.197
			c0.058-0.359,0.108-0.798,0.152-1.317c0.043-0.519,0.079-1.083,0.108-1.691c0.028-0.609,0.052-1.245,0.069-1.908
			c0.016-0.663,0.025-1.318,0.025-1.965c0-0.48-0.006-0.952-0.016-1.413s-0.022-0.897-0.039-1.307
			c-0.018-0.41-0.04-0.788-0.069-1.134c-0.028-0.346-0.063-0.644-0.102-0.894c0.392,0.09,0.755,0.152,1.088,0.188
			s0.636,0.053,0.906,0.053c0.175,0,0.33-0.005,0.468-0.015c0.138-0.009,0.255-0.021,0.352-0.034
			c0.116-0.019,0.218-0.038,0.305-0.058c-0.029,0.167-0.055,0.345-0.076,0.534s-0.045,0.393-0.068,0.61
			c0.271-0.461,0.561-0.809,0.869-1.043c0.311-0.234,0.615-0.351,0.914-0.351c0.416,0,0.756,0.136,1.02,0.408
			c0.264,0.272,0.463,0.707,0.598,1.302c0.285-0.577,0.599-1.006,0.939-1.288c0.341-0.282,0.676-0.423,1.004-0.423
			c0.349,0,0.659,0.094,0.932,0.283c0.273,0.189,0.502,0.485,0.686,0.889s0.324,0.919,0.421,1.547
			c0.097,0.628,0.146,1.381,0.146,2.259c0,0.603,0,1.23,0.003,1.884c0.003,0.654,0.01,1.287,0.022,1.898
			c0.012,0.612,0.031,1.182,0.058,1.711C227.824,64.625,227.861,65.063,227.91,65.409z"/>
		<path fill="#FFFDFA" d="M235.423,59.604c0,0.372-0.021,0.78-0.065,1.226c-0.043,0.445-0.115,0.894-0.217,1.346
			s-0.24,0.891-0.414,1.317s-0.391,0.802-0.648,1.129c-0.26,0.327-0.567,0.589-0.925,0.788c-0.358,0.198-0.774,0.298-1.247,0.298
			c-0.475,0-0.889-0.093-1.244-0.279s-0.66-0.434-0.914-0.745c-0.254-0.311-0.463-0.67-0.627-1.077s-0.295-0.834-0.392-1.283
			c-0.097-0.448-0.163-0.902-0.199-1.36s-0.054-0.893-0.054-1.303c0-0.724,0.072-1.434,0.217-2.129
			c0.145-0.695,0.366-1.315,0.664-1.86c0.297-0.544,0.669-0.983,1.116-1.316c0.447-0.333,0.973-0.5,1.577-0.5
			c0.406,0,0.771,0.082,1.096,0.245c0.323,0.164,0.611,0.386,0.862,0.668c0.251,0.282,0.466,0.612,0.642,0.99
			c0.177,0.378,0.322,0.778,0.439,1.201c0.115,0.423,0.2,0.862,0.254,1.317C235.396,58.732,235.423,59.174,235.423,59.604z
			 M232.899,59.921c0-0.147-0.004-0.332-0.011-0.553c-0.008-0.221-0.023-0.453-0.047-0.697c-0.025-0.244-0.057-0.487-0.098-0.73
			c-0.042-0.244-0.096-0.461-0.164-0.654c-0.067-0.192-0.15-0.349-0.25-0.471s-0.217-0.183-0.352-0.183
			c-0.131,0-0.244,0.058-0.341,0.173s-0.181,0.266-0.251,0.452c-0.069,0.186-0.127,0.396-0.174,0.63
			c-0.045,0.234-0.082,0.468-0.108,0.702s-0.046,0.458-0.058,0.672c-0.013,0.215-0.019,0.396-0.019,0.543
			c0,0.211,0.013,0.468,0.036,0.769c0.024,0.301,0.07,0.59,0.139,0.865c0.066,0.275,0.16,0.511,0.278,0.707s0.274,0.293,0.468,0.293
			c0.184,0,0.338-0.089,0.461-0.269c0.123-0.179,0.221-0.399,0.293-0.658c0.072-0.26,0.123-0.534,0.152-0.822
			C232.885,60.401,232.899,60.145,232.899,59.921z"/>
		<path fill="#FFFDFA" d="M243.545,65.409c-0.15-0.032-0.314-0.053-0.493-0.063c-0.179-0.01-0.365-0.015-0.558-0.015
			c-0.232,0-0.469,0.008-0.707,0.024c-0.24,0.016-0.473,0.037-0.701,0.063c-0.227,0.026-0.441,0.055-0.645,0.087
			c-0.203,0.032-0.38,0.061-0.529,0.086c0.207-0.929,0.368-1.922,0.482-2.979c0.113-1.058,0.17-2.23,0.17-3.518
			c0-0.096-0.001-0.224-0.004-0.384c-0.002-0.16-0.008-0.333-0.018-0.519c-0.01-0.186-0.025-0.374-0.047-0.563
			c-0.022-0.189-0.054-0.36-0.095-0.514s-0.093-0.279-0.155-0.375c-0.063-0.096-0.141-0.144-0.232-0.144
			c-0.136,0-0.268,0.064-0.396,0.192c-0.128,0.128-0.241,0.298-0.341,0.509s-0.179,0.455-0.239,0.73s-0.091,0.561-0.091,0.855
			c0,0.532,0.01,1.072,0.029,1.62s0.051,1.091,0.094,1.629c0.044,0.539,0.1,1.065,0.167,1.581c0.067,0.516,0.152,1.004,0.254,1.466
			c-0.082-0.006-0.179-0.016-0.29-0.029c-0.097-0.006-0.211-0.013-0.341-0.019s-0.28-0.01-0.45-0.01
			c-0.313,0-0.676,0.018-1.087,0.053c-0.411,0.036-0.856,0.101-1.335,0.197c0.059-0.359,0.109-0.798,0.152-1.317
			c0.044-0.519,0.08-1.083,0.109-1.691s0.052-1.245,0.068-1.908c0.018-0.663,0.025-1.318,0.025-1.965
			c0-0.48-0.004-0.952-0.014-1.413s-0.023-0.897-0.041-1.307c-0.017-0.41-0.039-0.788-0.068-1.134
			c-0.029-0.346-0.063-0.644-0.102-0.894c0.392,0.09,0.754,0.152,1.088,0.188s0.636,0.053,0.906,0.053
			c0.174,0,0.33-0.005,0.468-0.015c0.138-0.009,0.255-0.021,0.353-0.034c0.115-0.019,0.217-0.038,0.304-0.058
			c-0.028,0.199-0.057,0.41-0.083,0.635c-0.027,0.224-0.053,0.468-0.076,0.73c0.159-0.27,0.328-0.505,0.508-0.707
			c0.178-0.202,0.358-0.37,0.54-0.505c0.181-0.134,0.361-0.235,0.54-0.303s0.348-0.101,0.508-0.101c0.348,0,0.648,0.094,0.902,0.283
			s0.465,0.485,0.631,0.889c0.167,0.404,0.291,0.919,0.374,1.547c0.082,0.628,0.123,1.381,0.123,2.259
			c0,0.603,0.001,1.214,0.003,1.836c0.003,0.622,0.014,1.23,0.033,1.826c0.02,0.596,0.053,1.162,0.102,1.696
			C243.391,64.498,243.458,64.98,243.545,65.409z"/>
	</g>
</g>
<g id="top_x5F_btn">
</g>
<g id="header">
</g>
</svg>
