<?xml version="1.0" encoding="utf-8"?>
<!-- Generator: Adobe Illustrator 16.0.3, SVG Export Plug-In . SVG Version: 6.00 Build 0)  -->
<!DOCTYPE svg PUBLIC "-//W3C//DTD SVG 1.1//EN" "http://www.w3.org/Graphics/SVG/1.1/DTD/svg11.dtd">
<svg version="1.1" xmlns="http://www.w3.org/2000/svg" xmlns:xlink="http://www.w3.org/1999/xlink" x="0px" y="0px" width="450px"
	 height="75px" viewBox="0 0 450 75" enable-background="new 0 0 450 75" xml:space="preserve">
<g id="bg">
</g>
<g id="ガイド" display="none">
</g>
<g id="sns">
</g>
<g id="history">
</g>
<g id="img_1_">
</g>
<g id="nav">
</g>
<g id="news">
</g>
<g id="text">
</g>
<g id="mv">
</g>
<g id="footer">
</g>
<g id="top_x5F_btn">
</g>
<g id="header">
	<g id="logo_1_">
		<g>
			<path fill="#FF4500" d="M0,0.539h5.579v14.646h11.159V0.539h5.753v36.266h-5.753V20.938H5.579v15.866H0V0.539z"/>
			<path fill="#FF4500" d="M33.127,18.324H28.07c0.231-2.556,1.16-4.765,2.79-6.626c1.509-1.626,3.601-2.44,6.276-2.44
				c2.672,0,4.765,0.757,6.276,2.267c1.51,1.512,2.267,4.127,2.267,7.846v10.287c0,2.44,0.289,4.767,0.872,6.974h-5.23l-0.522-2.441
				c-2.676,2.554-5.522,3.313-8.544,2.266c-3.024-0.932-4.708-3.021-5.056-6.276c-0.466-4.766,1.743-7.786,6.625-9.067
				c2.324-0.58,3.949-1.046,4.882-1.394c1.16-0.463,1.743-1.279,1.743-2.441c0-1.395-0.641-2.38-1.917-2.964
				c-1.396-0.462-2.676-0.288-3.836,0.523C33.765,15.302,33.241,16.466,33.127,18.324z M40.449,22.856
				c-0.348,0.349-1.105,0.758-2.266,1.221c-1.047,0.348-2.152,0.814-3.313,1.395c-1.979,0.932-2.85,2.383-2.615,4.358
				c0.35,1.861,1.569,2.675,3.661,2.441c1.51-0.115,2.673-0.872,3.487-2.268c0.698-1.16,1.046-2.38,1.046-3.661V22.856z"/>
			<path fill="#FF4500" d="M50.736,9.606h5.23v3.487c1.046-1.626,2.206-2.673,3.486-3.139c0.93-0.348,1.918-0.462,2.965-0.348v5.404
				h-0.872c-1.629,0-2.964,0.584-4.011,1.744c-1.045,1.28-1.568,2.964-1.568,5.056v14.82h-5.23V9.606z"/>
			<path fill="#FF4500" d="M65.381,9.606h5.057v3.662c1.278-2.673,3.021-4.01,5.23-4.01c2.324,0,4.186,1.512,5.58,4.533
				c1.395-3.021,3.427-4.533,6.102-4.533c4.299,0,6.451,2.964,6.451,8.892v18.482h-5.057V19.893c0-1.744-0.465-3.078-1.395-4.01
				c-0.465-0.462-1.105-0.697-1.918-0.697c-0.932,0-1.686,0.409-2.266,1.22c-0.697,0.933-1.047,2.559-1.047,4.882v15.343h-5.23
				V19.893c0-1.858-0.408-3.195-1.221-4.01c-0.465-0.462-1.105-0.697-1.918-0.697c-0.814,0-1.512,0.409-2.092,1.22
				c-0.814,1.164-1.221,2.79-1.221,4.882v15.343h-5.057V9.606z"/>
			<path fill="#FF4500" d="M97.811,23.206c0-3.253,0.755-6.217,2.268-8.892c1.626-2.904,4.01-4.533,7.147-4.881
				c2.673-0.232,4.995,0.64,6.974,2.615c2.441,2.44,3.662,5.988,3.662,10.636c0,5.347-1.163,9.184-3.487,11.507
				c-1.86,1.857-4.009,2.789-6.45,2.789s-4.594-0.932-6.451-2.789C99.031,31.749,97.811,28.087,97.811,23.206z M103.216,22.333
				c-0.118,2.441,0.114,4.419,0.697,5.928c0.698,1.978,1.801,3.198,3.313,3.661c1.858,0.235,3.253-0.522,4.185-2.266
				c0.58-1.16,0.986-2.79,1.221-4.882c0.114-2.904-0.117-5.171-0.697-6.799c-0.814-2.442-2.093-3.662-3.836-3.662
				c-1.28,0-2.326,0.64-3.139,1.918C103.913,17.743,103.33,19.778,103.216,22.333z"/>
			<path fill="#FF4500" d="M121.871,9.606h5.057v4.01c1.744-2.79,3.775-4.184,6.102-4.184c1.858,0,3.428,0.64,4.709,1.917
				c1.742,1.743,2.614,4.593,2.614,8.543v16.738h-5.23V20.765c0-2.325-0.466-3.95-1.395-4.882c-0.698-0.697-1.455-1.046-2.267-1.046
				c-1.164,0-2.209,0.815-3.139,2.441c-0.814,1.512-1.28,2.85-1.395,4.01v15.343h-5.057V9.606z"/>
			<path fill="#FF4500" d="M148.721,9.606l4.012,14.646l3.834-14.646h5.754l-7.322,25.281c-0.697,2.207-1.338,3.719-1.918,4.533
				c-0.348,0.581-0.814,0.987-1.395,1.222c-0.584,0.231-1.221,0.348-1.918,0.348h-4.533v-5.057h2.267
				c0.698,0,1.22-0.174,1.569-0.523c0.349-0.349,0.637-0.872,0.872-1.569l-6.975-24.235H148.721z"/>
			<path fill="#FF4500" d="M180.279,36.805V0.539h19.527v5.405h-13.948v9.066h12.379v5.58h-12.379v16.215H180.279z"/>
			<path fill="#FF4500" d="M223.518,25.123h-14.645c0.23,3.374,1.221,5.522,2.963,6.451c1.396,0.583,2.5,0.64,3.313,0.174
				c1.279-0.698,2.093-1.744,2.441-3.138h5.405c-1.86,5.579-5.057,8.368-9.589,8.368c-2.676,0-4.942-1.046-6.801-3.138
				c-1.859-2.092-2.906-5.056-3.138-8.892c-0.235-3.95,0.522-7.498,2.267-10.636c1.857-3.253,4.299-4.881,7.322-4.881
				c2.556,0,4.822,1.046,6.799,3.138c2.441,2.675,3.662,6.337,3.662,10.983V25.123z M208.873,20.416h9.065
				c-0.349-3.601-1.629-5.637-3.835-6.102c-1.395-0.232-2.616,0.349-3.662,1.743C209.627,17.22,209.104,18.673,208.873,20.416z"/>
			<path fill="#FF4500" d="M227.354,27.564h4.533c0.232,2.44,1.104,3.896,2.615,4.358c1.395,0.466,2.615,0.466,3.661,0
				c1.161-0.58,1.743-1.451,1.743-2.615c0-1.161-0.291-2.032-0.871-2.616c-0.466-0.463-0.932-0.755-1.395-0.871l-4.533-1.396
				c-1.163-0.348-2.327-1.103-3.487-2.266c-1.163-1.16-1.743-2.79-1.743-4.882c0-2.441,0.812-4.473,2.441-6.102
				c1.277-1.279,3.078-1.918,5.404-1.918c2.555,0,4.647,0.932,6.277,2.79c1.394,1.629,2.148,3.721,2.266,6.277h-4.881
				c-0.235-2.324-1.047-3.719-2.441-4.184c-0.584-0.232-1.338-0.232-2.267,0c-1.28,0.697-1.919,1.686-1.919,2.963
				c0,0.814,0.232,1.455,0.697,1.918c0.464,0.466,0.93,0.757,1.396,0.872l3.836,1.22c1.743,0.583,3.138,1.395,4.185,2.44
				c1.395,1.396,2.092,3.139,2.092,5.231c0,2.441-0.697,4.359-2.092,5.753c-1.63,1.627-3.778,2.44-6.451,2.44
				c-2.789,0-4.998-0.932-6.625-2.789C228.283,32.446,227.469,30.239,227.354,27.564z"/>
			<path fill="#FF4500" d="M248.102,10.304h2.615V1.935h5.057v8.369h3.486v5.056h-3.486v14.82c0,0.932,0.463,1.395,1.395,1.395
				h2.266v5.057h-3.313c-1.859,0-3.254-0.466-4.184-1.395c-0.814-0.812-1.221-2.15-1.221-4.01V15.359h-2.615V10.304z"/>
			<path fill="#FF4500" d="M266.582,8.036c-0.813,0-1.455-0.231-1.918-0.697c-0.582-0.58-0.871-1.569-0.871-2.964
				c0-1.395,0.289-2.381,0.871-2.964c0.463-0.462,1.104-0.697,1.918-0.697c0.813,0,1.453,0.234,1.918,0.697
				c0.581,0.583,0.872,1.57,0.872,2.964c0,1.395-0.291,2.384-0.872,2.964C268.035,7.805,267.395,8.036,266.582,8.036z
				 M263.793,36.631V10.478h5.404v26.153H263.793z"/>
			<path fill="#FF4500" d="M272.336,9.606h5.404l4.359,18.133l4.185-18.133h5.58l-6.626,27.025h-6.451L272.336,9.606z"/>
			<path fill="#FF4500" d="M300.756,18.324h-5.057c0.232-2.556,1.16-4.765,2.79-6.626c1.509-1.626,3.601-2.44,6.276-2.44
				c2.673,0,4.765,0.757,6.275,2.267c1.511,1.512,2.268,4.127,2.268,7.846v10.287c0,2.44,0.289,4.767,0.871,6.974h-5.23
				l-0.522-2.441c-2.676,2.554-5.521,3.313-8.543,2.266c-3.024-0.932-4.708-3.021-5.056-6.276c-0.467-4.766,1.742-7.786,6.625-9.067
				c2.324-0.58,3.949-1.046,4.882-1.394c1.159-0.463,1.743-1.279,1.743-2.441c0-1.395-0.64-2.38-1.918-2.964
				c-1.395-0.462-2.676-0.288-3.836,0.523C301.393,15.302,300.869,16.466,300.756,18.324z M308.078,22.856
				c-0.349,0.349-1.105,0.758-2.266,1.221c-1.047,0.348-2.153,0.814-3.314,1.395c-1.977,0.932-2.849,2.383-2.614,4.358
				c0.349,1.861,1.569,2.675,3.661,2.441c1.51-0.115,2.672-0.872,3.487-2.268c0.697-1.16,1.046-2.38,1.046-3.661V22.856z"/>
			<path fill="#FF4500" d="M318.365,0.714h5.23v35.917h-5.23V0.714z"/>
			<path fill="#FF4500" d="M344.691,13.268c0-3.95,1.047-7.149,3.139-9.589c2.092-2.207,4.591-3.313,7.498-3.313
				c4.995,0,8.193,2.675,9.588,8.02c1.51,5.696-0.174,10.521-5.056,14.471l-4.185,3.662c-2.092,1.86-3.486,3.313-4.185,4.358h14.123
				v5.754h-20.923c-0.116-5.345,2.033-9.939,6.451-13.774l4.882-4.184c2.79-2.441,3.894-5.289,3.313-8.544
				c-0.467-1.744-1.338-2.963-2.615-3.662c-1.164-0.697-2.441-0.637-3.836,0.175c-1.744,1.046-2.732,3.254-2.965,6.625H344.691z"/>
			<path fill="#FF4500" d="M371.193,20.416c-0.117-5.928,1.046-10.81,3.486-14.645c2.207-3.602,5.114-5.405,8.718-5.405
				c3.37,0,6.042,1.512,8.021,4.533c2.207,3.023,3.37,7.091,3.486,12.205c0.35,5.927-0.639,10.752-2.964,14.471
				c-2.208,3.601-5.056,5.404-8.543,5.404c-3.372,0-6.162-1.455-8.368-4.358C372.702,29.599,371.426,25.532,371.193,20.416z
				 M382.7,31.4c2.093,0.348,3.776-0.637,5.057-2.965c0.929-1.857,1.509-4.417,1.743-7.671c0.232-3.836-0.117-7.149-1.047-9.938
				c-1.045-3.021-2.5-4.647-4.357-4.882c-2.21-0.349-3.896,0.465-5.057,2.441c-1.163,2.093-1.861,4.824-2.093,8.195
				c-0.233,3.953,0.175,7.323,1.222,10.112C379.213,29.481,380.723,31.05,382.7,31.4z"/>
			<path fill="#FF4500" d="M400.833,13.268c0-3.95,1.046-7.149,3.138-9.589c2.093-2.207,4.591-3.313,7.498-3.313
				c4.996,0,8.193,2.675,9.59,8.02c1.508,5.696-0.176,10.521-5.057,14.471l-4.186,3.662c-2.092,1.86-3.486,3.313-4.184,4.358h14.122
				v5.754h-20.922c-0.117-5.345,2.032-9.939,6.45-13.774l4.883-4.184c2.789-2.441,3.893-5.289,3.313-8.544
				c-0.467-1.744-1.338-2.963-2.615-3.662c-1.163-0.697-2.441-0.637-3.836,0.175c-1.744,1.046-2.732,3.254-2.964,6.625H400.833z"/>
			<path fill="#FF4500" d="M428.555,25.821h5.056c0.35,1.86,1.161,3.313,2.441,4.359c1.396,1.046,2.79,1.337,4.185,0.871
				c2.44-0.697,3.836-2.498,4.184-5.403c0.463-3.021-0.348-5.346-2.44-6.974c-1.046-0.812-2.267-1.104-3.661-0.872
				c-1.395,0.234-2.558,0.931-3.486,2.092h-5.405l2.789-19.178h16.215v5.928H436.4l-1.221,7.148
				c3.602-2.207,6.914-2.267,9.938-0.175c2.323,1.629,3.836,4.127,4.532,7.497c0.698,3.373,0.35,6.512-1.045,9.416
				c-1.047,2.44-2.676,4.244-4.883,5.404c-2.092,1.046-4.244,1.335-6.451,0.872c-2.439-0.466-4.418-1.629-5.928-3.487
				C429.602,31.342,428.669,28.844,428.555,25.821z"/>
		</g>
		<g>
			<path fill="#FF4500" d="M80.164,71.441V50.424h2.68v21.017H80.164z"/>
			<path fill="#FF4500" d="M97.057,71.441h-2.678V61.55c0-0.892-0.207-1.545-0.619-1.958s-0.893-0.618-1.441-0.618
				c-0.688,0-1.272,0.242-1.752,0.721c-0.618,0.618-0.928,1.409-0.928,2.37v9.375h-2.678V56.193h2.678v1.751
				c1.098-1.236,2.268-1.854,3.504-1.854c0.961,0,1.751,0.309,2.369,0.927c1.03,1.03,1.545,2.439,1.545,4.224V71.441z"/>
			<path fill="#FF4500" d="M107.7,52.278c1.373-1.374,2.952-2.061,4.739-2.061c1.716,0,3.193,0.618,4.43,1.854
				s1.992,3.16,2.267,5.769h-2.884c-0.275-1.922-0.758-3.228-1.443-3.915c-0.688-0.686-1.441-1.03-2.266-1.03
				c-1.031,0-1.958,0.412-2.782,1.236c-1.236,1.236-1.854,3.469-1.854,6.696c0,3.297,0.618,5.563,1.854,6.8
				c0.892,0.894,1.819,1.339,2.782,1.339c1.029,0,1.957-0.412,2.781-1.236s1.236-2.094,1.236-3.812v-1.854h-4.533v-2.473h7.211
				v11.848h-2.266l-0.309-1.958c-1.375,1.442-2.818,2.164-4.328,2.164c-1.717,0-3.229-0.652-4.533-1.958
				c-1.854-1.854-2.781-4.807-2.781-8.86C105.021,56.915,105.913,54.065,107.7,52.278z"/>
			<path fill="#FF4500" d="M125.004,57.429c0.893-0.892,2.025-1.339,3.4-1.339c1.373,0,2.506,0.447,3.4,1.339
				c1.373,1.375,2.061,3.503,2.061,6.388c0,2.954-0.688,5.118-2.061,6.491c-0.895,0.892-2.027,1.339-3.4,1.339
				c-1.375,0-2.508-0.448-3.4-1.339c-1.375-1.373-2.061-3.537-2.061-6.491C122.943,60.932,123.629,58.804,125.004,57.429z
				 M126.962,59.387c-0.757,0.757-1.134,2.233-1.134,4.43c0,2.267,0.377,3.778,1.134,4.533c0.412,0.412,0.892,0.618,1.442,0.618
				c0.549,0,1.03-0.206,1.442-0.618c0.755-0.755,1.134-2.267,1.134-4.533c0-2.197-0.379-3.673-1.134-4.43
				c-0.412-0.412-0.894-0.618-1.442-0.618C127.854,58.769,127.374,58.975,126.962,59.387z"/>
			<path fill="#FF4500" d="M139.218,58.975h-1.648v-2.472h1.648v-4.636h2.679v4.636h1.957v2.472h-1.957v9.066
				c0,0.618,0.24,0.927,0.721,0.927h1.443v2.473h-2.68c-1.441,0-2.163-0.961-2.163-2.885V58.975z"/>
			<path fill="#FF4500" d="M150.65,64.538c0.066,1.993,0.412,3.297,1.029,3.915c0.344,0.345,0.686,0.515,1.031,0.515
				c0.479,0,0.857-0.137,1.133-0.412c0.412-0.412,0.686-1.201,0.824-2.37h2.885c-0.206,1.993-0.757,3.436-1.648,4.327
				c-0.757,0.755-1.752,1.133-2.988,1.133c-1.1,0-2.061-0.378-2.885-1.133c-1.512-1.579-2.266-3.846-2.266-6.8
				c0-2.815,0.686-4.91,2.061-6.285c0.891-0.892,1.922-1.339,3.09-1.339c1.098,0,2.061,0.412,2.885,1.236
				c1.443,1.442,2.025,3.848,1.752,7.212H150.65z M154.977,62.065c0-1.304-0.275-2.231-0.824-2.782
				c-0.344-0.343-0.756-0.515-1.236-0.515s-0.893,0.172-1.236,0.515c-0.551,0.551-0.893,1.478-1.029,2.782H154.977z"/>
			<path fill="#FF4500" d="M174.65,56.09c1.03,0,1.889,0.344,2.576,1.03c0.824,0.824,1.236,1.854,1.236,3.091v11.23h-2.68v-10.2
				c0-0.892-0.205-1.545-0.617-1.958c-0.345-0.343-0.791-0.515-1.34-0.515c-0.551,0-1.1,0.275-1.648,0.824
				c-0.688,0.688-1.029,1.375-1.029,2.061v9.788h-2.68V61.138c0-0.824-0.205-1.442-0.617-1.854c-0.346-0.343-0.791-0.515-1.34-0.515
				c-0.551,0-1.03,0.206-1.442,0.618c-0.757,0.757-1.134,1.442-1.134,2.061v9.994h-2.678V56.193h2.678v1.751
				c0.893-1.236,1.922-1.854,3.092-1.854c1.441,0,2.609,0.824,3.502,2.472C171.766,56.915,173.139,56.09,174.65,56.09z"/>
			<path fill="#FF4500" d="M185.258,71.441h-2.678V50.424h2.678v7.417c0.893-1.236,1.958-1.854,3.194-1.854
				c1.098,0,2.024,0.378,2.782,1.133c1.166,1.169,1.751,3.366,1.751,6.594c0,3.366-0.585,5.633-1.751,6.8
				c-0.758,0.755-1.685,1.133-2.782,1.133c-1.236,0-2.302-0.584-3.194-1.751V71.441z M185.258,64.744
				c0,1.718,0.344,2.92,1.031,3.606c0.412,0.412,0.891,0.618,1.441,0.618c0.549,0,1.031-0.206,1.443-0.618
				c0.617-0.618,0.927-2.164,0.927-4.636c0-2.334-0.31-3.812-0.927-4.43c-0.412-0.412-0.895-0.618-1.443-0.618
				c-0.551,0-1.029,0.206-1.441,0.618c-0.688,0.688-1.031,1.854-1.031,3.503V64.744z"/>
			<path fill="#FF4500" d="M205.035,57.429c0.824,0.824,1.236,2.096,1.236,3.812v7.212c0,0.963,0.206,1.958,0.618,2.988h-2.782
				c-0.205-0.479-0.344-0.892-0.412-1.236c-1.168,0.961-2.302,1.442-3.399,1.442c-1.1,0-2.026-0.378-2.782-1.133
				c-0.824-0.824-1.236-1.922-1.236-3.297c0-1.304,0.446-2.403,1.34-3.297c0.961-0.961,2.506-1.648,4.637-2.061
				c0.961-0.137,1.441-0.549,1.441-1.236c0-0.479-0.205-0.927-0.617-1.339c-0.346-0.343-0.791-0.515-1.34-0.515
				c-1.236,0-2.027,0.927-2.369,2.782h-2.885c0.137-1.854,0.686-3.261,1.648-4.224c0.824-0.824,1.957-1.236,3.399-1.236
				S204.142,56.538,205.035,57.429z M203.593,64.229c-1.718,0.069-2.921,0.448-3.606,1.133c-0.551,0.551-0.824,1.133-0.824,1.751
				c0,0.551,0.171,0.997,0.516,1.339c0.343,0.345,0.824,0.515,1.442,0.515c0.892,0,1.716-0.549,2.473-1.648V64.229z"/>
		</g>
	</g>
</g>
</svg>
