<?xml version="1.0" encoding="utf-8"?>
<!-- Generator: Adobe Illustrator 16.0.3, SVG Export Plug-In . SVG Version: 6.00 Build 0)  -->
<!DOCTYPE svg PUBLIC "-//W3C//DTD SVG 1.1//EN" "http://www.w3.org/Graphics/SVG/1.1/DTD/svg11.dtd">
<svg version="1.1" xmlns="http://www.w3.org/2000/svg" xmlns:xlink="http://www.w3.org/1999/xlink" x="0px" y="0px" width="231px"
	 height="154px" viewBox="0 0 231 154" enable-background="new 0 0 231 154" xml:space="preserve">
<g id="bg">
</g>
<g id="ガイド" display="none">
</g>
<g id="sns">
</g>
<g id="history">
	<g>
		<g>
			<path fill="#2F2A20" d="M43.139,93.699c-0.24-0.033-0.519-0.067-0.834-0.101c-0.266-0.033-0.594-0.059-0.985-0.075
				s-0.833-0.025-1.326-0.025c-0.947,0-2.081,0.059-3.401,0.176c-1.319,0.117-2.769,0.343-4.348,0.678
				c0.277-0.753,0.518-1.707,0.721-2.862c0.201-1.155,0.369-2.39,0.502-3.704c0.133-1.313,0.236-2.649,0.313-4.005
				c0.076-1.356,0.133-2.62,0.17-3.792c0.038-1.171,0.061-2.185,0.066-3.038s0.01-1.439,0.01-1.758c0-0.066-0.004-0.326-0.01-0.778
				S34,73.376,33.987,72.656s-0.032-1.544-0.057-2.474c-0.025-0.929-0.06-1.896-0.104-2.9c-0.045-1.004-0.102-2.017-0.17-3.038
				c-0.07-1.021-0.152-1.983-0.246-2.888c-0.096-0.904-0.203-1.721-0.322-2.448c-0.121-0.729-0.263-1.302-0.427-1.721
				c1.226,0.285,2.381,0.481,3.468,0.591c1.086,0.108,2.076,0.163,2.974,0.163c0.618,0,1.181-0.017,1.687-0.051
				c0.505-0.033,0.934-0.075,1.288-0.125c0.417-0.051,0.782-0.108,1.099-0.176c-0.568,2.093-0.969,4.089-1.203,5.988
				c-0.233,1.9-0.35,3.57-0.35,5.01c0,1.842,0.182,3.193,0.549,4.056c0.366,0.862,0.871,1.293,1.516,1.293
				c0.796,0,1.357-0.54,1.686-1.619c0.329-1.08,0.493-2.574,0.493-4.482c0-1.038-0.038-2.084-0.114-3.139
				c-0.075-1.055-0.186-2.067-0.331-3.039c-0.146-0.971-0.315-1.883-0.511-2.736c-0.197-0.854-0.408-1.607-0.635-2.261
				c1.262,0.318,2.443,0.527,3.542,0.628s2.077,0.151,2.937,0.151c0.581,0,1.1-0.017,1.554-0.051
				c0.454-0.033,0.847-0.066,1.175-0.101c0.379-0.05,0.707-0.101,0.984-0.15c-0.139,0.938-0.268,2.001-0.388,3.189
				s-0.225,2.465-0.313,3.829c-0.089,1.364-0.155,2.809-0.199,4.331c-0.044,1.524-0.066,3.089-0.066,4.696
				c0,1.825,0.032,3.679,0.095,5.562c0.063,1.884,0.168,3.746,0.313,5.588c0.146,1.842,0.328,3.637,0.55,5.386
				c0.221,1.75,0.483,3.402,0.786,4.96c-0.24-0.034-0.518-0.067-0.834-0.101c-0.265-0.034-0.594-0.06-0.984-0.075
				c-0.393-0.018-0.834-0.025-1.326-0.025c-0.947,0-2.082,0.059-3.4,0.176c-1.32,0.117-2.77,0.343-4.349,0.678
				c0.177-0.469,0.347-1.071,0.512-1.808c0.163-0.736,0.31-1.532,0.436-2.386s0.228-1.736,0.304-2.649
				c0.075-0.912,0.113-1.778,0.113-2.599c0-1.573-0.168-2.767-0.502-3.578c-0.335-0.813-0.806-1.218-1.412-1.218
				c-0.53,0-0.959,0.326-1.288,0.979c-0.329,0.653-0.492,1.683-0.492,3.089c0,0.653,0.031,1.34,0.095,2.06
				c0.063,0.72,0.145,1.448,0.246,2.185s0.221,1.469,0.359,2.197C42.859,92.33,42.999,93.029,43.139,93.699z"/>
			<path fill="#2F2A20" d="M78.889,94.151c-0.783-0.135-1.539-0.227-2.265-0.276c-0.726-0.051-1.462-0.075-2.207-0.075
				c-2.009,0-4.067,0.259-6.177,0.778c0.076-0.402,0.162-0.758,0.256-1.067c0.096-0.31,0.181-0.653,0.256-1.029
				c0.076-0.377,0.139-0.816,0.189-1.318c0.051-0.503,0.076-1.146,0.076-1.934c0-0.804-0.045-1.569-0.133-2.298
				s-0.221-1.372-0.397-1.934c-0.177-0.561-0.396-1.009-0.653-1.344c-0.26-0.334-0.56-0.502-0.9-0.502
				c-0.379,0-0.698,0.15-0.957,0.452c-0.259,0.301-0.467,0.712-0.625,1.23s-0.271,1.113-0.341,1.783
				c-0.069,0.669-0.104,1.381-0.104,2.134c0,0.754,0.035,1.402,0.104,1.946s0.151,1.017,0.246,1.419
				c0.095,0.401,0.187,0.758,0.274,1.067s0.152,0.615,0.189,0.916c-0.871-0.134-1.727-0.234-2.566-0.301
				c-0.84-0.067-1.678-0.101-2.511-0.101s-1.671,0.033-2.511,0.101c-0.84,0.066-1.707,0.167-2.604,0.301
				c0.783-3.013,1.468-6.001,2.056-8.965c0.588-2.963,1.09-5.942,1.506-8.939c0.417-2.996,0.755-6.026,1.014-9.09
				s0.451-6.202,0.578-9.416c0.935,0.167,1.961,0.288,3.078,0.364c1.118,0.075,2.265,0.112,3.439,0.112
				c0.997,0,1.967-0.033,2.908-0.101c0.94-0.066,1.809-0.209,2.604-0.427c0.089,3.198,0.315,6.345,0.683,9.442
				c0.365,3.097,0.824,6.164,1.373,9.202c0.549,3.039,1.178,6.044,1.885,9.016S78.105,91.222,78.889,94.151z M68.279,74.665
				c-0.025-0.317-0.102-0.787-0.229-1.406c-0.113-0.535-0.283-1.243-0.511-2.122s-0.563-2.013-1.005-3.402
				c-0.101,0.871-0.215,1.645-0.34,2.323c-0.127,0.678-0.247,1.289-0.36,1.833c-0.114,0.544-0.212,1.042-0.294,1.494
				c-0.082,0.451-0.123,0.879-0.123,1.28c0,0.837,0.148,1.485,0.445,1.946c0.297,0.46,0.628,0.69,0.994,0.69
				c0.392,0,0.721-0.251,0.985-0.754C68.108,76.046,68.254,75.418,68.279,74.665z"/>
			<path fill="#2F2A20" d="M101.225,94.251c-0.82-0.084-1.588-0.138-2.302-0.163c-0.714-0.024-1.374-0.037-1.979-0.037
				c-1.188,0-2.18,0.046-2.975,0.138c-0.796,0.092-1.446,0.188-1.951,0.289c-0.594,0.117-1.068,0.251-1.422,0.401
				c0.051-0.519,0.102-1.004,0.152-1.456s0.092-0.892,0.123-1.318s0.057-0.854,0.076-1.28c0.019-0.428,0.027-0.875,0.027-1.344
				c0-1.842-0.053-3.373-0.16-4.596c-0.107-1.222-0.263-2.243-0.465-3.063c-0.201-0.819-0.448-1.481-0.738-1.983
				c-0.291-0.502-0.613-0.954-0.967-1.356c-0.025,0.754-0.044,1.481-0.057,2.185s-0.019,1.448-0.019,2.235
				c0,0.771,0.013,1.573,0.038,2.41c0.025,0.838,0.068,1.725,0.133,2.662c0.063,0.938,0.157,1.938,0.283,3.001
				c0.127,1.063,0.285,2.214,0.475,3.452c-0.014-0.066-0.178-0.142-0.493-0.226s-0.739-0.159-1.269-0.226
				c-0.531-0.067-1.141-0.122-1.829-0.164c-0.688-0.041-1.405-0.063-2.15-0.063c-0.973,0-1.944,0.047-2.917,0.139
				s-1.851,0.271-2.634,0.539c0.304-0.519,0.577-1.176,0.824-1.971c0.246-0.795,0.464-1.67,0.653-2.624s0.351-1.959,0.483-3.014
				c0.132-1.055,0.249-2.092,0.351-3.113c0.227-2.394,0.379-4.947,0.455-7.659c0-0.669,0.002-1.515,0.009-2.536
				c0.007-1.021-0.007-2.135-0.038-3.34s-0.082-2.443-0.151-3.716s-0.183-2.494-0.341-3.666s-0.363-2.243-0.615-3.215
				c-0.254-0.971-0.576-1.749-0.967-2.335c0.909,0.185,1.793,0.306,2.652,0.364s1.592,0.088,2.197,0.088
				c0.531,0,1.02-0.017,1.469-0.051c0.448-0.033,0.894-0.066,1.336-0.101c0.441-0.033,0.902-0.066,1.383-0.1
				c0.479-0.034,1.01-0.051,1.592-0.051c0.795,0,1.598,0.055,2.406,0.163c0.808,0.109,1.581,0.302,2.32,0.578
				c0.738,0.276,1.427,0.652,2.064,1.13c0.639,0.477,1.193,1.079,1.668,1.808c0.473,0.729,0.846,1.604,1.117,2.624
				c0.271,1.021,0.408,2.21,0.408,3.565c0,0.754-0.073,1.507-0.219,2.261c-0.145,0.753-0.382,1.494-0.711,2.222
				c-0.328,0.729-0.754,1.424-1.278,2.085s-1.165,1.268-1.923,1.82c0.896,0.485,1.576,1.088,2.037,1.808s0.792,1.54,0.994,2.461
				s0.313,1.921,0.332,3.001c0.019,1.079,0.041,2.206,0.066,3.377c0.05,1.256,0.17,2.42,0.359,3.49
				c0.076,0.452,0.174,0.913,0.294,1.382s0.265,0.903,0.436,1.306c0.171,0.401,0.366,0.762,0.587,1.079
				C100.678,93.866,100.934,94.101,101.225,94.251z M88.645,72.605c0.278-0.268,0.591-0.606,0.938-1.017
				c0.347-0.41,0.669-0.862,0.966-1.355c0.297-0.494,0.547-1.018,0.748-1.57c0.202-0.552,0.304-1.104,0.304-1.657
				c0-0.535-0.117-0.971-0.351-1.306c-0.234-0.334-0.496-0.502-0.786-0.502c-0.404,0-0.727,0.247-0.966,0.741
				c-0.24,0.493-0.427,1.075-0.56,1.745c-0.132,0.669-0.222,1.343-0.265,2.021c-0.045,0.678-0.066,1.201-0.066,1.569
				c0,0.2,0,0.414,0,0.64C88.607,72.142,88.619,72.372,88.645,72.605z"/>
			<path fill="#2F2A20" d="M112.705,93.699c-0.215-0.033-0.479-0.067-0.795-0.101c-0.266-0.033-0.591-0.059-0.976-0.075
				c-0.386-0.017-0.818-0.025-1.298-0.025c-0.936,0-2.047,0.059-3.334,0.176c-1.289,0.117-2.723,0.343-4.301,0.678
				c0.669-3.732,1.133-7.391,1.393-10.973c0.258-3.583,0.388-7.031,0.388-10.346c0-3.014-0.089-5.847-0.265-8.5
				c-0.178-2.653-0.411-5.102-0.701-7.346c1.263,0.302,2.396,0.503,3.4,0.604c1.004,0.1,1.873,0.15,2.605,0.15
				c0.505,0,0.949-0.017,1.336-0.051c0.385-0.033,0.703-0.066,0.956-0.1c0.304-0.051,0.562-0.101,0.776-0.151
				c0.43,3.281,0.967,6.525,1.611,9.73c0.644,3.206,1.439,6.425,2.387,9.655c0.795-3.265,1.428-6.532,1.895-9.806
				c0.467-3.272,0.783-6.617,0.947-10.032l0.151,0.452l-0.151-0.452c1.263,0.302,2.412,0.503,3.447,0.604
				c1.036,0.1,1.952,0.15,2.748,0.15c0.53,0,0.998-0.017,1.402-0.051c0.403-0.033,0.75-0.066,1.041-0.1
				c0.328-0.051,0.613-0.101,0.854-0.151c-0.266,1.675-0.469,3.654-0.607,5.938c-0.139,2.285-0.208,4.733-0.208,7.346
				c0,1.857,0.038,3.771,0.114,5.737c0.075,1.968,0.191,3.926,0.35,5.876s0.363,3.871,0.616,5.763
				c0.253,1.893,0.556,3.691,0.909,5.399c-0.252-0.033-0.543-0.067-0.871-0.101c-0.291-0.033-0.632-0.059-1.023-0.075
				s-0.846-0.025-1.363-0.025c-0.986,0-2.145,0.059-3.477,0.176c-1.333,0.117-2.789,0.343-4.367,0.678
				c0.315-0.837,0.578-1.908,0.786-3.214s0.379-2.695,0.511-4.168c0.133-1.474,0.234-2.942,0.304-4.407s0.116-2.775,0.142-3.93
				c-0.366,1.038-0.719,2.093-1.061,3.164c-0.341,1.071-0.691,2.214-1.051,3.427c-0.36,1.215-0.736,2.524-1.128,3.931
				s-0.821,2.972-1.288,4.695c-0.48-1.724-0.916-3.289-1.307-4.695c-0.393-1.406-0.762-2.712-1.109-3.918
				c-0.348-1.205-0.688-2.348-1.022-3.428c-0.335-1.079-0.679-2.155-1.032-3.227c0.113,2.646,0.303,5.253,0.568,7.822
				C111.872,88.975,112.238,91.405,112.705,93.699z"/>
			<path fill="#2F2A20" d="M151.961,77.025c0,2.545-0.215,4.935-0.645,7.169c-0.43,2.235-1.08,4.186-1.951,5.851
				c-0.871,1.666-1.974,2.98-3.307,3.942c-1.332,0.963-2.907,1.444-4.727,1.444c-1.807,0-3.375-0.481-4.707-1.444
				c-1.333-0.962-2.438-2.276-3.316-3.942c-0.877-1.665-1.531-3.615-1.961-5.851c-0.43-2.234-0.644-4.624-0.644-7.169
				c0-1.875,0.132-3.683,0.397-5.424s0.632-3.365,1.1-4.871c0.467-1.507,1.029-2.88,1.686-4.118c0.656-1.239,1.38-2.298,2.17-3.177
				c0.789-0.879,1.629-1.561,2.52-2.047c0.891-0.485,1.809-0.729,2.756-0.729c1.592,0,3.041,0.516,4.348,1.545
				c1.309,1.029,2.426,2.457,3.354,4.281c0.929,1.825,1.648,3.977,2.16,6.453C151.705,71.417,151.961,74.112,151.961,77.025z
				 M144.212,74.866c0-1.256-0.075-2.415-0.228-3.479c-0.151-1.063-0.356-1.983-0.615-2.762c-0.26-0.778-0.565-1.39-0.919-1.833
				c-0.354-0.443-0.727-0.666-1.118-0.666c-0.379,0-0.738,0.264-1.08,0.791c-0.34,0.527-0.641,1.21-0.899,2.047
				s-0.464,1.774-0.616,2.813c-0.15,1.038-0.227,2.067-0.227,3.089c0,0.987,0.066,1.904,0.199,2.749
				c0.133,0.846,0.318,1.578,0.559,2.197c0.24,0.62,0.533,1.109,0.881,1.469c0.348,0.36,0.742,0.54,1.184,0.54
				c0.43,0,0.824-0.18,1.185-0.54c0.36-0.359,0.663-0.849,0.909-1.469c0.246-0.619,0.439-1.352,0.578-2.197
				C144.143,76.771,144.212,75.854,144.212,74.866z"/>
			<path fill="#2F2A20" d="M164.484,93.699c-0.24-0.033-0.525-0.067-0.854-0.101c-0.277-0.033-0.612-0.059-1.004-0.075
				s-0.84-0.025-1.346-0.025c-0.984,0-2.137,0.059-3.457,0.176s-2.77,0.343-4.348,0.678c0.277-0.753,0.518-1.707,0.72-2.862
				s0.37-2.39,0.502-3.704c0.133-1.313,0.237-2.649,0.313-4.005c0.076-1.356,0.133-2.62,0.171-3.792
				c0.037-1.171,0.06-2.185,0.066-3.038c0.006-0.854,0.01-1.439,0.01-1.758c0-0.066-0.004-0.326-0.01-0.778
				c-0.007-0.452-0.016-1.038-0.029-1.758c-0.012-0.72-0.031-1.544-0.057-2.474c-0.025-0.929-0.06-1.896-0.104-2.9
				c-0.045-1.004-0.102-2.017-0.171-3.038s-0.151-1.983-0.246-2.888s-0.202-1.721-0.322-2.448c-0.12-0.729-0.263-1.302-0.427-1.721
				c1.276,0.302,2.438,0.503,3.486,0.604c1.049,0.1,1.982,0.15,2.805,0.15c0.555,0,1.051-0.017,1.486-0.051
				c0.436-0.033,0.799-0.066,1.09-0.1c0.341-0.051,0.645-0.101,0.909-0.151c0.543,3.55,1.162,6.839,1.856,9.869
				c0.695,3.03,1.479,5.842,2.35,8.437v-1.029c-0.038-2.729-0.107-5.273-0.209-7.634c-0.051-1.004-0.107-2.017-0.17-3.038
				c-0.063-1.021-0.143-1.983-0.236-2.888c-0.096-0.904-0.203-1.721-0.322-2.448c-0.121-0.729-0.263-1.302-0.427-1.721
				c1.263,0.302,2.429,0.503,3.495,0.604c1.067,0.1,2.012,0.15,2.832,0.15c0.557,0,1.053-0.017,1.488-0.051
				c0.436-0.033,0.799-0.066,1.089-0.1c0.341-0.051,0.644-0.101,0.909-0.151c-0.151,0.938-0.283,1.984-0.397,3.139
				c-0.114,1.155-0.215,2.386-0.304,3.691c-0.088,1.306-0.154,2.679-0.198,4.118c-0.044,1.44-0.066,2.922-0.066,4.445
				c0,1.724,0.031,3.478,0.095,5.261c0.063,1.782,0.167,3.557,0.313,5.323c0.145,1.767,0.328,3.499,0.549,5.197
				c0.222,1.7,0.484,3.327,0.787,4.885c-0.228-0.033-0.5-0.067-0.814-0.101c-0.266-0.033-0.588-0.059-0.967-0.075
				s-0.809-0.025-1.288-0.025c-0.909,0-1.958,0.059-3.146,0.176s-2.463,0.343-3.826,0.678c0-1.724-0.104-3.41-0.313-5.06
				c-0.209-1.648-0.502-3.272-0.881-4.871s-0.834-3.168-1.365-4.709c-0.529-1.54-1.117-3.063-1.762-4.569
				c0.013,1.573,0.061,3.163,0.143,4.771s0.195,3.197,0.341,4.771c0.146,1.573,0.322,3.117,0.53,4.633
				C163.963,90.832,164.205,92.293,164.484,93.699z"/>
			<path fill="#2F2A20" d="M199.021,58.218c-0.164,0.535-0.31,1.146-0.436,1.833c-0.127,0.687-0.237,1.406-0.332,2.159
				c-0.095,0.754-0.174,1.528-0.236,2.323c-0.063,0.795-0.114,1.561-0.152,2.297c-0.101,1.758-0.164,3.566-0.189,5.424
				c0,0.821,0.007,1.662,0.02,2.524c0.012,0.862,0.019,1.736,0.019,2.624c0,1.406-0.038,2.82-0.113,4.243
				c-0.076,1.424-0.24,2.787-0.493,4.094c-0.252,1.306-0.625,2.527-1.117,3.666s-1.159,2.126-1.999,2.963s-1.876,1.498-3.106,1.983
				c-1.232,0.485-2.719,0.729-4.462,0.729c-1.327,0-2.473-0.214-3.438-0.641c-0.967-0.427-1.762-1.004-2.388-1.732
				c-0.625-0.729-1.087-1.573-1.383-2.536c-0.297-0.963-0.445-1.979-0.445-3.051c0-0.804,0.126-1.557,0.379-2.26
				s0.591-1.311,1.014-1.821c0.423-0.51,0.909-0.912,1.459-1.205s1.114-0.439,1.695-0.439c0.745,0,1.466,0.26,2.159,0.778
				c0.695,0.52,1.309,1.356,1.838,2.512c-0.139-0.034-0.273-0.059-0.406-0.076c-0.133-0.016-0.256-0.024-0.37-0.024
				c-0.909,0-1.364,0.519-1.364,1.557c0,0.485,0.168,0.879,0.502,1.181c0.335,0.301,0.787,0.451,1.355,0.451
				c0.693,0,1.253-0.242,1.676-0.728c0.424-0.485,0.749-1.097,0.977-1.833c0.227-0.737,0.379-1.545,0.454-2.424
				c0.076-0.879,0.114-1.72,0.114-2.523v-1.08c-0.24,0.335-0.525,0.599-0.854,0.791c-0.328,0.193-0.662,0.344-1.004,0.452
				c-0.341,0.109-0.67,0.181-0.984,0.214c-0.316,0.033-0.582,0.05-0.796,0.05c-0.758,0-1.519-0.134-2.283-0.401
				s-1.459-0.771-2.084-1.507s-1.14-1.762-1.544-3.076c-0.404-1.313-0.632-3.018-0.682-5.11c0-0.083-0.004-0.405-0.01-0.967
				c-0.007-0.561-0.031-1.255-0.076-2.084c-0.045-0.828-0.113-1.736-0.208-2.725c-0.095-0.987-0.228-1.958-0.397-2.912
				c-0.171-0.955-0.387-1.838-0.645-2.649c-0.26-0.812-0.578-1.452-0.957-1.921c1.339,0.301,2.535,0.515,3.59,0.64
				c1.055,0.126,1.98,0.188,2.775,0.188c0.619,0,1.159-0.021,1.621-0.063c0.46-0.042,0.842-0.096,1.146-0.163
				c0.354-0.066,0.657-0.15,0.909-0.251c-0.063,0.687-0.129,1.41-0.199,2.172c-0.069,0.762-0.133,1.531-0.189,2.311
				c-0.057,0.778-0.101,1.561-0.133,2.348c-0.031,0.787-0.047,1.549-0.047,2.285c0,0.837,0.025,1.619,0.076,2.348
				s0.135,1.364,0.256,1.908c0.119,0.544,0.277,0.971,0.473,1.28c0.196,0.311,0.439,0.465,0.73,0.465
				c0.354,0,0.653-0.255,0.899-0.766c0.247-0.511,0.445-1.181,0.597-2.009c0.152-0.829,0.259-1.762,0.322-2.8
				c0.063-1.038,0.095-2.076,0.095-3.114c0-1.205-0.035-2.355-0.104-3.452s-0.154-1.979-0.256-2.649
				c0.228,0.117,0.524,0.21,0.891,0.276c0.316,0.084,0.729,0.15,1.241,0.201c0.511,0.05,1.146,0.075,1.903,0.075
				c0.607,0,1.299-0.025,2.075-0.075C197.174,58.443,198.049,58.352,199.021,58.218z"/>
			<path fill="#2F2A20" d="M19.039,110.351c-0.619-0.887-1.27-1.577-1.951-2.071s-1.314-0.854-1.895-1.08
				c-0.581-0.226-1.067-0.359-1.459-0.401s-0.613-0.063-0.663-0.063c-0.632,0-1.144,0.105-1.534,0.314
				c-0.393,0.209-0.698,0.477-0.919,0.804c-0.222,0.326-0.373,0.694-0.454,1.104c-0.083,0.41-0.124,0.825-0.124,1.243
				c0,0.401,0.034,0.82,0.104,1.256c0.069,0.436,0.186,0.833,0.351,1.192c0.163,0.36,0.385,0.657,0.663,0.892
				c0.277,0.234,0.631,0.352,1.061,0.352c0.025,0,0.127-0.004,0.303-0.013c0.178-0.009,0.398-0.075,0.664-0.201
				c0.265-0.125,0.559-0.343,0.881-0.652s0.646-0.758,0.976-1.344v10.22c-0.266-0.636-0.556-1.138-0.872-1.506
				c-0.315-0.368-0.615-0.641-0.899-0.816s-0.537-0.284-0.758-0.326c-0.222-0.042-0.37-0.063-0.445-0.063
				c-0.417,0-0.761,0.093-1.032,0.276c-0.271,0.185-0.486,0.439-0.645,0.766c-0.158,0.327-0.269,0.721-0.332,1.181
				c-0.063,0.461-0.094,0.967-0.094,1.52c0.037,1.289,0.133,2.62,0.283,3.992c0.063,0.586,0.146,1.205,0.247,1.858
				c0.101,0.652,0.228,1.327,0.379,2.021s0.328,1.39,0.53,2.084c0.201,0.694,0.436,1.377,0.701,2.047
				c-0.278-0.017-0.582-0.042-0.91-0.076c-0.29-0.033-0.628-0.058-1.014-0.075c-0.385-0.017-0.817-0.024-1.297-0.024
				c-0.568,0-1.188,0.021-1.857,0.063c-0.669,0.042-1.352,0.113-2.045,0.213c-0.695,0.101-1.396,0.239-2.104,0.415
				s-1.383,0.397-2.027,0.665c0.277-0.753,0.518-1.707,0.721-2.862c0.201-1.155,0.369-2.386,0.502-3.691
				c0.132-1.306,0.236-2.637,0.313-3.993c0.075-1.355,0.133-2.615,0.17-3.778c0.038-1.164,0.061-2.177,0.066-3.039
				c0.006-0.861,0.01-1.452,0.01-1.771c0-0.066-0.004-0.326-0.01-0.778c-0.006-0.451-0.016-1.037-0.028-1.758
				c-0.013-0.719-0.032-1.544-0.058-2.473c-0.025-0.93-0.06-1.896-0.104-2.9c-0.045-1.005-0.102-2.018-0.17-3.039
				c-0.07-1.021-0.152-1.987-0.247-2.899c-0.095-0.913-0.202-1.733-0.321-2.461c-0.121-0.729-0.263-1.31-0.427-1.745
				c1.212,0.335,2.446,0.573,3.704,0.715c1.256,0.143,2.497,0.214,3.723,0.214c1.402,0,2.729-0.063,3.979-0.188
				c1.25-0.125,2.35-0.271,3.297-0.439c1.111-0.184,2.134-0.401,3.068-0.652V110.351z"/>
			<path fill="#2F2A20" d="M38.174,135.688c-0.656-0.168-1.329-0.298-2.018-0.39s-1.414-0.163-2.179-0.213
				c-0.765-0.051-1.579-0.079-2.444-0.088s-1.803-0.013-2.813-0.013c-0.48,0-1.052,0.009-1.715,0.025s-1.377,0.059-2.141,0.125
				c-0.765,0.067-1.551,0.163-2.359,0.289s-1.598,0.289-2.367,0.489c0.277-0.753,0.518-1.703,0.719-2.85
				c0.203-1.146,0.37-2.364,0.502-3.653c0.133-1.289,0.237-2.604,0.313-3.942c0.075-1.34,0.132-2.587,0.171-3.742
				c0.037-1.154,0.059-2.155,0.066-3c0.006-0.846,0.009-1.428,0.009-1.746c0-0.066-0.003-0.326-0.009-0.778
				c-0.008-0.451-0.017-1.037-0.029-1.758c-0.013-0.719-0.031-1.544-0.057-2.473c-0.025-0.93-0.061-1.896-0.104-2.9
				c-0.045-1.005-0.102-2.018-0.172-3.039c-0.068-1.021-0.15-1.987-0.246-2.899c-0.094-0.913-0.201-1.733-0.322-2.461
				c-0.119-0.729-0.262-1.31-0.426-1.745c1.238,0.234,2.457,0.405,3.656,0.515c1.2,0.108,2.362,0.163,3.486,0.163
				c1.377,0,2.665-0.051,3.865-0.15c1.199-0.101,2.248-0.218,3.145-0.352c1.049-0.151,2.002-0.327,2.861-0.527v11.776
				c-0.732-0.904-1.434-1.599-2.104-2.084s-1.264-0.845-1.781-1.08c-0.605-0.268-1.174-0.418-1.705-0.452
				c-0.631,0-1.146,0.105-1.543,0.314c-0.398,0.209-0.708,0.477-0.929,0.804c-0.222,0.326-0.37,0.694-0.445,1.104
				s-0.114,0.825-0.114,1.243c0,0.436,0.048,0.87,0.143,1.306s0.243,0.829,0.445,1.181c0.201,0.351,0.464,0.64,0.786,0.866
				c0.322,0.226,0.704,0.339,1.146,0.339c0.367,0,0.701-0.113,1.005-0.339c0.304-0.227,0.562-0.481,0.776-0.767
				c0.253-0.317,0.486-0.686,0.701-1.104v10.22c-0.202-0.636-0.439-1.138-0.711-1.506s-0.537-0.641-0.795-0.816
				c-0.26-0.176-0.492-0.284-0.701-0.326s-0.351-0.063-0.426-0.063c-0.822,0-1.434,0.335-1.838,1.005s-0.606,1.531-0.606,2.586
				c0,0.771,0.066,1.424,0.198,1.959c0.133,0.536,0.311,0.971,0.531,1.306s0.479,0.577,0.776,0.729
				c0.297,0.15,0.609,0.226,0.938,0.226c0.504,0,1.048-0.15,1.629-0.452c0.58-0.301,1.14-0.703,1.677-1.205
				c0.536-0.502,1.029-1.075,1.478-1.72s0.805-1.302,1.07-1.972L38.174,135.688z"/>
			<path fill="#2F2A20" d="M59.203,106.685c0,0.837-0.117,1.595-0.35,2.272c-0.234,0.678-0.56,1.26-0.977,1.745
				c-0.416,0.486-0.906,0.862-1.468,1.13c-0.563,0.269-1.172,0.402-1.829,0.402c-0.719,0-1.335-0.117-1.847-0.352
				c-0.511-0.234-0.94-0.531-1.288-0.892s-0.622-0.762-0.824-1.205s-0.357-0.875-0.464-1.294c-0.108-0.418-0.177-0.803-0.208-1.154
				c-0.032-0.352-0.048-0.619-0.048-0.804c0.151,0.335,0.328,0.548,0.53,0.64c0.202,0.093,0.373,0.139,0.512,0.139
				c0.354,0,0.604-0.126,0.748-0.377s0.219-0.519,0.219-0.804c0-0.184-0.029-0.376-0.086-0.577s-0.158-0.39-0.303-0.565
				c-0.146-0.176-0.342-0.322-0.588-0.439c-0.246-0.116-0.553-0.176-0.918-0.176c-0.254,0-0.512,0.063-0.777,0.188
				c-0.266,0.126-0.509,0.318-0.729,0.578c-0.222,0.26-0.401,0.581-0.54,0.967c-0.139,0.385-0.209,0.837-0.209,1.355
				c0,0.502,0.08,1.001,0.237,1.494c0.157,0.494,0.372,0.959,0.645,1.394c0.271,0.436,0.593,0.829,0.966,1.181
				s0.779,0.645,1.223,0.879c0.693,0.385,1.411,0.762,2.15,1.13c0.738,0.368,1.455,0.77,2.15,1.205
				c0.693,0.436,1.348,0.934,1.96,1.494s1.149,1.227,1.61,1.996c0.461,0.771,0.827,1.67,1.1,2.699
				c0.271,1.03,0.406,2.231,0.406,3.604c0,1.959-0.3,3.746-0.899,5.361c-0.601,1.616-1.401,2.997-2.406,4.144
				c-1.004,1.146-2.166,2.034-3.485,2.661c-1.32,0.628-2.7,0.942-4.141,0.942c-1.301,0-2.538-0.256-3.713-0.767
				c-1.174-0.511-2.204-1.209-3.088-2.097c-0.885-0.887-1.588-1.929-2.112-3.126c-0.524-1.196-0.786-2.49-0.786-3.88
				c0-1.021,0.126-1.916,0.379-2.687c0.252-0.77,0.604-1.41,1.051-1.921c0.449-0.511,0.973-0.892,1.572-1.143
				c0.601-0.251,1.242-0.377,1.924-0.377c0.53,0,1.051,0.075,1.563,0.227c0.512,0.15,0.992,0.372,1.44,0.665
				s0.853,0.649,1.212,1.067c0.36,0.419,0.647,0.896,0.862,1.432c-0.265-0.101-0.499-0.151-0.7-0.151
				c-0.342,0-0.613,0.135-0.815,0.402s-0.304,0.669-0.304,1.205c0,0.285,0.051,0.549,0.152,0.791
				c0.101,0.243,0.23,0.456,0.389,0.641c0.157,0.184,0.341,0.326,0.549,0.427c0.209,0.101,0.426,0.15,0.654,0.15
				c0.252,0,0.485-0.071,0.701-0.214c0.214-0.142,0.403-0.33,0.568-0.564c0.163-0.234,0.289-0.494,0.379-0.778
				c0.088-0.285,0.132-0.578,0.132-0.879c0-0.586-0.136-1.181-0.407-1.783s-0.666-1.138-1.184-1.607
				c-0.986-0.803-1.914-1.498-2.785-2.084c-0.872-0.586-1.674-1.143-2.406-1.67s-1.393-1.059-1.98-1.595
				c-0.587-0.535-1.086-1.154-1.496-1.857s-0.723-1.527-0.938-2.474c-0.215-0.945-0.322-2.088-0.322-3.428
				c0-1.607,0.233-3.113,0.701-4.52c0.467-1.406,1.146-2.633,2.036-3.679c0.891-1.047,1.979-1.871,3.269-2.474
				c1.288-0.603,2.753-0.904,4.395-0.904c1.654,0,3.057,0.264,4.207,0.791c1.148,0.527,2.08,1.21,2.794,2.047s1.231,1.771,1.554,2.8
				S59.203,105.68,59.203,106.685z"/>
			<path fill="#2F2A20" d="M76.596,135.235c-0.291-0.033-0.625-0.066-1.004-0.101c-0.329-0.033-0.714-0.059-1.156-0.075
				c-0.441-0.017-0.941-0.025-1.496-0.025c-0.936,0-1.986,0.047-3.154,0.139c-1.169,0.092-2.404,0.264-3.705,0.515
				c0.443-2.478,0.777-4.863,1.005-7.156c0.228-2.294,0.397-4.336,0.511-6.127c0.127-2.093,0.203-4.06,0.229-5.901
				c0-0.787-0.014-1.648-0.039-2.587c-0.025-0.803-0.057-1.736-0.094-2.8c-0.038-1.063-0.089-2.213-0.152-3.452
				c-0.594,0.753-1.184,1.561-1.771,2.423c-0.587,0.862-1.152,1.758-1.695,2.687c-0.543,0.93-1.051,1.871-1.525,2.825
				c-0.473,0.954-0.887,1.893-1.24,2.813l0.455-19.185c1.187,0.185,2.44,0.326,3.76,0.427c1.32,0.101,2.668,0.151,4.045,0.151
				c1.971,0,3.922-0.092,5.854-0.276s3.706-0.452,5.323-0.804l0.701,19.386c-0.909-2.294-1.916-4.449-3.021-6.467
				c-1.105-2.017-2.283-3.703-3.533-5.06c-0.102,1.139-0.174,2.331-0.219,3.578c-0.044,1.248-0.065,2.524-0.065,3.83
				c0,1.69,0.04,3.427,0.123,5.21c0.082,1.783,0.202,3.578,0.36,5.387c0.157,1.808,0.362,3.607,0.615,5.398
				C75.957,131.779,76.254,133.528,76.596,135.235z"/>
			<path fill="#2F2A20" d="M93.893,135.186c-0.266-0.033-0.563-0.067-0.891-0.101c-0.29-0.033-0.638-0.059-1.041-0.075
				c-0.404-0.017-0.872-0.025-1.402-0.025c-1.023,0-2.211,0.059-3.563,0.176s-2.816,0.343-4.395,0.678
				c0.277-0.753,0.518-1.707,0.72-2.862s0.37-2.39,0.502-3.704c0.133-1.313,0.237-2.649,0.313-4.005
				c0.076-1.356,0.133-2.62,0.171-3.792c0.037-1.171,0.06-2.185,0.066-3.038c0.006-0.854,0.01-1.439,0.01-1.758
				c0-0.066-0.004-0.326-0.01-0.778c-0.007-0.452-0.016-1.038-0.029-1.758c-0.012-0.72-0.031-1.544-0.057-2.474
				c-0.025-0.929-0.06-1.896-0.104-2.9c-0.045-1.004-0.102-2.017-0.171-3.038s-0.151-1.983-0.246-2.888s-0.202-1.721-0.322-2.448
				c-0.12-0.729-0.263-1.302-0.427-1.721c1.276,0.302,2.447,0.503,3.516,0.604c1.066,0.1,2.029,0.15,2.889,0.15
				c0.568,0,1.08-0.017,1.535-0.051c0.454-0.033,0.839-0.066,1.154-0.1c0.367-0.051,0.689-0.101,0.967-0.151
				c-0.151,0.938-0.284,1.98-0.398,3.127c-0.113,1.146-0.215,2.368-0.303,3.666c-0.088,1.297-0.154,2.657-0.199,4.08
				c-0.044,1.423-0.066,2.888-0.066,4.395c0,1.741,0.032,3.512,0.096,5.311c0.063,1.8,0.167,3.587,0.313,5.361
				c0.145,1.774,0.328,3.516,0.549,5.224C93.289,131.996,93.564,133.628,93.893,135.186z"/>
			<path fill="#2F2A20" d="M117.764,98.926c-0.783,3.013-1.477,6.03-2.084,9.052c-0.605,3.022-1.146,6.048-1.619,9.078
				s-0.891,6.063-1.25,9.103c-0.36,3.038-0.68,6.081-0.957,9.128c-0.657-0.084-1.34-0.139-2.047-0.164
				c-0.707-0.024-1.434-0.037-2.178-0.037c-1.176,0-2.344,0.046-3.506,0.138c-1.162,0.093-2.267,0.23-3.314,0.415
				c-0.316-3.063-0.691-6.115-1.128-9.153c-0.436-3.038-0.944-6.072-1.524-9.103c-0.582-3.03-1.248-6.048-2-9.053
				c-0.751-3.005-1.594-6.005-2.528-9.002c0.758,0.134,1.513,0.238,2.264,0.313c0.751,0.076,1.507,0.113,2.265,0.113
				c1.098,0,2.185-0.066,3.258-0.201c1.074-0.134,2.147-0.343,3.221-0.627c-0.063,0.987-0.104,1.963-0.123,2.925
				c-0.019,0.963-0.028,1.921-0.028,2.875c0,3.215,0.146,6.345,0.437,9.392c0.289,3.047,0.726,6.061,1.307,9.04
				c0.479-2.595,0.834-5.169,1.061-7.722c0.228-2.553,0.342-5.11,0.342-7.671c0-2.946-0.152-5.893-0.455-8.839
				c0.871,0.15,1.742,0.255,2.614,0.313s1.755,0.088,2.652,0.088c0.872,0,1.749-0.029,2.634-0.088
				C115.958,99.181,116.855,99.076,117.764,98.926z"/>
			<path fill="#2F2A20" d="M140.574,135.638c-0.783-0.135-1.537-0.227-2.264-0.276c-0.727-0.051-1.462-0.075-2.207-0.075
				c-2.008,0-4.066,0.259-6.176,0.778c0.075-0.402,0.16-0.758,0.256-1.067c0.094-0.31,0.18-0.653,0.256-1.029
				c0.075-0.377,0.139-0.816,0.189-1.318c0.05-0.503,0.075-1.146,0.075-1.934c0-0.804-0.044-1.569-0.133-2.298
				s-0.222-1.372-0.397-1.934c-0.178-0.561-0.395-1.009-0.654-1.344c-0.259-0.334-0.559-0.502-0.899-0.502
				c-0.379,0-0.698,0.15-0.956,0.452c-0.26,0.301-0.469,0.712-0.626,1.23c-0.158,0.519-0.271,1.113-0.341,1.783
				c-0.07,0.669-0.104,1.381-0.104,2.134c0,0.754,0.034,1.402,0.104,1.946c0.069,0.544,0.151,1.017,0.246,1.419
				c0.095,0.401,0.186,0.758,0.275,1.067c0.088,0.31,0.15,0.615,0.189,0.916c-0.872-0.134-1.729-0.234-2.568-0.301
				c-0.84-0.067-1.676-0.101-2.51-0.101s-1.67,0.033-2.51,0.101c-0.84,0.066-1.709,0.167-2.605,0.301
				c0.783-3.013,1.469-6.001,2.056-8.965c0.587-2.963,1.089-5.942,1.507-8.939c0.416-2.996,0.754-6.026,1.013-9.09
				s0.452-6.202,0.578-9.416c0.935,0.167,1.961,0.288,3.079,0.364c1.117,0.075,2.264,0.112,3.438,0.112
				c0.998,0,1.968-0.033,2.908-0.101c0.941-0.066,1.81-0.209,2.605-0.427c0.088,3.198,0.315,6.345,0.682,9.442
				c0.367,3.097,0.824,6.164,1.374,9.202c0.55,3.039,1.178,6.044,1.885,9.016C139.047,129.758,139.791,132.708,140.574,135.638z
				 M129.965,116.151c-0.025-0.317-0.102-0.787-0.227-1.406c-0.114-0.535-0.285-1.243-0.512-2.122
				c-0.228-0.879-0.563-2.013-1.004-3.402c-0.102,0.871-0.215,1.645-0.342,2.323c-0.126,0.678-0.246,1.289-0.359,1.833
				s-0.212,1.042-0.294,1.494c-0.082,0.451-0.123,0.879-0.123,1.28c0,0.837,0.148,1.485,0.445,1.946
				c0.296,0.46,0.628,0.69,0.995,0.69c0.391,0,0.719-0.251,0.984-0.754C129.795,117.532,129.939,116.904,129.965,116.151z"/>
			<path fill="#2F2A20" d="M157.739,135.688c-0.442-0.134-0.964-0.251-1.563-0.352s-1.225-0.176-1.875-0.226
				c-0.65-0.051-1.295-0.088-1.933-0.113s-1.212-0.042-1.724-0.051c-0.512-0.008-0.932-0.012-1.26-0.012c-0.329,0-0.506,0-0.531,0
				c-0.783,0.017-1.629,0.066-2.539,0.15c-0.783,0.084-1.676,0.205-2.68,0.364c-1.004,0.158-2.057,0.38-3.154,0.665
				c0.252-1.289,0.473-2.732,0.662-4.331s0.348-3.294,0.475-5.085c0.125-1.792,0.221-3.642,0.283-5.55
				c0.063-1.908,0.096-3.817,0.096-5.726c0-1.573-0.023-3.126-0.066-4.658c-0.045-1.531-0.114-3-0.209-4.406
				s-0.209-2.737-0.341-3.993c-0.133-1.255-0.294-2.401-0.483-3.439c1.313,0.317,2.504,0.527,3.571,0.627
				c1.067,0.101,2.011,0.151,2.833,0.151c0.518,0,0.979-0.013,1.383-0.038s0.744-0.054,1.023-0.088
				c0.328-0.05,0.611-0.101,0.852-0.15c-0.277,1.205-0.537,2.511-0.776,3.917c-0.24,1.406-0.445,2.851-0.616,4.332
				c-0.17,1.481-0.303,2.967-0.397,4.457s-0.142,2.913-0.142,4.269c0,1.725,0.082,3.202,0.246,4.433
				c0.164,1.229,0.407,2.234,0.729,3.013c0.322,0.778,0.714,1.353,1.176,1.72c0.461,0.369,0.987,0.553,1.582,0.553
				c0.795,0,1.581-0.381,2.357-1.143c0.777-0.762,1.449-1.87,2.018-3.327L157.739,135.688z"/>
			<path fill="#2F2A20" d="M166.473,104.575c0,0.687-0.101,1.448-0.303,2.285s-0.455,1.666-0.758,2.486s-0.641,1.582-1.014,2.285
				s-0.729,1.264-1.07,1.682l-3.846-0.603c0.404-0.418,0.776-0.887,1.117-1.406c0.342-0.519,0.657-1.063,0.947-1.632
				c-0.467-0.051-0.893-0.218-1.278-0.502c-0.386-0.285-0.718-0.653-0.995-1.105s-0.492-0.975-0.644-1.569
				c-0.151-0.594-0.228-1.234-0.228-1.921c0-0.569,0.069-1.159,0.209-1.771c0.139-0.61,0.362-1.176,0.672-1.694
				c0.31-0.52,0.723-0.946,1.241-1.281c0.518-0.334,1.155-0.502,1.913-0.502c0.682,0,1.279,0.126,1.791,0.377
				s0.931,0.606,1.26,1.066c0.328,0.461,0.574,1.014,0.738,1.658S166.473,103.789,166.473,104.575z"/>
			<path fill="#2F2A20" d="M187.352,135.838c0-2.326,0.17-4.331,0.511-6.014s0.792-3.143,1.354-4.382
				c0.563-1.238,1.203-2.293,1.924-3.164c0.719-0.87,1.455-1.657,2.207-2.36c0.751-0.703,1.486-1.364,2.207-1.983
				c0.72-0.619,1.36-1.289,1.922-2.009c0.563-0.72,1.014-1.532,1.355-2.437c0.341-0.903,0.512-2,0.512-3.289
				c0-0.302-0.035-0.628-0.104-0.979s-0.187-0.682-0.351-0.992c-0.164-0.31-0.385-0.564-0.663-0.766s-0.619-0.301-1.022-0.301
				c-0.342,0-0.642,0.084-0.9,0.251c-0.26,0.167-0.474,0.376-0.645,0.628c-0.17,0.251-0.297,0.531-0.379,0.841
				s-0.123,0.606-0.123,0.892c0,0.268,0.041,0.523,0.123,0.766c0.082,0.243,0.193,0.456,0.332,0.641s0.293,0.33,0.464,0.439
				c0.171,0.108,0.345,0.163,0.521,0.163c0.189,0,0.418-0.051,0.683-0.15c-0.215,0.535-0.502,1.017-0.862,1.443
				c-0.359,0.427-0.764,0.783-1.213,1.067c-0.447,0.285-0.928,0.502-1.439,0.652c-0.512,0.151-1.032,0.227-1.563,0.227
				c-0.682,0-1.323-0.126-1.924-0.377c-0.6-0.251-1.123-0.632-1.572-1.143c-0.448-0.511-0.799-1.146-1.051-1.908
				c-0.253-0.762-0.379-1.661-0.379-2.699c0-1.39,0.199-2.737,0.597-4.043s1.001-2.469,1.81-3.49
				c0.808-1.021,1.818-1.837,3.031-2.448c1.212-0.611,2.633-0.917,4.262-0.917c1.857,0,3.471,0.352,4.842,1.055
				c1.369,0.703,2.506,1.674,3.41,2.913c0.902,1.239,1.578,2.703,2.026,4.395c0.448,1.69,0.673,3.516,0.673,5.474
				c0,1.39-0.133,2.596-0.398,3.616c-0.265,1.021-0.625,1.908-1.08,2.662c-0.454,0.753-0.981,1.406-1.582,1.958
				c-0.6,0.553-1.237,1.06-1.912,1.52c-0.676,0.461-1.368,0.9-2.075,1.318c-0.708,0.419-1.393,0.875-2.056,1.368
				c-0.663,0.494-1.285,1.051-1.866,1.67c-0.581,0.62-1.079,1.365-1.497,2.235c2.552-0.234,4.813-0.858,6.783-1.871
				s3.631-2.322,4.982-3.93c-0.088,0.888-0.151,1.762-0.189,2.624s-0.057,1.72-0.057,2.574c0,1.39,0.053,2.774,0.16,4.155
				s0.275,2.75,0.503,4.105c-1.579-0.301-3.215-0.527-4.907-0.678s-3.404-0.226-5.134-0.226c-1.769,0-3.509,0.075-5.22,0.226
				S188.992,135.537,187.352,135.838z"/>
			<path fill="#2F2A20" d="M229.883,116.503c-0.101,0.753-0.174,1.494-0.217,2.223c-0.045,0.728-0.066,1.469-0.066,2.222
				c0,1.457,0.094,2.913,0.283,4.369c-0.29-0.184-0.6-0.352-0.928-0.502s-0.657-0.293-0.985-0.427
				c0.139,1.908,0.325,3.771,0.56,5.587c0.232,1.816,0.526,3.554,0.881,5.211c-0.254-0.033-0.544-0.067-0.872-0.101
				c-0.29-0.033-0.642-0.059-1.052-0.075s-0.881-0.025-1.411-0.025c-1.011,0-2.194,0.059-3.552,0.176
				c-1.358,0.117-2.826,0.343-4.405,0.678c0.228-0.619,0.429-1.389,0.606-2.31c0.176-0.921,0.332-1.913,0.464-2.976
				c0.133-1.063,0.239-2.173,0.322-3.327c0.082-1.155,0.147-2.277,0.198-3.365c-0.252,0.017-0.694,0.009-1.326-0.025
				c-0.631-0.033-1.418-0.033-2.358,0c-0.94,0.034-2.011,0.126-3.211,0.276s-2.495,0.41-3.884,0.778
				c0.631-2.577,1.219-4.963,1.762-7.156s1.035-4.303,1.479-6.328c0.441-2.025,0.82-4.025,1.137-6.001
				c0.314-1.976,0.561-4.034,0.738-6.178c2.438,0.285,4.862,0.406,7.275,0.364c2.412-0.042,4.837-0.196,7.274-0.465
				c-0.29,1.893-0.524,4.156-0.7,6.793c-0.178,2.637-0.266,5.461-0.266,8.475v3.038c0.43-0.134,0.834-0.268,1.213-0.401
				S229.567,116.721,229.883,116.503z M219.898,118.16c0-0.436-0.003-1.013-0.009-1.732c-0.007-0.72-0.019-1.532-0.038-2.436
				c-0.02-0.904-0.041-1.879-0.066-2.926c-0.025-1.046-0.063-2.113-0.113-3.201c-0.568,1.456-1.023,3.055-1.364,4.796
				s-0.651,3.524-0.929,5.349c0.291,0.033,0.55,0.059,0.777,0.075c0.227,0.017,0.436,0.029,0.625,0.037
				c0.189,0.009,0.373,0.018,0.549,0.025C219.508,118.156,219.697,118.16,219.898,118.16z"/>
		</g>
		<g>
			<defs>
				<rect id="SVGID_20_" x="14" width="204" height="56"/>
			</defs>
			<clipPath id="SVGID_2_">
				<use xlink:href="#SVGID_20_"  overflow="visible"/>
			</clipPath>
			<g clip-path="url(#SVGID_2_)">
				<path fill="#2F2A20" d="M155.434,41.688l5.029,4.233c11.537,2.631,18.664,6.256,18.664,10.255
					c0,8.022-28.674,14.528-64.049,14.528c-35.373,0-64.051-6.506-64.051-14.528c0-3.999,7.125-7.624,18.664-10.255l5.029-4.233
					c-25.916,2.984-43.475,8.732-43.475,15.348c0,9.674,37.535,17.52,83.832,17.52c46.299,0,83.828-7.842,83.828-17.517
					C198.906,50.42,181.35,44.668,155.434,41.688z"/>
				<path fill="#2F2A20" d="M168.99,52H61.166l8.525-6.634c5.264-1.193,11.451-2.198,18.293-2.923L83.785,47h62.582l-4.199-4.282
					l-2.467-2.544l-24.623-26.731L90.453,40.282l-2.469,2.706c-6.842,0.725-13.029,1.729-18.293,2.925l5.029-4.229l40.357-33.996
					l40.355,33.999l5.029,3.681L168.99,52z"/>
			</g>
		</g>
	</g>
</g>
<g id="img_1_">
</g>
<g id="nav">
</g>
<g id="news">
</g>
<g id="text">
</g>
<g id="mv">
</g>
<g id="footer">
</g>
<g id="top_x5F_btn">
</g>
<g id="header">
</g>
</svg>
